<?xml version="1.0" encoding="UTF-8"?>
<svg width="16px" height="14px" viewBox="0 0 16 14" version="1.1" xmlns="http://www.w3.org/2000/svg" xmlns:xlink="http://www.w3.org/1999/xlink">
    <!-- Generator: Sketch 50.2 (55047) - http://www.bohemiancoding.com/sketch -->
    <title>Shape Copy 2</title>
    <desc>Created with Sketch.</desc>
    <defs></defs>
    <g id="ICO-Catalogue" stroke="none" stroke-width="1" fill="none" fill-rule="evenodd">
        <g id="ICO-CATALOGUE-Trading-1280x-5.4" transform="translate(-642.000000, -480.000000)" fill="#5CB0D5" fill-rule="nonzero">
            <g id="Group-6-Copy" transform="translate(342.000000, 464.000000)">
                <path d="M314.4,18.2105263 L314.4,17.4736842 L312.8,17.4736842 L312.8,18.2105263 L311.2,18.2105263 L311.2,16.7368421 C311.2,16.3301053 310.8416,16 310.4,16 L305.6,16 C305.1584,16 304.8,16.3301053 304.8,16.7368421 L304.8,18.2105263 L303.2,18.2105263 L303.2,17.4736842 L301.6,17.4736842 L301.6,18.2105263 C300.7176,18.2105263 300,18.8714737 300,19.6842105 L300,28.5263158 C300,29.3397895 300.7176,30 301.6,30 L314.4,30 C315.2824,30 316,29.3397895 316,28.5263158 L316,19.6842105 C316,18.8714737 315.2824,18.2105263 314.4,18.2105263 Z M306.4,17.4736842 L309.6,17.4736842 L309.6,18.2105263 L306.4,18.2105263 L306.4,17.4736842 Z M310.4,22.6315789 L307.6,22.6315789 C307.3792,22.6315789 307.2,22.7973684 307.2,23 C307.2,23.2033684 307.3792,23.3684211 307.6,23.3684211 L308.4,23.3684211 C309.5024,23.3684211 310.4,24.1951579 310.4,25.2105263 C310.4,26.1006316 309.712,26.8448421 308.8,27.0157895 L308.8,27.7894737 L307.2,27.7894737 L307.2,27.0526316 L305.6,27.0526316 L305.6,25.5789474 L308.4,25.5789474 C308.6208,25.5789474 308.8,25.4138947 308.8,25.2105263 C308.8,25.0078947 308.6208,24.8421053 308.4,24.8421053 L307.6,24.8421053 C306.4968,24.8421053 305.6,24.0153684 305.6,23 C305.6,22.1106316 306.288,21.3664211 307.2,21.1954737 L307.2,20.4210526 L308.8,20.4210526 L308.8,21.1578947 L310.4,21.1578947 L310.4,22.6315789 Z" id="Shape-Copy-2"></path>
            </g>
        </g>
    </g>
</svg>