<svg xmlns="http://www.w3.org/2000/svg" xmlns:xlink="http://www.w3.org/1999/xlink" width="9" height="9" viewBox="0 0 9 9"><defs><path id="k04ia" d="M1005.75 417.65a4.46 4.46 0 0 1-2.4-5.9 4.51 4.51 0 0 1 2.39-2.4 4.48 4.48 0 0 1 5.9 2.4c.24.56.36 1.15.36 1.75a4.62 4.62 0 0 1-2.76 4.14 4.41 4.41 0 0 1-3.49.01zm5.77-6.1c-.21-.41-.49-.78-.81-1.1l-.17-.16-3.02 2.98-1.17-1.12a.8.8 0 0 0-1.12.01.8.8 0 0 0 0 1.13l2.3 2.21z"/></defs><g><g transform="translate(-1003 -409)"><use fill="#8f96a1" xlink:href="#k04ia"/></g></g></svg>