<svg xmlns="http://www.w3.org/2000/svg" xmlns:xlink="http://www.w3.org/1999/xlink" width="15" height="15" viewBox="0 0 15 15"><defs><path id="qpwia" d="M818.5 226.06a6.56 6.56 0 1 1 0-13.12 6.56 6.56 0 0 1 0 13.12zm0-14.06a7.5 7.5 0 1 0 0 15 7.5 7.5 0 0 0 0-15zm-3.06 7.09a.46.46 0 0 0-.13.41c-.02.15.01.3.13.41l2.65 2.66a.47.47 0 1 0 .66-.67l-1.93-1.93h4.96a.47.47 0 0 0 0-.94h-4.96l1.93-1.93a.47.47 0 1 0-.66-.67z"/></defs><g><g opacity=".5" transform="translate(-811 -212)"><use fill="#5bb0d5" xlink:href="#qpwia"/></g></g></svg>