<svg xmlns="http://www.w3.org/2000/svg" xmlns:xlink="http://www.w3.org/1999/xlink" width="16" height="16" viewBox="0 0 16 16"><defs><path id="c402a" d="M1000.45 29.3a6.97 6.97 0 0 0-2.85 5.26H996a8.61 8.61 0 0 1 3.3-6.44zm7.1 0l1.14-1.18a8.66 8.66 0 0 1 3.31 6.44h-1.6a7.01 7.01 0 0 0-2.85-5.26zm1.26 9.78l2.19.92v1h-14v-1l2.19-.92v-4.1c0-2.53 1.3-4.63 3.6-5.2v-.55c0-.68.54-1.23 1.21-1.23.67 0 1.2.55 1.2 1.23v.56c2.3.56 3.61 2.67 3.61 5.18zM1002 42h4c0 .23-.44.8-.52 1-.21.5-.48 1-1.16.97-.1.02-.2.03-.32.03-.9 0-2-1.1-2-2z"/></defs><g><g transform="translate(-996 -28)"><use fill="#ff3657" xlink:href="#c402a"/></g></g></svg>