<svg xmlns="http://www.w3.org/2000/svg" xmlns:xlink="http://www.w3.org/1999/xlink" width="13" height="16" viewBox="0 0 13 16"><defs><path id="1mvja" d="M467.66 411.36c-.24.26-.51.43-.84.51a5.2 5.2 0 0 1-1.25.13h-.86a1.9 1.9 0 0 1-.53-.04.26.26 0 0 1-.14-.15 2.4 2.4 0 0 1-.04-.56V409h1.53c.67 0 1.17.06 1.5.16.32.11.56.28.72.49.17.21.25.48.25.78 0 .36-.11.67-.34.93zm-2.29-7.36c.8 0 1.36.05 1.67.15.31.1.55.26.71.48.17.24.25.51.25.83 0 .32-.09.6-.26.83-.18.24-.43.42-.78.53a5.2 5.2 0 0 1-1.59.18H464v-3zm6.2 5.15a2.87 2.87 0 0 0-1.15-1.02 6.25 6.25 0 0 0-1.44-.47 4.5 4.5 0 0 0 1.42-.68c.35-.27.63-.59.82-.94a2.4 2.4 0 0 0-.25-2.64 3.4 3.4 0 0 0-1.55-1.05 6.12 6.12 0 0 0-1.42-.3v-1.77l-1.9-.28v1.98h-1.2v-1.77L463 400v1.98h-4v1.67h.53c.35 0 .6.03.72.08.13.06.88.23.94.33.05.1 0 .49 0 .84v6.14c0 .34.05.82 0 .92-.06.1-.81.26-.94.31-.13.06-.37.08-.72.08H459v1.67h4v1.66l1.9.32v-1.98h1.21v1.7l1.88.28v-2.08c.61-.07 1.13-.18 1.53-.32.8-.28 1.4-.7 1.83-1.23a2.75 2.75 0 0 0 .23-3.22z"/></defs><g><g transform="translate(-459 -400)"><use fill="#fff" xlink:href="#1mvja"/></g></g></svg>