<svg xmlns="http://www.w3.org/2000/svg" xmlns:xlink="http://www.w3.org/1999/xlink" width="14" height="12" viewBox="0 0 14 12"><defs><path id="4bk3a" d="M231 1460.03a.67.67 0 0 1-.4.59l-6.59 2.66-5.74-2.5v3.06c0 .37-.28.67-.63.67a.65.65 0 0 1-.64-.67V1460c0-.07.03-.2.07-.29a.66.66 0 0 1 .28-.3l6.36-3.34c.18-.1.4-.1.57 0l6.37 3.33c.22.12.36.37.35.63zm-6.77 4.6l4.22-1.71v1.87c0 .25-.13.48-.35.6-1.09.56-2.21 1.27-4.1 1.27-1.89 0-3.01-.7-4.1-1.28a.67.67 0 0 1-.35-.6v-2l4.2 1.84a.61.61 0 0 0 .48 0zm-5.96 1.37v1.33c0 .37-.28.67-.63.67a.65.65 0 0 1-.64-.67V1466c0-.37.29-.67.64-.67.35 0 .63.3.63.67z"/></defs><g><g opacity=".75" transform="translate(-217 -1456)"><use fill="#525c6c" xlink:href="#4bk3a"/></g></g></svg>