<svg xmlns="http://www.w3.org/2000/svg" xmlns:xlink="http://www.w3.org/1999/xlink" width="17" height="16" viewBox="0 0 17 16"><defs><path id="9wysa" d="M275.68 1151.14h-3.09v-3.04h3.1zm-4.63 0h-3.1v-3.04h3.1zm0 4.57h-3.1v-3.04h3.1zm-4.64-4.57h-3.1v-3.04h3.1zm0 4.57h-3.1v-3.04h3.1zm10.04-12.19h-1.54V1142h-1.55v3.81h-1.54v-2.29h-4.64V1142h-1.54v3.81h-1.55v-2.29h-1.54c-.86 0-1.55.69-1.55 1.53v11.43c0 .84.7 1.52 1.55 1.52h13.9c.86 0 1.55-.68 1.55-1.52v-11.43c0-.84-.7-1.53-1.55-1.53z"/></defs><g><g transform="translate(-261 -1142)"><use fill="#c5d0de" xlink:href="#9wysa"/></g></g></svg>