<svg xmlns="http://www.w3.org/2000/svg" xmlns:xlink="http://www.w3.org/1999/xlink" width="24.04" height="22.39" viewBox="0 0 24.04 22.39"><defs><path id="26woa" d="M399.88 123.13l4.8 4.8"/><path id="26wob" d="M397 128.5h-5.54a1.97 1.97 0 0 1-1.96-1.96v-16.09c0-1.08.87-1.95 1.95-1.95h20.09c1.08 0 1.96.88 1.96 1.96v2.04H392"/><path id="26woc" d="M413.54 115.52v11.2c0 1.08-.88 1.95-1.96 1.95h-5.44"/><path id="26wod" d="M393.78 110.58h1.1"/><path id="26woe" d="M396 110.58h1.1"/><path id="26wof" d="M391.57 110.58h1.1"/><path id="26wog" d="M399.69 116.12h3.5"/><path id="26woh" d="M401.35 118.89v-2.59"/><path id="26woi" d="M407.63 124.6a6.28 6.28 0 1 1-12.55 0 6.28 6.28 0 0 1 12.55 0z"/><path id="26woj" d="M402.09 124.6a.74.74 0 1 1-1.48 0 .74.74 0 0 1 1.48 0z"/><path id="26wok" d="M397.66 124.6a.37.37 0 1 1-.74 0 .37.37 0 0 1 .74 0z"/><path id="26wol" d="M401.72 129.04a.37.37 0 1 1-.74 0 .37.37 0 0 1 .74 0z"/><path id="26wom" d="M401.72 120.18a.37.37 0 1 1-.74 0 .37.37 0 0 1 .74 0z"/><path id="26won" d="M401.35 120.18a4.43 4.43 0 0 1 4.43 4.43"/></defs><g><g transform="translate(-389.5 -108.5)"><g><use fill="#fff" fill-opacity="0" stroke="#44af36" stroke-linecap="round" stroke-linejoin="round" stroke-miterlimit="50" xlink:href="#26woa"/></g><g><g><use fill="#fff" fill-opacity="0" stroke="#8f96a1" stroke-miterlimit="50" xlink:href="#26wob"/></g><g><use fill="#fff" fill-opacity="0" stroke="#8f96a1" stroke-miterlimit="50" xlink:href="#26woc"/></g><g><use fill="#fff" fill-opacity="0" stroke="#44af36" stroke-miterlimit="50" xlink:href="#26wod"/></g><g><use fill="#fff" fill-opacity="0" stroke="#44af36" stroke-miterlimit="50" xlink:href="#26woe"/></g><g><use fill="#fff" fill-opacity="0" stroke="#44af36" stroke-miterlimit="50" xlink:href="#26wof"/></g><g><use fill="#fff" fill-opacity="0" stroke="#44af36" stroke-miterlimit="50" xlink:href="#26wog"/></g><g><use fill="#fff" fill-opacity="0" stroke="#44af36" stroke-miterlimit="50" xlink:href="#26woh"/></g><g><use fill="#fff" fill-opacity="0" stroke="#44af36" stroke-miterlimit="50" xlink:href="#26woi"/></g><g><use fill="#fff" fill-opacity="0" stroke="#44af36" stroke-linecap="round" stroke-linejoin="round" stroke-miterlimit="50" xlink:href="#26woj"/></g><g><use fill="#fff" fill-opacity="0" stroke="#44af36" stroke-linecap="round" stroke-linejoin="round" stroke-miterlimit="50" xlink:href="#26wok"/></g><g><use fill="#fff" fill-opacity="0" stroke="#44af36" stroke-linecap="round" stroke-linejoin="round" stroke-miterlimit="50" xlink:href="#26wol"/></g><g><use fill="#fff" fill-opacity="0" stroke="#44af36" stroke-linecap="round" stroke-linejoin="round" stroke-miterlimit="50" xlink:href="#26wom"/></g><g><use fill="#fff" fill-opacity="0" stroke="#44af36" stroke-miterlimit="50" xlink:href="#26won"/></g></g></g><g transform="translate(-389.5 -108.5)"><g><use fill="#fff" fill-opacity="0" stroke="#44af36" stroke-linecap="round" stroke-linejoin="round" stroke-miterlimit="50" xlink:href="#26woa"/></g><g><g><use fill="#fff" fill-opacity="0" stroke="#8f96a1" stroke-miterlimit="50" xlink:href="#26wob"/></g><g><use fill="#fff" fill-opacity="0" stroke="#8f96a1" stroke-miterlimit="50" xlink:href="#26woc"/></g><g><use fill="#fff" fill-opacity="0" stroke="#44af36" stroke-miterlimit="50" xlink:href="#26wod"/></g><g><use fill="#fff" fill-opacity="0" stroke="#44af36" stroke-miterlimit="50" xlink:href="#26woe"/></g><g><use fill="#fff" fill-opacity="0" stroke="#44af36" stroke-miterlimit="50" xlink:href="#26wof"/></g><g><use fill="#fff" fill-opacity="0" stroke="#44af36" stroke-miterlimit="50" xlink:href="#26wog"/></g><g><use fill="#fff" fill-opacity="0" stroke="#44af36" stroke-miterlimit="50" xlink:href="#26woh"/></g><g><use fill="#fff" fill-opacity="0" stroke="#44af36" stroke-miterlimit="50" xlink:href="#26woi"/></g><g><use fill="#fff" fill-opacity="0" stroke="#44af36" stroke-linecap="round" stroke-linejoin="round" stroke-miterlimit="50" xlink:href="#26woj"/></g><g><use fill="#fff" fill-opacity="0" stroke="#44af36" stroke-linecap="round" stroke-linejoin="round" stroke-miterlimit="50" xlink:href="#26wok"/></g><g><use fill="#fff" fill-opacity="0" stroke="#44af36" stroke-linecap="round" stroke-linejoin="round" stroke-miterlimit="50" xlink:href="#26wol"/></g><g><use fill="#fff" fill-opacity="0" stroke="#44af36" stroke-linecap="round" stroke-linejoin="round" stroke-miterlimit="50" xlink:href="#26wom"/></g><g><use fill="#fff" fill-opacity="0" stroke="#44af36" stroke-miterlimit="50" xlink:href="#26won"/></g></g></g></g></svg>