<svg xmlns="http://www.w3.org/2000/svg" xmlns:xlink="http://www.w3.org/1999/xlink" width="9" height="9" viewBox="0 0 9 9"><defs><path id="iljia" d="M1024 340.5a.5.5 0 0 1-.5.5h-6a.5.5 0 0 1-.5-.5v-3h7zm-6-6a.5.5 0 1 1 1 0v1a.5.5 0 1 1-1 0zm4 0a.5.5 0 1 1 1 0v1a.5.5 0 1 1-1 0zm2 .1v-.1a1.5 1.5 0 1 0-3 0h-1a1.5 1.5 0 1 0-3 0v.1c-.58.2-1 .75-1 1.4v4.5c0 .83.67 1.5 1.5 1.5h6c.83 0 1.5-.67 1.5-1.5V336c0-.65-.42-1.2-1-1.4z"/></defs><g><g transform="translate(-1016 -333)"><use fill="#fff" xlink:href="#iljia"/></g></g></svg>