<svg xmlns="http://www.w3.org/2000/svg" xmlns:xlink="http://www.w3.org/1999/xlink" width="14" height="14" viewBox="0 0 14 14"><defs><path id="74ppa" d="M674.44 501.56c.86 0 1.56.7 1.56 1.55v9.33c0 .86-.7 1.56-1.56 1.56h-10.88c-.86 0-1.56-.7-1.56-1.56v-9.33c0-.85.7-1.55 1.56-1.55h.77v1.55h2.34v-1.55h4.66v1.55h2.34v-1.55zM665 500h1v2.72h-1zm7 0h1v2.72h-1zm1 9v-.7c0-.3-.2-.3-.5-.3s-.5 0-.5.3v.7h-.7c-.3 0-.3.2-.3.5s0 .5.3.5h.7v.7c0 .3.2.3.5.3s.5 0 .5-.3v-.7h.7c.3 0 .3-.2.3-.5s0-.5-.3-.5zm-9-1h1v-1h-1zm2 0h1v-1h-1zm-2 2h1v-1h-1zm2 0h1v-1h-1zm-2 2h1v-1h-1zm2 0h1v-1h-1zm2-4h1v-1h-1zm0 2h1v-1h-1zm0 2h1v-1h-1z"/></defs><g><g opacity=".5" transform="translate(-662 -500)"><use fill="#5cb0d5" xlink:href="#74ppa"/></g></g></svg>