<svg xmlns="http://www.w3.org/2000/svg" xmlns:xlink="http://www.w3.org/1999/xlink" width="23" height="24" viewBox="0 0 23 24"><defs><path id="iomma" d="M228.56 117.56c-.46.46-1.17.53-1.74.25l2-2a1.49 1.49 0 0 1-.27 1.75zm-5.12 2.22a3.52 3.52 0 0 1 .2-4.72l2.42-2.41a3.49 3.49 0 0 1 4.72-.21zM210 121.5a.5.5 0 1 1 1 0 .5.5 0 0 1-1 0zm10-9.41v-.18a2.93 2.93 0 0 1 2.91-2.91h.18c.76 0 1.51.31 2.06.85l1.3 1.3c-.4.21-.77.46-1.1.8l-2.4 2.4c-.34.33-.59.7-.8 1.1l-1.3-1.3a2.93 2.93 0 0 1-.85-2.06zM222.9 131h-10.83c.21-.58.77-1 1.42-1h8c.65 0 1.2.42 1.41 1zm6.65-15.92l2.3-2.3a.5.5 0 0 0-.01-.71l-.17-.17c-1.16-1.12-2.77-1.49-4.24-1.12a.48.48 0 0 0-.09-.13l-1.5-1.5a3.94 3.94 0 0 0-2.76-1.15h-.18a3.94 3.94 0 0 0-3.91 3.91v.18c0 1.03.42 2.03 1.15 2.76l.96.97-10.3 4.21a1.5 1.5 0 1 0-.31 2.97l.24-.02 4.73 6.02h-1.97a2.5 2.5 0 0 0-2.5 2.5c0 .28.22.5.5.5h12a.5.5 0 0 0 .5-.5 2.5 2.5 0 0 0-2.5-2.5h-4.76l-5.12-6.52a1.49 1.49 0 0 0 .16-1.76l9.94-4.06a4.5 4.5 0 0 0 1.18 4.02l.17.17c.1.1.25.13.36.15a.5.5 0 0 0 .35-.15l2.3-2.3a2.48 2.48 0 0 0 3.19-.28 2.48 2.48 0 0 0 .28-3.19z"/></defs><g><g transform="translate(-209 -108)"><use fill="#8f96a1" xlink:href="#iomma"/></g></g></svg>