<svg xmlns="http://www.w3.org/2000/svg" xmlns:xlink="http://www.w3.org/1999/xlink" width="14" height="14" viewBox="0 0 14 14"><defs><path id="bzxfa" d="M971.03 485.06a3.26 3.26 0 0 1 0 4.65l-2.78 2.76c-.86.85-1.76 1.28-2.62 1.28-.7 0-1.36-.28-1.95-.86a.87.87 0 1 1 1.22-1.23c.26.25.85.84 2.13-.42l2.78-2.76a1.53 1.53 0 0 0 0-2.2c-.56-.54-1.4-.8-2.05-.16l-.89.87a.87.87 0 1 1-1.22-1.23l.88-.87c1.25-1.25 3.15-1.17 4.5.17zm-7.9 10.05a.87.87 0 0 1 1.22 0c.34.34.34.89 0 1.23l-.71.7a3.3 3.3 0 0 1-4.67 0 3.25 3.25 0 0 1 0-4.65l2.6-2.59c1.63-1.6 3.49-1.84 4.75-.59a.87.87 0 1 1-1.22 1.23c-.74-.73-1.76.06-2.3.6l-2.6 2.58a1.54 1.54 0 0 0 0 2.2c.6.6 1.6.6 2.22 0z"/></defs><g><g transform="translate(-958 -484)"><use fill="#fff" xlink:href="#bzxfa"/></g></g></svg>