<svg xmlns="http://www.w3.org/2000/svg" xmlns:xlink="http://www.w3.org/1999/xlink" width="22" height="22" viewBox="0 0 22 22"><defs><path id="8u2ta" d="M448 2018c0-1.1.9-2 2-2h12a2 2 0 0 1 2 2v12a2 2 0 0 1-2 2h-12a2 2 0 0 1-2-2z"/><path id="8u2te" d="M451.33 2023.33a1.1 1.1 0 0 1 1.5.04l2.08 2.07 4.19-4.13a1.1 1.1 0 0 1 1.5-.03.96.96 0 0 1 .03 1.41l-4.71 4.65a1.1 1.1 0 0 1-1.57-.04c-.3 0-.58-.1-.8-.31l-2.26-2.24a.96.96 0 0 1 .04-1.42z"/><mask id="8u2tc" width="2" height="2" x="-1" y="-1"><path fill="#fff" d="M448 2016h16v16h-16z"/><use xlink:href="#8u2ta"/></mask><filter id="8u2tb" width="44" height="46" x="434" y="2006" filterUnits="userSpaceOnUse"><feOffset dy="2" in="SourceGraphic" result="FeOffset1055Out"/><feGaussianBlur in="FeOffset1055Out" result="FeGaussianBlur1056Out" stdDeviation="1.6 1.6"/></filter><clipPath id="8u2td"><use fill="#fff" xlink:href="#8u2ta"/></clipPath></defs><g><g transform="translate(-445 -2015)"><g><g filter="url(#8u2tb)"><use fill="none" stroke-opacity=".09" stroke-width="0" mask="url(&quot;#8u2tc&quot;)" xlink:href="#8u2ta"/><use fill-opacity=".09" xlink:href="#8u2ta"/></g><use fill="#fff" xlink:href="#8u2ta"/><use fill="#fff" fill-opacity="0" stroke="#c5d0de" stroke-miterlimit="50" stroke-width="2" clip-path="url(&quot;#8u2td&quot;)" xlink:href="#8u2ta"/></g><g><use fill="#e8edf2" xlink:href="#8u2te"/></g></g></g></svg>