<svg xmlns="http://www.w3.org/2000/svg" xmlns:xlink="http://www.w3.org/1999/xlink" width="16" height="16" viewBox="0 0 16 16"><defs><path id="99d3a" d="M708.87 1036.55a.35.35 0 0 1 .6-.35l.7 1.2a.35.35 0 0 1-.6.35zm-2.67 2.92a.35.35 0 0 1 .35-.6l1.2.7c.17.1.22.3.13.47a.35.35 0 0 1-.48.13l-1.2-.7m13.74-.43a7.94 7.94 0 0 1 0 7.92l-.01.04-.03.03a8.05 8.05 0 0 1-2.86 2.86l-.04.04h-.03a7.96 7.96 0 0 1-7.94 0H709l-.04-.04a8.06 8.06 0 0 1-2.86-2.86l-.03-.03-.01-.04A7.94 7.94 0 0 1 705 1043c0-.2.15-.35.35-.35h7.3v-7.3c0-.2.16-.35.35-.35 1.44 0 2.8.39 3.96 1.06l.04.01.04.03a8.05 8.05 0 0 1 2.85 2.86l.04.04.01.04"/></defs><g><g transform="translate(-705 -1035)"><use fill="#fff" xlink:href="#99d3a"/></g></g></svg>