<svg xmlns="http://www.w3.org/2000/svg" xmlns:xlink="http://www.w3.org/1999/xlink" width="16" height="16" viewBox="0 0 16 16"><defs><path id="md6ua" d="M713 616a8 8 0 0 0-6.91 12.01l.02.03a8.03 8.03 0 0 0 2.86 2.86l.04.03.03.01a7.93 7.93 0 0 0 7.91 0h.04l.03-.04-.03.03A8 8 0 0 0 713 616m3.93 14.15l-.51-.9a.35.35 0 1 0-.6.35l.51.9c-.9.46-1.91.74-2.99.79v-1.02a.35.35 0 0 0-.7 0v1.02a7.23 7.23 0 0 1-2.98-.8l.51-.89a.35.35 0 1 0-.6-.35l-.51.9a7.33 7.33 0 0 1-2.19-2.2l.9-.5a.35.35 0 0 0-.36-.6l-.88.5a7.22 7.22 0 0 1-.8-2.98h1.02a.35.35 0 1 0 0-.7h-1.02c.05-1.07.33-2.08.8-2.98l.88.51c.06.03.12.05.18.05a.35.35 0 0 0 .17-.65l-.89-.51a7.34 7.34 0 0 1 2.2-2.19l.5.89a.35.35 0 0 0 .6-.35l-.5-.89c.9-.46 1.9-.75 2.98-.8V624.01c0 .2.15.35.35.35H720.27a7.22 7.22 0 0 1-.8 2.98l-.9-.5a.35.35 0 0 0-.34.6l.88.5a7.3 7.3 0 0 1-2.18 2.2"/></defs><g><g transform="translate(-705 -616)"><use fill="#fff" xlink:href="#md6ua"/></g></g></svg>