<?xml version="1.0" encoding="UTF-8"?>
<svg width="15px" height="15px" viewBox="0 0 15 15" version="1.1" xmlns="http://www.w3.org/2000/svg" xmlns:xlink="http://www.w3.org/1999/xlink">
    <!-- Generator: Sketch 50.2 (55047) - http://www.bohemiancoding.com/sketch -->
    <title>Solid</title>
    <desc>Created with Sketch.</desc>
    <defs></defs>
    <g id="ICO-Kabinet" stroke="none" stroke-width="1" fill="none" fill-rule="evenodd">
        <g id="Kabinet-1280x-ICO-Portfolio-Private-Portfolio-7" transform="translate(-1115.000000, -190.000000)" fill="#FFFFFF" fill-rule="nonzero">
            <g id="Group-8-Copy-7" transform="translate(1103.000000, 180.000000)">
                <g id="bitcoin-network" transform="translate(12.000000, 10.000000)">
                    <g id="Solid">
                        <g id="Group">
                            <path d="M7.5,0.00125 C3.364375,0.00125 0,3.36625 0,7.50125 C0,11.63625 3.364375,15 7.5,15 C11.635625,15 15,11.63625 15,7.500625 C15,3.365625 11.635625,0.00125 7.5,0.00125 Z M12.904375,4.37625 L11.396875,4.37625 C11.136875,4.05375 9.75125,1.939375 9.520625,1.593125 C10.955,2.085 12.15375,3.08375 12.904375,4.37625 Z M3.75,7.50125 C3.75,5.43375 5.431875,3.75125 7.5,3.75125 C9.568125,3.75125 11.25,5.43375 11.25,7.50125 C11.25,9.569375 9.568125,11.25125 7.5,11.25125 C5.431875,11.25125 3.75,9.569375 3.75,7.50125 Z M7.800625,1.266875 L8.73,2.660625 C8.335625,2.560625 7.925,2.50125 7.5,2.50125 C7.075,2.50125 6.664375,2.560625 6.27,2.660625 L7.199375,1.266875 C7.3,1.261875 7.398125,1.25125 7.5,1.25125 C7.601875,1.25125 7.7,1.261875 7.800625,1.266875 Z M5.479375,1.593125 C5.24875,1.939375 3.863125,4.05375 3.603125,4.37625 L2.095625,4.37625 C2.84625,3.08375 4.045,2.085 5.479375,1.593125 Z M1.538125,5.62625 L2.868125,5.62625 C2.6325,6.20625 2.5,6.838125 2.5,7.50125 C2.5,8.164375 2.6325,8.796875 2.868125,9.37625 L1.538125,9.37625 C1.351875,8.784375 1.25,8.154375 1.25,7.50125 C1.25,6.848125 1.351875,6.218125 1.538125,5.62625 Z M2.09625,10.62625 L3.60375,10.62625 C3.86375,10.949375 5.24875,13.063125 5.479375,13.40875 C4.045,12.916875 2.84625,11.91875 2.09625,10.62625 Z M7.199375,13.735 L6.27,12.341875 C6.664375,12.441875 7.075,12.500625 7.5,12.500625 C7.925,12.500625 8.335625,12.441875 8.73,12.341875 L7.800625,13.735 C7.700625,13.740625 7.601875,13.75 7.5,13.75 C7.398125,13.75 7.299375,13.740625 7.199375,13.735 Z M9.520625,13.40875 C9.75125,13.0625 11.136875,10.94875 11.39625,10.62625 L12.90375,10.62625 C12.15375,11.91875 10.955,12.916875 9.520625,13.40875 Z M13.461875,9.37625 L12.1325,9.37625 C12.368125,8.796875 12.500625,8.164375 12.500625,7.50125 C12.500625,6.838125 12.368125,6.20625 12.1325,5.62625 L13.4625,5.62625 C13.64875,6.21875 13.750625,6.848125 13.750625,7.50125 C13.75,8.154375 13.648125,8.784375 13.461875,9.37625 Z" id="Shape"></path>
                            <path d="M8.125,10.62625 L8.125,9.97 C8.8375,9.824375 9.375,9.19375 9.375,8.43875 C9.375,8.085625 9.253125,7.763125 9.054375,7.50125 C9.2525,7.239375 9.375,6.916875 9.375,6.56375 C9.375,5.809375 8.8375,5.17875 8.125,5.033125 L8.125,4.37625 L6.875,4.37625 L6.875,5.00125 L5.625,5.00125 L5.625,10.00125 L6.875,10.00125 L6.875,10.62625 L8.125,10.62625 Z M7.8125,8.75125 L6.875,8.75125 L6.875,8.12625 L7.8125,8.12625 C7.985,8.12625 8.125,8.26625 8.125,8.43875 C8.125,8.61125 7.985,8.75125 7.8125,8.75125 Z M8.125,6.56375 C8.125,6.73625 7.985,6.87625 7.8125,6.87625 L6.875,6.87625 L6.875,6.25125 L7.8125,6.25125 C7.985,6.25125 8.125,6.39125 8.125,6.56375 Z" id="Shape"></path>
                        </g>
                    </g>
                </g>
            </g>
        </g>
    </g>
</svg>