<svg xmlns="http://www.w3.org/2000/svg" xmlns:xlink="http://www.w3.org/1999/xlink" width="16" height="16" viewBox="0 0 16 16"><defs><path id="vcmva" d="M1243.3 120.7a1 1 0 0 1 0-1.4l3.29-3.3H1245a1 1 0 1 1 0-2h5v5a1 1 0 1 1-2 0v-1.59l-3.3 3.3a1 1 0 0 1-1.4 0zm4.7 3.3v4h-4a1 1 0 1 1 0-2h2v-2a1 1 0 1 1 2 0zm-12-4v-4h4a1 1 0 1 1 0 2h-2v2a1 1 0 0 1-2 0zm-2 10v-5c0-.55.33-1 .88-1a1 1 0 0 1 1 1v1.7l3.41-3.4a1 1 0 0 1 1.42 0 1 1 0 0 1 0 1.4l-3.3 3.3h1.47a1 1 0 1 1 0 2z"/></defs><g><g opacity=".5" transform="translate(-1234 -114)"><use fill="#fff" xlink:href="#vcmva"/></g></g></svg>