<svg xmlns="http://www.w3.org/2000/svg" xmlns:xlink="http://www.w3.org/1999/xlink" width="59" height="55" viewBox="0 0 59 55"><defs><path id="8nl8a" d="M907.3 555.51l-3.25 7.46 6.62-.32z"/><path id="8nl8b" d="M919.76 565.18h-11.5l-1.1-8.14c0-4.02 2.8-5.66 6.24-5.66h.12c3.45 0 7 .5 8 5.52z"/><path id="8nl8c" d="M913.44 553.53l-.75.05a2 2 0 0 1-2.14-1.84l-.15-1.92 4.73-.36.15 1.92a2 2 0 0 1-1.84 2.15"/><path id="8nl8d" d="M913.44 553.53l-.75.05a2 2 0 0 1-2.14-1.84l-.15-1.92 4.73-.36.15 1.92a2 2 0 0 1-1.84 2.15z"/><path id="8nl8e" d="M917.66 545.65c.1 2.73-2.15 5.04-5.03 5.26-2.88.22-5.45-1.72-5.77-4.44l-.5-4.39a5.47 5.47 0 0 1 5.14-5.98 5.47 5.47 0 0 1 6 5.13z"/><path id="8nl8f" d="M913.29 529.97h-5.69v2.11l-3.51-2.1h-14.4v-11.03h23.6z"/><path id="8nl8g" d="M893.14 532.05h-6.8l-3.71 2.14v-2.14h-9.99v-8.27h20.5z"/><path id="8nl8h" d="M905.95 542.19l11.17-.6s.1-5.9-6.03-5.42c-6.12.46-5.14 6.02-5.14 6.02"/><path id="8nl8i" d="M905.95 542.19l11.17-.6s.1-5.9-6.03-5.42c-6.12.46-5.14 6.02-5.14 6.02z"/><path id="8nl8j" d="M907.53 542.13l13.85-1.06"/><path id="8nl8k" d="M911.29 567.55h3.67c.46 0 .83-.37.83-.82v-1.9a.83.83 0 0 0-.83-.83h-3.67a.83.83 0 0 0-.83.83v1.9c0 .45.37.82.83.82"/><path id="8nl8l" d="M911.29 567.55h3.67c.46 0 .83-.37.83-.82v-1.9a.83.83 0 0 0-.83-.83h-3.67a.83.83 0 0 0-.83.83v1.9c0 .45.37.82.83.82z"/><path id="8nl8m" d="M879.73 555.51l3.26 7.46-6.62-.32z"/><path id="8nl8n" d="M867.28 565.18h11.5l1.1-8.14c0-4.02-2.79-5.66-6.23-5.66h-.13c-3.44 0-7 .5-8 5.52z"/><path id="8nl8o" d="M865.76 555.92l-1.99 8.88c-.08.3-.1.63-.06.95v.04c.21 1.65 1.9 2.97 3.8 2.96l3.87-.02-.13-4.7-3.32.03 1.65-7.15"/><path id="8nl8p" d="M875.75 567.55h-3.67a.83.83 0 0 1-.83-.82v-1.9c0-.46.37-.83.83-.83h3.67c.46 0 .83.37.83.83v1.9c0 .45-.37.82-.83.82"/><path id="8nl8q" d="M875.75 567.55h-3.67a.83.83 0 0 1-.83-.82v-1.9c0-.46.37-.83.83-.83h3.67c.46 0 .83.37.83.83v1.9c0 .45-.37.82-.83.82z"/><path id="8nl8r" d="M901.75 569.07h15.85v-2.58h-15.85z"/><path id="8nl8s" d="M871.09 569.07h15.85v-2.58h-15.85z"/><path id="8nl8t" d="M897.03 569.08h15.47l-1.9-10.34h-15.47z"/><path id="8nl8u" d="M889.99 569.08h-15.47l1.9-10.34h15.47z"/><path id="8nl8v" d="M873.45 553.82l-.74-.12a2 2 0 0 1-1.65-2.29l.3-1.9 4.69.76-.31 1.9a2 2 0 0 1-2.29 1.65"/><path id="8nl8w" d="M873.45 553.82l-.74-.12a2 2 0 0 1-1.65-2.29l.3-1.9 4.69.76-.31 1.9a2 2 0 0 1-2.29 1.65z"/><path id="8nl8x" d="M879.62 547.13c-.54 2.68-3.27 4.4-6.11 3.94-2.85-.46-4.9-2.95-4.58-5.66l.54-4.39c.36-3 3.24-5.12 6.4-4.61a5.47 5.47 0 0 1 4.63 6.39z"/><path id="8nl8y" d="M870.5 540.75s.15-2.68 4.5-1.98c5.52.9 6.08 3.68 6.08 3.68s1.12-2.41-.08-5.79l-.83-2.31s-1.58 1.44-3.17 1.15c-1.59-.28-6.87-.74-7.85 4.98l1.54.25"/><path id="8nl8z" d="M871.9 539.37a1.05 1.05 0 0 0-2.08-.34l-.39 2.4a1.05 1.05 0 0 0 2.08.33z"/><path id="8nl8A" d="M880.65 540.79a1.05 1.05 0 1 0-2.07-.34l-.39 2.4a1.05 1.05 0 0 0 2.08.33z"/><path id="8nl8B" d="M883.84 541.7h18.77v-3.28h-18.77z"/><path id="8nl8C" d="M883.84 546.86h18.77v-3.27h-18.77z"/><path id="8nl8D" d="M889.69 552.02h12.92v-3.27h-12.92z"/><path id="8nl8E" d="M884.96 563.77c-.19 1.13-1.14 2.05-2.13 2.05s-1.64-.92-1.45-2.05c.2-1.13 1.15-2.05 2.13-2.05 1 0 1.64.92 1.45 2.05"/><path id="8nl8F" d="M901.24 563.77c.2 1.13 1.15 2.05 2.13 2.05 1 0 1.64-.92 1.45-2.05-.19-1.13-1.14-2.05-2.13-2.05s-1.64.92-1.45 2.05"/><path id="8nl8G" d="M870.06 572.69h47.02v-3.1h-47.02z"/><path id="8nl8H" d="M869.02 569.59h49.09"/></defs><g><g transform="translate(-863 -518)"><use fill="#96cfc1" xlink:href="#8nl8a"/></g><g transform="translate(-863 -518)"><use fill="#fff" fill-opacity="0" stroke="#0075af" stroke-linecap="round" stroke-linejoin="round" stroke-miterlimit="50" stroke-width="1.38" xlink:href="#8nl8a"/></g><g transform="translate(-863 -518)"><use fill="#96cfc1" xlink:href="#8nl8b"/></g><g transform="translate(-863 -518)"><use fill="#fff" fill-opacity="0" stroke="#0075af" stroke-linecap="round" stroke-linejoin="round" stroke-miterlimit="50" stroke-width="1.38" xlink:href="#8nl8b"/></g><g transform="translate(-863 -518)"><use fill="#fff" xlink:href="#8nl8c"/></g><g transform="translate(-863 -518)"><use fill="#fff" fill-opacity="0" stroke="#0075af" stroke-miterlimit="50" stroke-width="1.38" xlink:href="#8nl8d"/></g><g transform="translate(-863 -518)"><use fill="#fff" xlink:href="#8nl8e"/></g><g transform="translate(-863 -518)"><use fill="#fff" fill-opacity="0" stroke="#0075af" stroke-miterlimit="50" stroke-width="1.38" xlink:href="#8nl8e"/></g><g transform="translate(-863 -518)"><use fill="#96cfc1" xlink:href="#8nl8f"/></g><g transform="translate(-863 -518)"><use fill="#fff" fill-opacity="0" stroke="#0075af" stroke-linecap="round" stroke-linejoin="round" stroke-miterlimit="50" stroke-width="1.38" xlink:href="#8nl8f"/></g><g transform="translate(-863 -518)"><use fill="#fff" xlink:href="#8nl8g"/></g><g transform="translate(-863 -518)"><use fill="#fff" fill-opacity="0" stroke="#0075af" stroke-linecap="round" stroke-linejoin="round" stroke-miterlimit="50" stroke-width="1.38" xlink:href="#8nl8g"/></g><g transform="translate(-863 -518)"><use fill="#96cfc1" xlink:href="#8nl8h"/></g><g transform="translate(-863 -518)"><use fill="#fff" fill-opacity="0" stroke="#0075af" stroke-linecap="round" stroke-linejoin="round" stroke-miterlimit="50" stroke-width="1.38" xlink:href="#8nl8i"/></g><g transform="translate(-863 -518)"><use fill="#fff" fill-opacity="0" stroke="#0075af" stroke-linecap="round" stroke-linejoin="round" stroke-miterlimit="50" stroke-width="1.38" xlink:href="#8nl8j"/></g><g transform="translate(-863 -518)"><use fill="#fff" xlink:href="#8nl8k"/></g><g transform="translate(-863 -518)"><use fill="#fff" fill-opacity="0" stroke="#0075af" stroke-miterlimit="50" stroke-width="1.38" xlink:href="#8nl8l"/></g><g transform="translate(-863 -518)"><use fill="#96cfc1" xlink:href="#8nl8m"/></g><g transform="translate(-863 -518)"><use fill="#fff" fill-opacity="0" stroke="#0075af" stroke-linecap="round" stroke-linejoin="round" stroke-miterlimit="50" stroke-width="1.38" xlink:href="#8nl8m"/></g><g transform="translate(-863 -518)"><use fill="#96cfc1" xlink:href="#8nl8n"/></g><g transform="translate(-863 -518)"><use fill="#fff" fill-opacity="0" stroke="#0075af" stroke-linecap="round" stroke-linejoin="round" stroke-miterlimit="50" stroke-width="1.38" xlink:href="#8nl8n"/></g><g transform="translate(-863 -518)"><g><use fill="#96cfc1" xlink:href="#8nl8o"/></g><g><use fill="#fff" fill-opacity="0" stroke="#0075af" stroke-linecap="round" stroke-linejoin="round" stroke-miterlimit="50" stroke-width="1.38" xlink:href="#8nl8o"/></g></g><g transform="translate(-863 -518)"><use fill="#fff" xlink:href="#8nl8p"/></g><g transform="translate(-863 -518)"><use fill="#fff" fill-opacity="0" stroke="#0075af" stroke-miterlimit="50" stroke-width="1.38" xlink:href="#8nl8q"/></g><g clip-path="url(#clip-C391B486-6D8E-4B0D-81F3-4E6AC5E20119)" transform="translate(-863 -518)"><use fill="#96cfc1" xlink:href="#8nl8r"/></g><g clip-path="url(#clip-C391B486-6D8E-4B0D-81F3-4E6AC5E20119)" transform="translate(-863 -518)"><use fill="#fff" fill-opacity="0" stroke="#0075af" stroke-linecap="round" stroke-linejoin="round" stroke-miterlimit="50" stroke-width="1.38" xlink:href="#8nl8r"/></g><g clip-path="url(#clip-C391B486-6D8E-4B0D-81F3-4E6AC5E20119)" transform="translate(-863 -518)"><use fill="#96cfc1" xlink:href="#8nl8s"/></g><g clip-path="url(#clip-C391B486-6D8E-4B0D-81F3-4E6AC5E20119)" transform="translate(-863 -518)"><use fill="#fff" fill-opacity="0" stroke="#0075af" stroke-linecap="round" stroke-linejoin="round" stroke-miterlimit="50" stroke-width="1.38" xlink:href="#8nl8s"/></g><g clip-path="url(#clip-C391B486-6D8E-4B0D-81F3-4E6AC5E20119)" transform="translate(-863 -518)"><use fill="#96cfc1" xlink:href="#8nl8t"/></g><g clip-path="url(#clip-C391B486-6D8E-4B0D-81F3-4E6AC5E20119)" transform="translate(-863 -518)"><use fill="#fff" fill-opacity="0" stroke="#0075af" stroke-linecap="round" stroke-linejoin="round" stroke-miterlimit="50" stroke-width="1.38" xlink:href="#8nl8t"/></g><g clip-path="url(#clip-C391B486-6D8E-4B0D-81F3-4E6AC5E20119)" transform="translate(-863 -518)"><use fill="#96cfc1" xlink:href="#8nl8u"/></g><g clip-path="url(#clip-C391B486-6D8E-4B0D-81F3-4E6AC5E20119)" transform="translate(-863 -518)"><use fill="#fff" fill-opacity="0" stroke="#0075af" stroke-linecap="round" stroke-linejoin="round" stroke-miterlimit="50" stroke-width="1.38" xlink:href="#8nl8u"/></g><g clip-path="url(#clip-C391B486-6D8E-4B0D-81F3-4E6AC5E20119)" transform="translate(-863 -518)"><use fill="#fff" xlink:href="#8nl8v"/></g><g clip-path="url(#clip-C391B486-6D8E-4B0D-81F3-4E6AC5E20119)" transform="translate(-863 -518)"><use fill="#fff" fill-opacity="0" stroke="#0075af" stroke-miterlimit="50" stroke-width="1.38" xlink:href="#8nl8w"/></g><g clip-path="url(#clip-C391B486-6D8E-4B0D-81F3-4E6AC5E20119)" transform="translate(-863 -518)"><use fill="#fff" xlink:href="#8nl8x"/></g><g clip-path="url(#clip-C391B486-6D8E-4B0D-81F3-4E6AC5E20119)" transform="translate(-863 -518)"><use fill="#fff" fill-opacity="0" stroke="#0075af" stroke-miterlimit="50" stroke-width="1.38" xlink:href="#8nl8x"/></g><g clip-path="url(#clip-C391B486-6D8E-4B0D-81F3-4E6AC5E20119)" transform="translate(-863 -518)"><use fill="#0075af" xlink:href="#8nl8y"/></g><g clip-path="url(#clip-C391B486-6D8E-4B0D-81F3-4E6AC5E20119)" transform="translate(-863 -518)"><use fill="#0075af" xlink:href="#8nl8z"/></g><g clip-path="url(#clip-C391B486-6D8E-4B0D-81F3-4E6AC5E20119)" transform="translate(-863 -518)"><use fill="#0075af" xlink:href="#8nl8A"/></g><g clip-path="url(#clip-C391B486-6D8E-4B0D-81F3-4E6AC5E20119)" transform="translate(-863 -518)"><use fill="#47a06f" xlink:href="#8nl8B"/></g><g clip-path="url(#clip-C391B486-6D8E-4B0D-81F3-4E6AC5E20119)" transform="translate(-863 -518)"><use fill="#47a06f" xlink:href="#8nl8C"/></g><g clip-path="url(#clip-C391B486-6D8E-4B0D-81F3-4E6AC5E20119)" transform="translate(-863 -518)"><use fill="#47a06f" xlink:href="#8nl8D"/></g><g clip-path="url(#clip-C391B486-6D8E-4B0D-81F3-4E6AC5E20119)" transform="translate(-863 -518)"><use fill="#d9eaee" xlink:href="#8nl8E"/></g><g clip-path="url(#clip-C391B486-6D8E-4B0D-81F3-4E6AC5E20119)" transform="translate(-863 -518)"><use fill="#d9eaee" xlink:href="#8nl8F"/></g><g clip-path="url(#clip-C391B486-6D8E-4B0D-81F3-4E6AC5E20119)" transform="translate(-863 -518)"><use fill="#47a06f" xlink:href="#8nl8G"/></g><g clip-path="url(#clip-C391B486-6D8E-4B0D-81F3-4E6AC5E20119)" transform="translate(-863 -518)"><g><use fill="#fff" xlink:href="#8nl8H"/></g><g><use fill="#fff" fill-opacity="0" stroke="#0075af" stroke-linecap="round" stroke-miterlimit="50" stroke-width="1.38" xlink:href="#8nl8H"/></g></g></g></svg>