<svg xmlns="http://www.w3.org/2000/svg" xmlns:xlink="http://www.w3.org/1999/xlink" width="15" height="12" viewBox="0 0 15 12"><defs><path id="zx6ha" d="M1005.22 272.1a3.8 3.8 0 0 0-1.79-3.1c.08.35.12.7.12 1.07 0 2.82-2.4 5.18-5.55 5.68a5.92 5.92 0 0 0 4.31.05c.82.27 1.7.35 2.43.35-.38-.46-.64-.9-.83-1.3a3.67 3.67 0 0 0 1.31-2.74z"/><path id="zx6hb" d="M1002.02 269.48c0-2.47-2.47-4.48-5.51-4.48-3.04 0-5.51 2-5.51 4.48 0 1.29.67 2.45 1.75 3.26-.2.52-.54 1.2-1.12 1.9 1.1 0 2.51-.14 3.6-.81.42.08.84.12 1.28.12 3.04 0 5.51-2 5.51-4.47z"/></defs><g><g transform="translate(-991 -265)"><g><use fill="#8f96a1" xlink:href="#zx6ha"/></g><g><use fill="#8f96a1" xlink:href="#zx6hb"/></g></g></g></svg>