<svg xmlns="http://www.w3.org/2000/svg" xmlns:xlink="http://www.w3.org/1999/xlink" width="15" height="15" viewBox="0 0 15 15"><defs><path id="4161a" d="M373.5 1335a7.5 7.5 0 1 0 0 15 7.5 7.5 0 0 0 0-15z"/><path id="4161b" d="M371 1341v4.81c0 .11.08.19.19.19h4.63c.11 0 .19-.08.19-.19V1341h-1v3.5a.5.5 0 0 1-.5.5.5.5 0 0 1-.5-.5v-3.5h-1v3.5a.5.5 0 0 1-.5.5.5.5 0 0 1-.5-.5v-3.5h-1zm2-3a1 1 0 0 0-1 1h-1a1 1 0 0 0-1 1h7a1 1 0 0 0-1-1h-1a1 1 0 0 0-1-1z"/></defs><g><g transform="translate(-366 -1335)"><use fill="#fff" fill-opacity="0" stroke="#ff3657" stroke-miterlimit="50" xlink:href="#4161a"/></g><g opacity=".8" transform="translate(-366 -1335)"><use fill="#ff3657" xlink:href="#4161b"/></g></g></svg>