<svg xmlns="http://www.w3.org/2000/svg" xmlns:xlink="http://www.w3.org/1999/xlink" width="16" height="14" viewBox="0 0 16 14"><defs><path id="trgaa" d="M380.4 485c.88 0 1.6.7 1.6 1.56v4.66c0 .86-.72 1.56-1.6 1.56h-.8v2.33l-2.4-2.33-6.25.22v-6.22c0-.86 1.37-1.78 2.25-1.78zm-10.44 9l6.78.02c.05 0 .1 0 .16-.02l-.16 1c0 .86-1.06 1.67-1.94 1.67h-4l-2.4 2.33v-2.33h-.8c-.88 0-1.6-.7-1.6-1.56v-4.67c0-.85.72-1.55 1.6-1.55l2.36.38z"/></defs><g><g opacity=".5" transform="translate(-366 -485)"><use fill="#5bb0d5" xlink:href="#trgaa"/></g></g></svg>