<svg xmlns="http://www.w3.org/2000/svg" xmlns:xlink="http://www.w3.org/1999/xlink" width="16" height="14" viewBox="0 0 16 14"><defs><path id="50hda" d="M452.96 1950.27l-2.36-.38c-.88 0-1.6.7-1.6 1.55v4.67c0 .86.72 1.56 1.6 1.56h.8v2.33l2.4-2.33h4c.88 0 1.94-.81 1.94-1.67l.16-1a.77.77 0 0 1-.16.02l-6.78-.02zm3.24-4.27c-.88 0-2.25.92-2.25 1.78v6.22l6.25-.22 2.4 2.33v-2.33h.8c.88 0 1.6-.7 1.6-1.56v-4.66c0-.86-.72-1.56-1.6-1.56z"/></defs><g><g transform="translate(-449 -1946)"><use fill="#5cb0d5" xlink:href="#50hda"/></g></g></svg>