<svg xmlns="http://www.w3.org/2000/svg" xmlns:xlink="http://www.w3.org/1999/xlink" width="12" height="12" viewBox="0 0 12 12"><defs><path id="xouma" d="M1073.25 197h1.5c.83 0 1.5.67 1.5 1.5v.75c0 .83-.67 1.5-1.5 1.5v.75h-.75v-.75h-.75a1.5 1.5 0 0 1-1.5-1.5h.75c0 .41.34.75.75.75h1.5c.41 0 .75-.34.75-.75v-.75a.75.75 0 0 0-.75-.75h-1.5a1.5 1.5 0 0 1-1.5-1.5v-.75c0-.83.67-1.5 1.5-1.5h.75v-.75h.75v.75c.83 0 1.5.67 1.5 1.5h-.75a.75.75 0 0 0-.75-.75h-1.5a.75.75 0 0 0-.75.75v.75c0 .41.34.75.75.75zm.75-6a6 6 0 1 0 0 12 6 6 0 0 0 0-12z"/></defs><g><g transform="translate(-1068 -191)"><use fill="#fff" xlink:href="#xouma"/></g></g></svg>