<svg xmlns="http://www.w3.org/2000/svg" xmlns:xlink="http://www.w3.org/1999/xlink" width="12" height="12" viewBox="0 0 12 12"><defs><path id="vjxxa" d="M1130 654.75l.75-.75 1.25 1.25-.75.75zm0 9.25h-7v-7h3.82l-2.03 2.02c-.18.19-.3.52-.4.82-.1.32-.12.68-.12.94v1.95h1.95c.26 0 .7-.07 1-.19.3-.12.57-.22.76-.4l2.02-1.96zm-4-4l1 1-.97-.04zm0-.28l3.72-3.72 1.28 1.28-3.72 3.72zm7.72-4.62l-1.82-1.82a.94.94 0 0 0-1.34 0L1128 656h-5c-1 0-1 .65-1 1v7.37c0 .35.28.63.63.63h7.37c.56 0 1-.65 1-1v-5l2.72-2.56a.94.94 0 0 0 0-1.34z"/></defs><g><g transform="translate(-1122 -653)"><use fill="#45af37" xlink:href="#vjxxa"/></g></g></svg>