<svg xmlns="http://www.w3.org/2000/svg" xmlns:xlink="http://www.w3.org/1999/xlink" width="20" height="12" viewBox="0 0 20 12"><defs><path id="7tipa" d="M618 462c-.4-.45.66-2.15 0-2.15-1.23 0-2.22.96-2.22 2.15s1 2.15 2.22 2.15c1.23 0 2.22-.96 2.22-2.15 0-.55-1.87.38-2.22 0zm0 4.3a4.38 4.38 0 0 1-4.45-4.3c0-2.38 2-4.3 4.45-4.3a4.38 4.38 0 0 1 4.44 4.3c0 2.38-1.99 4.3-4.44 4.3zm0-9.9c-6.56 0-10 4.83-10 5.6 0 .77 3.44 5.6 10 5.6 6.56 0 10-4.83 10-5.6 0-.77-3.44-5.6-10-5.6z"/></defs><g><g transform="translate(-608 -456)"><use fill="#c5d0de" xlink:href="#7tipa"/></g></g></svg>