<svg xmlns="http://www.w3.org/2000/svg" xmlns:xlink="http://www.w3.org/1999/xlink" width="20" height="18" viewBox="0 0 20 18"><defs><path id="d8kya" d="M756.9 458.32l-2.57 2.56c.07.3.11.61.11.94a4.38 4.38 0 0 1-5.27 4.22l-1.2 1.2c.64.1 1.31.18 2.03.18 6.56 0 10-4.84 10-5.6 0-.43-1.06-2.1-3.1-3.5zm-13.8 7l2.57-2.57c-.07-.3-.12-.61-.12-.93a4.38 4.38 0 0 1 5.29-4.23l1.2-1.2c-.65-.1-1.32-.17-2.04-.17-6.56 0-10 4.83-10 5.6 0 .42 1.06 2.09 3.1 3.5zm15.42-12.03a1 1 0 0 0-1.41 0l-15.63 15.63a1 1 0 1 0 1.41 1.42l15.63-15.63a1 1 0 0 0 0-1.42z"/></defs><g><g transform="translate(-740 -453)"><use fill="#c5d0de" xlink:href="#d8kya"/></g></g></svg>