<svg xmlns="http://www.w3.org/2000/svg" xmlns:xlink="http://www.w3.org/1999/xlink" width="18" height="12" viewBox="0 0 18 12"><defs><path id="zu7ha" d="M147.97 516.14c0-.27.06-.94 0-1.34h-6.12v2.4h3.92c-.03.25-.1.51-.24.78-.13.28-.31.55-.55.83a2.6 2.6 0 0 1-.97.7 3.46 3.46 0 0 1-3.87-.84 3.8 3.8 0 0 1-1.02-2.67 3.8 3.8 0 0 1 1.02-2.67c.68-.74 1.5-1.11 2.46-1.11.9 0 1.64.3 2.24.92l1.9-1.94c-1.04-1.04-2.69-1.2-4.14-1.2-1.55 0-2.88.59-3.97 1.76A6 6 0 0 0 137 516a6 6 0 0 0 1.63 4.24 5.22 5.22 0 0 0 3.97 1.76c1.6 0 2.9-.55 3.9-1.64a6.05 6.05 0 0 0 1.47-4.22z"/><path id="zu7hb" d="M153.34 517.33H155v-1.66h-1.66V514h-1.67v1.67H150v1.66h1.67V519h1.67z"/></defs><g><g opacity=".75" transform="translate(-137 -510)"><use fill="#fff" xlink:href="#zu7ha"/></g><g opacity=".75" transform="translate(-137 -510)"><use fill="#fff" xlink:href="#zu7hb"/></g></g></svg>