<?xml version="1.0" encoding="utf-8"?>
<!-- Generator: Adobe Illustrator 22.1.0, SVG Export Plug-In . SVG Version: 6.00 Build 0)  -->
<svg version="1.1" id="Layer_1" xmlns="http://www.w3.org/2000/svg" xmlns:xlink="http://www.w3.org/1999/xlink" x="0px" y="0px"
	 viewBox="0 0 1280 220" style="enable-background:new 0 0 1280 220;" xml:space="preserve">
<style type="text/css">
	.st0{opacity:5.000000e-02;}
	.st1{fill:#FFFFFF;}
</style>
<title>Shape Copy</title>
<desc>Created with Sketch.</desc>
<g id="_x2B_ICO-Card" class="st0">
	<g id="ICO-CARD-TEAM-1280x-Upcoming-5.2" transform="translate(0.000000, -96.000000)">
		<polygon id="Shape-Copy" class="st1" points="0,316 16,310.9 47.5,307.5 59.2,309.2 65.7,306.4 77,302.4 95,304.1 109.5,299.3 
			129.7,302.4 149.5,304.1 180.5,298.2 296.8,253.9 299.9,253 303,252.5 309.1,249.8 312.1,253.1 315.2,255.8 321.3,255.2 
			327.4,255.2 330.4,258.2 333.5,257.7 336.5,257.2 345.7,257.1 348.8,255.3 351.8,256 354.9,255.5 361,254.9 367.1,254.8 
			370.1,255.6 376.3,255 382.4,254.9 388.5,254.9 391.5,253.8 397.6,252.7 403.7,252.2 409.8,252.3 412.9,251.7 419,253.5 
			422.1,253 428.2,252.9 434.3,252.6 440.4,252.1 443.4,251.6 449.5,251.6 452.6,250.9 455.7,249.9 461.8,248.7 467.9,249.3 
			470.9,248.7 480.1,247.5 483.1,246.6 486.2,246 489.2,246.4 495.4,246.2 498.4,247.1 501.5,249.1 504.5,248.2 507.6,250.5 
			510.6,248.6 513.7,247.4 519.8,246.9 525.9,248.5 529,250.7 532,254.1 535.1,252.2 538.1,251.7 541.2,250 544.2,252.2 
			550.3,254.3 553.4,253.9 559.5,252 565.6,251.9 571.7,251 577.8,250.5 580.9,249.5 587,249.7 590,248.1 596.1,248.5 599.2,247.8 
			605.3,247.4 611.4,248.5 617.5,248.4 623.6,247.9 632.8,247 635.8,246.6 641.9,246.6 648.1,246.1 651.1,245.4 654.2,244.5 
			663.3,244.3 666.4,242.8 669.4,241.9 672.5,240.6 678.6,239.9 681.6,239.3 684.7,239.9 687.8,237.3 690.8,235.3 693.9,234.3 
			696.9,232.9 700,235.4 703,234.1 709.1,235.3 715.2,233.2 718.3,231 721.4,229.5 724.4,227.3 730.5,226.3 733.6,221.5 
			736.6,219.3 742.7,223.4 745.8,228.2 748.8,223.8 751.9,221.8 754.9,222.7 758,221.6 761.1,218.8 764.1,217.7 767.2,215.7 
			773.3,211.5 776.3,207 779.4,212.3 782.4,209.2 785.5,208.4 788.5,207.9 791.6,205.1 794.6,212.5 797.7,210.3 800.8,217.7 
			806.9,217.2 809.9,212.3 813,216.2 816,213.5 819.1,210.1 822.1,212.2 825.2,210.8 828.2,211.2 831.3,214.2 834.3,216.1 
			837.4,217.9 840.5,215.9 843.5,214.3 846.6,215.3 849.6,216.9 852.7,218 855.7,216.3 858.8,214.9 861.8,213.9 864.9,213.5 
			871,216.6 874.1,214.8 877.1,215.5 880.2,219.6 886.3,219.1 889.3,219.9 892.4,223.9 895.4,227.1 898.5,230.2 901.5,224.2 
			904.6,220.7 907.6,222.1 910.7,206.7 913.8,211.9 916.8,208.9 919.9,210.9 922.9,210.2 926,214.9 929,216.5 932.1,212.8 
			935.1,209.5 938.2,210.9 941.2,210.4 944.3,207.4 947.3,211.2 950.4,211.6 953.5,209.2 956.5,207.2 959.6,198.9 962.6,198 
			965.7,194.2 968.7,193 971.8,195.5 974.8,193.8 977.9,188.8 980.9,183.4 984,176.7 987,172.9 990.1,174.5 993.2,171 996.2,171.8 
			999.3,176.6 1002.3,174.4 1005.4,175.9 1008.4,178.7 1011.5,177.8 1014.5,175.5 1017.6,171.5 1020.6,170.9 1026.7,171.2 
			1029.8,170.2 1032.9,165 1039,161.6 1042,157.6 1045.1,165.6 1048.1,164 1051.2,171.4 1054.2,167.9 1057.3,164.2 1063.4,172.2 
			1066.5,170.6 1069.5,171.8 1072.6,173.7 1075.6,174.5 1078.7,180.7 1081.7,196.4 1084.8,185.3 1090.9,186 1093.9,177.5 
			1097,181.2 1100,180.3 1103.1,188.1 1106.2,188.6 1109.2,185.2 1112.3,187 1115.3,181.2 1118.4,182 1121.4,174.9 1127.5,175.1 
			1130.6,171.6 1133.6,171 1136.7,170.4 1139.7,172.6 1142.8,174.3 1145.9,171.5 1152,170.6 1155,165.1 1158.1,160.8 1164.2,159.8 
			1167.2,147.5 1170.3,141.7 1173.3,137.4 1176.4,139.6 1179.4,138.1 1182.5,140.7 1185.6,142.1 1188.6,137.7 1191.7,131.5 
			1194.7,130.5 1197.8,131.5 1200.8,134.1 1203.9,143.1 1206.9,139.1 1210,133.6 1213,136.6 1219.2,127.3 1222.2,128.5 
			1225.3,121.6 1228.3,114.8 1231.4,105 1234.4,101.8 1237.5,96 1240.5,97.5 1243.6,106.9 1246.6,104.4 1249.7,96.5 1252.7,102.8 
			1255.8,113.5 1258.9,122.2 1279.7,139.6 1280,316 248,316 		"/>
	</g>
</g>
</svg>
