<svg xmlns="http://www.w3.org/2000/svg" xmlns:xlink="http://www.w3.org/1999/xlink" width="19.96" height="14.59" viewBox="0 0 19.96 14.59"><defs><path id="ke4ta" d="M33.34 610.9c.24 0 .47.04.69.1l2-2.54a2.1 2.1 0 0 1-.38-1.2c0-1.22 1.03-2.2 2.3-2.2 1.27 0 2.3.98 2.3 2.2 0 .22-.05.43-.11.64l2.67 1.9c.37-.22.8-.36 1.28-.36.1 0 .18.02.28.03l2.67-5.08c-.4-.39-.65-.92-.65-1.51 0-1.21 1.03-2.19 2.3-2.19 1.27 0 2.3.98 2.3 2.19 0 1.2-1.03 2.19-2.3 2.19-.1 0-.18-.02-.28-.03l-2.67 5.07c.4.4.65.93.65 1.52 0 1.2-1.03 2.19-2.3 2.19-1.27 0-2.3-.99-2.3-2.2 0-.22.04-.43.1-.64l-2.67-1.9a2.39 2.39 0 0 1-1.96.25l-2 2.54c.24.35.38.77.38 1.22 0 1.2-1.03 2.18-2.3 2.18-1.27 0-2.3-.98-2.3-2.18 0-1.21 1.03-2.2 2.3-2.2z"/><path id="ke4tb" d="M33.35 612.36c.42 0 .77.32.77.73 0 .4-.35.73-.77.73a.75.75 0 0 1-.77-.73c0-.4.34-.73.77-.73zm4.6-5.84c.43 0 .77.33.77.73 0 .4-.34.73-.77.73a.75.75 0 0 1-.76-.73c0-.4.34-.73.76-.73zm6.14 4.38c.43 0 .77.33.77.73 0 .4-.34.73-.77.73a.75.75 0 0 1-.76-.73c0-.4.34-.73.76-.73zm4.6-8.75c.43 0 .78.33.78.73 0 .4-.35.73-.77.73a.75.75 0 0 1-.77-.73c0-.4.34-.73.77-.73z"/></defs><g><g transform="translate(-31.04 -600.69)"><g><use fill="#fff" xlink:href="#ke4ta"/><use fill="#fff" fill-opacity="0" stroke="#8f96a1" stroke-miterlimit="50" xlink:href="#ke4ta"/></g><g><use fill="#44af36" xlink:href="#ke4tb"/></g></g></g></svg>