<svg xmlns="http://www.w3.org/2000/svg" xmlns:xlink="http://www.w3.org/1999/xlink" width="9" height="9" viewBox="0 0 9 9"><defs><path id="askia" d="M641 1121h-9c.9-.7 1.55-.97 1.55-3.46 0-2.13 1.24-2.86 2.4-3.02v-.04c0-.27.24-.48.55-.48.31 0 .57.21.57.48v.04c1.15.16 2.38.89 2.38 3.02 0 2.49.66 2.76 1.55 3.46zm-6.35.8h3.7c-.1.64-.89 1.2-1.85 1.2-.96 0-1.75-.56-1.85-1.2z"/></defs><g><g clip-path="url(#clip-8D802A2E-1F89-4933-A71D-E1E930F460CD)" transform="translate(-632 -1114)"><use fill="#44af36" xlink:href="#askia"/></g></g></svg>