<svg xmlns="http://www.w3.org/2000/svg" xmlns:xlink="http://www.w3.org/1999/xlink" width="14" height="14" viewBox="0 0 14 14"><defs><path id="gs33a" d="M547.28 730.46A6.94 6.94 0 0 1 543 724a7.02 7.02 0 0 1 4.26-6.44 6.98 6.98 0 0 1 9.19 3.73c.37.85.56 1.78.55 2.7a6.7 6.7 0 0 1-.55 2.74 7.03 7.03 0 0 1-9.17 3.73zm8.97-9.5a7.06 7.06 0 0 0-1.26-1.71l-.27-.25-4.69 4.65-1.81-1.75a1.24 1.24 0 0 0-1.76.02c-.48.49-.47 1.27.02 1.75l3.55 3.44z"/></defs><g><g transform="translate(-543 -717)"><use fill="#44af36" xlink:href="#gs33a"/></g></g></svg>