<svg xmlns="http://www.w3.org/2000/svg" xmlns:xlink="http://www.w3.org/1999/xlink" width="20" height="15" viewBox="0 0 20 15"><defs><path id="fw8ba" d="M1205 28.5v-18h22v18zm1-1.5l4-3h16V12h-20z"/><path id="fw8bb" d="M1206 27l4-3h16V12h-20z"/><path id="fw8be" d="M1210.39 15c.04 0 .08.02.1.05.03.04.05.07.05.12v5.68c0 .04-.02.08-.04.1a.15.15 0 0 1-.11.05h-1.24a.15.15 0 0 1-.15-.15v-5.68c0-.05.02-.08.04-.12a.13.13 0 0 1 .11-.05z"/><path id="fw8bf" d="M1214.53 20.98c-.98 0-1.74-.27-2.3-.8a2.92 2.92 0 0 1-.82-2.2c0-.86.3-1.57.91-2.14.6-.56 1.36-.84 2.26-.84.65 0 1.23.13 1.74.38.08.04.1.1.06.2l-.49 1c-.04.08-.1.1-.19.07-.42-.2-.8-.3-1.18-.3-.42 0-.79.16-1.09.47-.3.3-.45.69-.45 1.16s.15.86.44 1.17c.29.3.66.46 1.11.46.42 0 .83-.1 1.23-.3.08-.04.14-.03.18.05l.49 1.03c.03.09 0 .15-.07.2-.56.26-1.16.38-1.83.38z"/><path id="fw8bg" d="M1221.4 18.03c0 .46-.14.84-.43 1.14-.3.3-.66.44-1.11.44-.45 0-.83-.14-1.12-.44-.29-.3-.44-.68-.44-1.14 0-.46.15-.84.44-1.13.29-.3.66-.45 1.1-.45.46 0 .83.16 1.12.45.29.3.43.69.43 1.15zM1223 18c0-.88-.3-1.6-.92-2.15a3.2 3.2 0 0 0-2.22-.84 3.2 3.2 0 0 0-2.23.84 2.79 2.79 0 0 0-.92 2.16c0 .88.3 1.6.92 2.15.62.56 1.36.84 2.23.84.87 0 1.61-.27 2.23-.82.61-.55.92-1.26.92-2.15z"/><linearGradient id="fw8bc" x1="1220.24" x2="1211.78" y1="12.71" y2="26.31" gradientUnits="userSpaceOnUse"><stop offset="0" stop-color="#a2c617"/><stop offset="1" stop-color="#3aaa34"/></linearGradient><clipPath id="fw8bd"><use fill="#fff" xlink:href="#fw8ba"/></clipPath></defs><g><g transform="translate(-1206 -12)"><use fill="url(#fw8bc)" xlink:href="#fw8bb"/><use fill="#fff" fill-opacity="0" stroke="#fff" stroke-miterlimit="50" stroke-width="2" clip-path="url(&quot;#fw8bd&quot;)" xlink:href="#fw8bb"/></g><g transform="translate(-1206 -12)"><use fill="#fff" xlink:href="#fw8be"/></g><g transform="translate(-1206 -12)"><use fill="#fff" xlink:href="#fw8bf"/></g><g transform="translate(-1206 -12)"><use fill="#fff" xlink:href="#fw8bg"/></g></g></svg>