<svg xmlns="http://www.w3.org/2000/svg" xmlns:xlink="http://www.w3.org/1999/xlink" width="16" height="16" viewBox="0 0 16 16"><defs><path id="apoea" d="M922 344a8 8 0 1 0 16 0 8 8 0 0 0-16 0z"/><path id="apoeb" d="M931.32 346.72L930 345.4l-1.32 1.31a1 1 0 1 1-1.4-1.4l1.31-1.31-1.3-1.32a1 1 0 1 1 1.4-1.4l1.3 1.31 1.32-1.3a1 1 0 1 1 1.4 1.4l-1.31 1.3 1.3 1.32a1 1 0 1 1-1.4 1.4z"/></defs><g><g transform="translate(-922 -336)"><g><use fill="#8f96a1" xlink:href="#apoea"/></g><g><use fill="#fff" xlink:href="#apoeb"/></g></g></g></svg>