<svg xmlns="http://www.w3.org/2000/svg" xmlns:xlink="http://www.w3.org/1999/xlink" width="14.13" height="14.13" viewBox="0 0 14.13 14.13"><defs><path id="slnsa" d="M167.52 522.2h2.57v-10.28h-2.57z"/><path id="slnsb" d="M170.09 509.35c0-.37-.13-.67-.36-.92a1.2 1.2 0 0 0-.92-.36c-.38 0-.69.12-.93.36-.24.25-.36.55-.36.92s.12.67.35.92c.23.25.54.37.91.37h.01a1.24 1.24 0 0 0 1.3-1.29z"/><path id="slnsc" d="M178.7 522.2h2.94v-5.76c0-1.5-.31-2.61-.93-3.38a3.02 3.02 0 0 0-2.47-1.14c-1.15 0-2.04.56-2.67 1.7h.03v-1.47h-2.95c.03.64.03 3.99 0 10.05h2.95v-5.62c0-.37.03-.64.09-.81.13-.34.32-.63.57-.86.26-.24.57-.36.95-.36.99 0 1.48.76 1.48 2.28z"/></defs><g><g opacity=".75" transform="translate(-167.52 -508.07)"><use fill="#fff" xlink:href="#slnsa"/></g><g opacity=".75" transform="translate(-167.52 -508.07)"><use fill="#fff" xlink:href="#slnsb"/></g><g opacity=".75" transform="translate(-167.52 -508.07)"><use fill="#fff" xlink:href="#slnsc"/></g></g></svg>