<svg xmlns="http://www.w3.org/2000/svg" xmlns:xlink="http://www.w3.org/1999/xlink" width="24" height="24" viewBox="0 0 24 24"><defs><path id="wqm8a" d="M578 131a5.96 5.96 0 0 1-4.33-1.85l-.12-.13a5.74 5.74 0 0 1-.31-.39l-.14-.18c-.1-.14-.19-.28-.27-.43l-.1-.15c-.1-.2-.2-.39-.28-.59l-.08-.22a5.57 5.57 0 0 1-.3-1.14l-.02-.22a6 6 0 0 1 6.66-6.66l.2.04a6.1 6.1 0 0 1 1.15.3l.22.07c.2.08.4.18.59.28l.15.1.43.26.18.14c.14.1.26.21.39.32l.13.12A6.06 6.06 0 0 1 584 125a6 6 0 0 1-6 6zm-4.9-1h-8.6a2.5 2.5 0 0 1-2.5-2.5v-16a2.5 2.5 0 0 1 2.5-2.5h16a2.5 2.5 0 0 1 2.5 2.5v8.6s-.02 0-.03-.02l-.24-.23-.27-.24-.08-.07a6.93 6.93 0 0 0-3.63-1.5h-.04a7 7 0 0 0-7.68 7.68l.01.03c.14 1.34.67 2.6 1.5 3.62l.07.08c.07.1.16.19.24.28l.23.24.03.03zm10.9-8.59v-9.91a3.5 3.5 0 0 0-3.5-3.5h-16a3.5 3.5 0 0 0-3.5 3.5v16a3.5 3.5 0 0 0 3.5 3.5h9.91a7 7 0 0 0 9.59-9.59z"/><path id="wqm8b" d="M570.5 114H568v-2.5a.5.5 0 0 0-1 0v2.5h-2.5a.5.5 0 0 0 0 1h2.5v2.5a.5.5 0 0 0 1 0V115h2.5a.5.5 0 0 0 0-1z"/><path id="wqm8c" d="M575.5 115h5a.5.5 0 0 0 0-1h-5a.5.5 0 0 0 0 1z"/><path id="wqm8d" d="M569.85 122.15a.5.5 0 0 0-.7 0l-2.15 2.14-2.15-2.14a.5.5 0 0 0-.7.7l2.14 2.15-2.14 2.15a.5.5 0 0 0 .7.7l2.15-2.14 2.15 2.14a.5.5 0 0 0 .7 0 .5.5 0 0 0 0-.7l-2.14-2.15 2.14-2.15a.5.5 0 0 0 0-.7z"/><path id="wqm8e" d="M580.5 123h-5a.5.5 0 0 0 0 1h5a.5.5 0 0 0 0-1z"/><path id="wqm8f" d="M580.5 126h-5a.5.5 0 0 0 0 1h5a.5.5 0 0 0 0-1z"/></defs><g><g transform="translate(-561 -108)"><g><use fill="#707986" xlink:href="#wqm8a"/></g><g><use fill="#44af36" xlink:href="#wqm8b"/></g><g><use fill="#44af36" xlink:href="#wqm8c"/></g><g><use fill="#44af36" xlink:href="#wqm8d"/></g><g><use fill="#44af36" xlink:href="#wqm8e"/></g><g><use fill="#44af36" xlink:href="#wqm8f"/></g></g><g transform="translate(-561 -108)"><g><use fill="#707986" xlink:href="#wqm8a"/></g><g><use fill="#44af36" xlink:href="#wqm8b"/></g><g><use fill="#44af36" xlink:href="#wqm8c"/></g><g><use fill="#44af36" xlink:href="#wqm8d"/></g><g><use fill="#44af36" xlink:href="#wqm8e"/></g><g><use fill="#44af36" xlink:href="#wqm8f"/></g></g></g></svg>