<svg xmlns="http://www.w3.org/2000/svg" xmlns:xlink="http://www.w3.org/1999/xlink" width="13" height="16" viewBox="0 0 13 16"><defs><path id="xb07a" d="M74 2465.53v6.59c0 1.04-.83 1.88-1.86 1.88h-9.28a1.87 1.87 0 0 1-1.86-1.88v-6.6c0-1.03.83-1.87 1.86-1.87h.93v-1.89a3.74 3.74 0 0 1 3.71-3.76 3.74 3.74 0 0 1 3.71 3.76v1.89h.93c1.03 0 1.86.84 1.86 1.88zm-5.3 4.7c0-.67-.53-1.22-1.2-1.22-.67 0-1.2.55-1.2 1.23 0 .67.53 1.22 1.2 1.22.67 0 1.2-.55 1.2-1.22zm.66-8.47c0-1.03-.84-1.88-1.86-1.88s-1.86.85-1.86 1.88v2.83h3.72z"/></defs><g><g transform="translate(-61 -2458)"><use fill="#525c6c" xlink:href="#xb07a"/></g></g></svg>