<svg xmlns="http://www.w3.org/2000/svg" xmlns:xlink="http://www.w3.org/1999/xlink" width="200" height="40" viewBox="0 0 200 40"><defs><path id="6acna" d="M72.6 49.08a10.95 10.95 0 0 1-11.06-11.04 11.07 11.07 0 0 1 6.72-10.16 11 11 0 0 1 8.58 0 11.3 11.3 0 0 1 5.9 5.89c.59 1.34.89 2.8.88 4.26.01 1.48-.29 2.95-.88 4.31a11.08 11.08 0 0 1-5.9 5.86c-1.34.57-2.78.87-4.24.88z"/><path id="6acnc" d="M32.75 48.62v-16a.52.52 0 0 0-.53-.51h-1.68c-.45 0-.28-.05-.38-.15a.5.5 0 0 1-.16-.36v-4.05a.5.5 0 0 1 .14-.4c.1-.1.25-.15.4-.15h7.34c.3 0 .53.23.53.51v21.06c0 .28-.24.5-.53.5h-4.6c-.27 0-.5-.19-.53-.45z"/><path id="6acne" d="M57.63 33.04l2.82-2.82A11.43 11.43 0 0 0 52.64 27c-1.43-.01-2.84.25-4.16.78-1.38.56-2.62 1.4-3.65 2.47a10.9 10.9 0 0 0-3.27 7.8c0 1.42.26 2.83.78 4.16.3.67.66 1.32 1.07 1.93.4.63.88 1.2 1.42 1.72.52.54 1.1 1 1.74 1.4.63.4 1.3.75 1.98 1.04 1.33.5 2.75.77 4.17.78a10.77 10.77 0 0 0 7.76-3.27l-7.9-7.8z"/><path id="6acng" d="M32.13 56.5c0-.08.06-.14.15-.14h1.06c.04 0 .07.02.1.04.03.03.04.07.04.1v2.29c-.05.4.07.81.33 1.14.33.28.76.41 1.2.38a6.5 6.5 0 0 0 1.92-.36V56.5c0-.07.06-.14.14-.14h1.03c.08 0 .14.07.14.14v7.39c0 .07-.06.13-.14.14h-1.05a.14.14 0 0 1-.14-.14v-2.78a7.4 7.4 0 0 1-2.03.34c-.8.06-1.59-.22-2.16-.76a2.71 2.71 0 0 1-.6-1.88z"/><path id="6acnh" d="M43.8 62.81a.14.14 0 0 1 .2 0l.32.57c.02.03.02.06 0 .1a.13.13 0 0 1-.06.07c-.6.37-1.3.56-2.01.55a2.84 2.84 0 0 1-2.1-.8 2.72 2.72 0 0 1-.74-1.96c-.01-.69.26-1.36.74-1.86.52-.5 1.22-.76 1.95-.72.76-.06 1.5.24 2 .8.4.58.58 1.28.5 1.97 0 .08-.08.15-.17.16h-3.76c.01.4.2.8.52 1.06.31.28.73.41 1.15.38.5.02 1-.09 1.45-.32zM43.43 61c0-.32-.13-.63-.35-.88-.26-.26-.63-.4-1-.4-.4 0-.8.15-1.07.43-.2.24-.33.54-.35.85z"/><path id="6acni" d="M49.59 62.85c.1-.06.19 0 .22 0l.34.61c.04.07 0 .14-.07.2a3.2 3.2 0 0 1-1.73.45 2.98 2.98 0 0 1-2.2-.8 2.59 2.59 0 0 1-.7-1.87c-.02-.6.2-1.2.58-1.67a3.24 3.24 0 0 1 4-.49c.07.06.1.12.07.2l-.35.62c-.04.08-.14.1-.23 0a2.2 2.2 0 0 0-1.17-.33 1.7 1.7 0 0 0-1.3.53c-.28.32-.43.73-.42 1.15 0 .44.16.88.46 1.2.34.33.8.5 1.26.48.43.03.86-.07 1.24-.28z"/><path id="6acnj" d="M55.73 58.9c.08 0 .15.06.15.14v.74c0 .08-.07.15-.15.15H53.9v3.96c0 .04-.01.07-.04.1a.14.14 0 0 1-.1.04h-.9a.15.15 0 0 1-.11-.04.13.13 0 0 1-.05-.1v-3.96h-1.86a.15.15 0 0 1-.13-.15v-.74c0-.07.06-.13.13-.14z"/><path id="6acnk" d="M61.64 58.9c.08 0 .14.06.14.14v4.82c0 .07-.06.14-.14.14h-.9a.15.15 0 0 1-.15-.14v-1.9h-2.67v1.93c0 .04-.02.08-.05.1a.15.15 0 0 1-.1.04h-.91a.15.15 0 0 1-.15-.14v-4.82c0-.08.07-.13.15-.14h.9c.08 0 .15.06.16.14v1.9h2.67v-1.93c0-.08.07-.14.15-.14z"/><path id="6acnl" d="M64.45 61h1.47c.57-.04 1.13.15 1.56.53.26.26.4.62.38.99.02.4-.15.8-.46 1.07-.42.31-.93.47-1.46.44h-2.57a.15.15 0 0 1-.1-.04.13.13 0 0 1-.05-.1v-4.82c0-.08.07-.14.15-.14h.91c.08 0 .14.07.14.14zm1.2.85h-1.2v1.33h1.25c.27.02.54-.04.77-.18.14-.12.22-.3.2-.48a.57.57 0 0 0-.18-.45 1.32 1.32 0 0 0-.83-.22zm4.03-2.99c.08 0 .15.06.16.14v4.82c0 .04-.02.07-.05.1a.15.15 0 0 1-.11.04h-.91a.15.15 0 0 1-.14-.14V59c0-.08.06-.13.14-.14z"/><path id="6acnm" d="M76.6 63.88c0 .04-.02.08-.05.1a.14.14 0 0 1-.1.04h-.9a.15.15 0 0 1-.11-.04.13.13 0 0 1-.05-.1v-3.06l-2.84 2.54v.52c0 .04 0 .08-.03.1a.14.14 0 0 1-.1.04h-.95a.15.15 0 0 1-.15-.14v-4.82c0-.07.07-.13.15-.13h.92c.07 0 .13.06.13.13v3.13l2.87-2.59v-.54c0-.07.07-.13.15-.13h.91c.08 0 .14.06.14.13zM75 55.8h.4c.13 0 .18.06.18.14-.15.76-.83 1.31-1.64 1.31-.8 0-1.49-.55-1.64-1.3 0-.09.06-.15.18-.15h.43c.09 0 .15.06.16.14.06.42.44.73.88.73s.81-.31.87-.73c.01-.08.09-.14.17-.14z"/><path id="6acnn" d="M85.15 59.62c.5.49.78 1.16.75 1.85.04.67-.2 1.33-.66 1.84-.55.54-1.32.84-2.1.8a2.7 2.7 0 0 1-1.03-.15v2.53c0 .07-.07.13-.15.13h-.87a.16.16 0 0 1-.16-.13v-7.36c0-.08.05-.15.17-.17.56-.1 1.14-.15 1.72-.15.85-.03 1.69.26 2.33.8zm-3.01 3.4c.29.13.6.18.9.17.45 0 .87-.14 1.2-.42.61-.74.61-1.8 0-2.54a1.87 1.87 0 0 0-1.35-.49c-.26 0-.53.03-.8.06z"/><path id="6acno" d="M91.37 62.82l.32.56c.05.06 0 .14-.06.18-.6.36-1.3.55-2.01.54a2.85 2.85 0 0 1-2.1-.8 2.72 2.72 0 0 1 .05-3.77c.5-.5 1.21-.76 1.93-.72.76-.06 1.5.24 2 .8.4.58.58 1.28.5 1.97 0 .09-.07.16-.16.16h-3.8c.02.35.16.68.4.95.33.33.79.51 1.26.49.51 0 1.02-.12 1.46-.36.11-.06.18 0 .21 0zM90.81 61c0-.32-.13-.63-.35-.88-.26-.26-.62-.4-1-.39-.4-.02-.8.14-1.07.42-.2.24-.33.54-.35.85z"/><path id="6acnp" d="M98.42 63.88c0 .04-.01.08-.04.1a.14.14 0 0 1-.1.04h-.94a.15.15 0 0 1-.1-.04.13.13 0 0 1-.05-.1v-3.06l-2.87 2.57v.52c0 .03 0 .07-.03.1a.14.14 0 0 1-.1.04h-.92a.15.15 0 0 1-.1-.04.13.13 0 0 1-.05-.1v-4.82c0-.08.07-.14.15-.14h.92c.07 0 .13.06.13.14v3.12l2.87-2.58v-.54c0-.08.07-.14.15-.14h.91c.08 0 .14.06.14.14zm-1.6-8.08h.41c.12 0 .18.06.18.14-.15.76-.84 1.31-1.64 1.31-.8 0-1.5-.55-1.64-1.3 0-.09.06-.15.17-.15h.44c.08 0 .15.06.16.14.06.42.43.73.87.73s.82-.31.88-.73c0-.08.08-.14.17-.14z"/><path id="6acnq" d="M104.2 58.9c.07 0 .14.06.14.14v.74c0 .08-.07.14-.15.15h-1.82v3.96c0 .04 0 .07-.04.1a.14.14 0 0 1-.1.04h-.9a.15.15 0 0 1-.1-.04.13.13 0 0 1-.05-.1v-3.96h-1.83a.16.16 0 0 1-.14-.15v-.74c0-.08.07-.13.14-.14z"/><path id="6acnr" d="M110.44 63.9c0 .03 0 .06-.04.09a.14.14 0 0 1-.1.04h-.9a.15.15 0 0 1-.12-.04.14.14 0 0 1-.05-.1v-3.07l-2.86 2.57v.52c0 .04-.01.08-.04.1a.14.14 0 0 1-.1.04h-.91a.15.15 0 0 1-.1-.04.13.13 0 0 1-.05-.1V59.1c0-.07.07-.13.15-.13h.91c.08 0 .14.06.14.13v3.13l2.9-2.64v-.54c0-.08.07-.14.16-.14h.9c.08 0 .14.06.15.14z"/><path id="6acns" d="M116.85 58.9c.08 0 .14.06.14.14v4.82c0 .07-.06.13-.14.14h-.9a.15.15 0 0 1-.11-.04.13.13 0 0 1-.05-.1v-1.9h-2.68v1.93c0 .08-.07.14-.15.14h-.89a.15.15 0 0 1-.1-.04.13.13 0 0 1-.05-.1v-4.82c0-.08.07-.14.15-.14h.9c.08 0 .14.06.15.14v1.9h2.68v-1.93c0-.08.07-.14.15-.14z"/><path id="6acnt" d="M118.62 64.04a.15.15 0 0 1-.11-.04.14.14 0 0 1-.05-.1v-4.82c0-.08.08-.14.16-.14h3.67c.08 0 .14.06.15.14v.74c0 .08-.07.14-.15.15h-2.62v3.96c0 .08-.07.14-.15.14z"/><path id="6acnu" d="M127.4 56.36c.08 0 .14.07.14.14v7.39c0 .07-.06.13-.13.14h-1.04a.15.15 0 0 1-.14-.14V56.5c0-.07.06-.14.14-.14z"/><path id="6acnv" d="M128.87 60.18a3.9 3.9 0 0 1 1.24-2.8 4.2 4.2 0 0 1 2.93-1.13c.85-.02 1.69.18 2.42.58.04.01.07.04.09.08.01.03 0 .07-.02.1l-.4.8a.11.11 0 0 1-.08.08.12.12 0 0 1-.11-.02 4 4 0 0 0-1.93-.5 2.82 2.82 0 0 0-2.82 2.79c-.03.74.26 1.45.8 1.99.53.53 1.26.82 2.03.82a4 4 0 0 0 2.06-.56c.03 0 .07.02.1.05l.4.84c.02.03.03.07.01.11a5.1 5.1 0 0 1-2.6.66 4 4 0 0 1-2.95-1.06 3.69 3.69 0 0 1-1.17-2.83z"/><path id="6acnw" d="M136.34 60.13a4.03 4.03 0 0 1 4.13-3.89 4.02 4.02 0 0 1 4.06 3.96c0 1.06-.44 2.07-1.23 2.8a4.18 4.18 0 0 1-2.94 1.13 4.02 4.02 0 0 1-4.02-4zm1.34-1.03a2.69 2.69 0 0 0 .58 3.03c.82.8 2.05 1.05 3.13.62a2.77 2.77 0 0 0 1.8-2.55 2.66 2.66 0 0 0-.81-1.96 2.87 2.87 0 0 0-2.02-.81 2.88 2.88 0 0 0-2.68 1.67z"/><path id="6acnx" d="M146.26 61.36a.14.14 0 0 1-.1-.04.13.13 0 0 1-.04-.1v-.8c0-.04.01-.08.04-.1a.14.14 0 0 1 .1-.04h3.56c.03 0 .07.01.1.04.03.02.04.06.04.1v.8c0 .04-.01.07-.04.1a.14.14 0 0 1-.1.04z"/><path id="6acny" d="M156.29 58.9c.07 0 .13.06.14.14v4.82c0 .07-.07.13-.14.14h-.9a.15.15 0 0 1-.11-.04.13.13 0 0 1-.05-.1v-3.93h-2.5v3.96c0 .08-.07.14-.15.14h-.9a.15.15 0 0 1-.1-.04.13.13 0 0 1-.05-.1v-4.82c0-.08.07-.14.15-.14z"/><path id="6acnz" d="M159.78 58.81c.85-.03 1.7.26 2.33.8.53.5.82 1.2.79 1.9a2.6 2.6 0 0 1-.65 1.84 2.9 2.9 0 0 1-2.12.8c-.35.02-.7-.04-1.03-.15v2.53c0 .07-.06.13-.14.13h-.91a.15.15 0 0 1-.15-.13v-7.4c0-.05.01-.09.04-.12a.17.17 0 0 1 .12-.05c.57-.1 1.14-.15 1.72-.15zm-.68 4.21c.29.13.6.18.91.17.45.02.89-.14 1.22-.42.62-.74.62-1.8 0-2.54a1.87 1.87 0 0 0-1.34-.49c-.28 0-.56.02-.84.06z"/><path id="6acnA" d="M168.62 59.54c.55.5.85 1.2.84 1.93.02.73-.28 1.43-.84 1.94a3.15 3.15 0 0 1-4.03 0c-.56-.5-.86-1.21-.84-1.94-.01-.73.3-1.43.84-1.93a3.12 3.12 0 0 1 4.03 0zm-3.2 3.13a1.7 1.7 0 0 0 2.4 0c.3-.33.47-.76.46-1.2.01-.45-.16-.88-.47-1.2a1.7 1.7 0 0 0-2.39 0c-.3.32-.47.76-.46 1.2-.01.44.15.87.44 1.2z"/><path id="6acnB" d="M174.78 62.77c.04 0 .08.02.1.04l.33.57c.01.03.02.06 0 .1a.13.13 0 0 1-.06.07c-.6.37-1.3.56-2.01.55a2.84 2.84 0 0 1-2.1-.8 2.72 2.72 0 0 1-.75-1.96c0-.69.26-1.36.75-1.86.52-.5 1.22-.76 1.95-.72.76-.06 1.5.24 2 .8.4.58.57 1.28.5 1.97 0 .08-.08.15-.17.16h-3.76c.01.4.2.8.51 1.06.32.28.74.41 1.16.38a2.92 2.92 0 0 0 1.55-.36zm-.43-1.77c-.01-.32-.13-.63-.35-.88-.27-.26-.63-.4-1.01-.4-.4 0-.79.15-1.06.43-.21.24-.33.54-.35.85z"/><path id="6acnC" d="M181.49 58.9c.13 0 .18.11.06.25l-2.03 2.24 2.1 2.41c.13.11.07.24-.06.24h-1.08a.34.34 0 0 1-.29-.13l-1.67-1.94h-.65v1.94c0 .04-.02.08-.06.1a.15.15 0 0 1-.13.03h-.9a.15.15 0 0 1-.1-.04.13.13 0 0 1-.05-.1v-4.82c0-.08.07-.14.15-.14h.9c.08 0 .14.06.15.14v1.9h.67l1.67-1.9a.31.31 0 0 1 .26-.14z"/><path id="6acnD" d="M187.15 58.9c.08 0 .15.06.15.14v.74c0 .08-.07.14-.15.15h-1.83v3.96c0 .04 0 .07-.03.1a.14.14 0 0 1-.1.05h-.9a.15.15 0 0 1-.1-.04.13.13 0 0 1-.05-.1v-3.97h-1.83a.16.16 0 0 1-.14-.15v-.74c0-.08.07-.13.14-.14z"/><path id="6acnE" d="M190.6 58.8c.75 0 1.48.26 2.03.74.54.5.85 1.2.84 1.93.02.73-.29 1.43-.84 1.94-.55.48-1.28.74-2.03.73a3 3 0 0 1-2.01-.73c-.56-.5-.86-1.21-.84-1.94 0-.73.3-1.43.84-1.93a3.04 3.04 0 0 1 2.01-.74zm-1.18 3.87a1.7 1.7 0 0 0 2.4 0c.3-.33.47-.76.46-1.2.01-.45-.16-.88-.47-1.2-.3-.33-.74-.5-1.19-.5-.45-.01-.89.17-1.2.5-.3.32-.46.76-.45 1.2-.02.44.14.87.43 1.2z"/><path id="6acnF" d="M194.77 64.03a.15.15 0 0 1-.1-.04.13.13 0 0 1-.05-.1v-4.82c0-.08.07-.14.15-.14h2.22c.44-.02.87.08 1.24.31.35.22.56.6.55 1 .04.48-.24.92-.69 1.11v.04c.68.06 1.18.63 1.14 1.28 0 .98-.9 1.4-1.78 1.4zm2.5-4.19a1.2 1.2 0 0 0-.55-.11h-.93v1.33h.9c.19 0 .39-.03.57-.1.23-.1.37-.33.36-.57a.6.6 0 0 0-.31-.56zm.31 2.04c-.26-.1-.55-.14-.83-.1h-.96v1.45h1.18c.2 0 .4-.03.6-.1.29-.07.48-.34.46-.64a.64.64 0 0 0-.41-.61z"/><path id="6acnG" d="M97.03 28.06c1.81-.08 3.6.46 5.02 1.52a6.77 6.77 0 0 1 2.59 5.46 6.82 6.82 0 0 1-2.77 5.63 7.8 7.8 0 0 1-4.8 1.35h-4.81v5.56c0 .12-.05.23-.14.32a.47.47 0 0 1-.33.12h-3.48a.47.47 0 0 1-.49-.44V28.53c0-.25.23-.45.49-.44zm1.75 4.28c-.7-.4-1.51-.61-2.33-.59h-4.2v6.57h4.1c.84.05 1.67-.13 2.4-.52a3 3 0 0 0 1.39-2.76 3 3 0 0 0-1.36-2.7z"/><path id="6acnH" d="M108.1 47.52a.68.68 0 0 1-.78.5H104c-.3 0-.42-.15-.42-.35 0-.1.03-.2.06-.3l6.98-18.86c.08-.35.32-.46.7-.46h3.56c.39 0 .62.11.71.46l6.86 18.87c.03.1.05.19.05.29 0 .2-.11.34-.4.34h-3.44c-.42 0-.65-.14-.78-.49L116.67 44h-7.36zm4.94-14.36l-2.62 7.47h5.24z"/><path id="6acnI" d="M133.86 28.06a7.9 7.9 0 0 1 5.02 1.52 6.75 6.75 0 0 1 2.56 5.47 6.82 6.82 0 0 1-2.77 5.63 7.83 7.83 0 0 1-4.8 1.35h-4.81v5.55c0 .12-.05.23-.14.32a.47.47 0 0 1-.33.12h-3.47a.5.5 0 0 1-.35-.12.45.45 0 0 1-.15-.32V28.55c0-.12.06-.23.15-.32a.5.5 0 0 1 .35-.12zm-.6 3.69h-4.18v6.56h4.1c.84.05 1.67-.13 2.4-.52a2.94 2.94 0 0 0 1.39-2.76 3 3 0 0 0-1.35-2.7 4.4 4.4 0 0 0-2.35-.58z"/><path id="6acnJ" d="M144.91 47.52a.69.69 0 0 1-.77.5h-3.34c-.3 0-.42-.15-.42-.35 0-.1.03-.2.06-.3l6.97-18.86c.09-.35.33-.46.72-.46h3.54c.4 0 .63.11.72.46l6.85 18.87c.03.1.06.19.06.29 0 .2-.11.35-.42.35h-3.42c-.42 0-.66-.15-.77-.5L153.5 44h-7.36zm4.94-14.36l-2.65 7.47h5.25z"/><path id="6acnK" d="M162.99 40.66a1.59 1.59 0 0 1-1.12-2.71c.3-.3.7-.45 1.12-.44.86 0 1.56.68 1.57 1.54 0 .88-.7 1.6-1.57 1.61z"/><path id="6acnL" d="M168.62 38a10.11 10.11 0 0 1 10.2-9.95c2.09-.04 4.15.5 5.95 1.54.2.12.26.26.17.43l-.68 1.43c-.09.2-.26.17-.4.08a9.88 9.88 0 0 0-5.1-1.42A7.92 7.92 0 0 0 171 38 7.7 7.7 0 0 0 178.8 46c1.83 0 3.62-.51 5.16-1.49.17-.1.28-.08.4.1l.68 1.48a.27.27 0 0 1-.14.37 11.64 11.64 0 0 1-6.13 1.57c-5.8 0-10.14-3.94-10.14-10.03z"/><path id="6acnM" d="M187.12 37.91c.07-5.5 4.7-9.9 10.35-9.86 5.66.04 10.22 4.52 10.2 10.02a9.87 9.87 0 0 1-3.09 7.1 10.46 10.46 0 0 1-7.36 2.85c-5.66-.1-10.17-4.6-10.1-10.1zm10.1-7.68c-2.14 0-4.18.84-5.68 2.32a7.68 7.68 0 0 0-2.3 5.55 7.7 7.7 0 0 0 3.9 6.91 8.17 8.17 0 0 0 8.12 0 7.7 7.7 0 0 0 3.9-6.9 7.66 7.66 0 0 0-2.27-5.58 8.1 8.1 0 0 0-5.67-2.34z"/><path id="6acnN" d="M229.74 47.77c0 .14-.11.25-.25.25h-1.73a.26.26 0 0 1-.27-.25V32.13l-6.59 10.83a.5.5 0 0 1-.47.29h-1.29c-.23 0-.32-.07-.47-.3l-6.65-10.82v15.64c0 .14-.12.25-.26.25h-1.73a.26.26 0 0 1-.26-.25V28.35c0-.15.1-.28.26-.3h1.85c.21-.03.42.1.5.3l7.35 12.2 7.38-12.2c.1-.2.3-.32.53-.3h1.81c.16.02.27.15.26.3z"/><path id="6acnO" d="M82.56 33.19a10.97 10.97 0 0 0-1.96-2.66l-.42-.38-7.29 7.23-2.82-2.72a1.93 1.93 0 0 0-2.73.03c-.74.75-.73 1.97.03 2.72l5.52 5.36z"/><linearGradient id="6acnb" x1="77.26" x2="67.92" y1="28.05" y2="48.06" gradientUnits="userSpaceOnUse"><stop offset="0" stop-color="#a2c617"/><stop offset="1" stop-color="#3aaa34"/></linearGradient><linearGradient id="6acnd" x1="126.29" x2="26.05" y1="38.87" y2="114.62" gradientUnits="userSpaceOnUse"><stop offset="0" stop-color="#a2c617"/><stop offset="1" stop-color="#3aaa34"/></linearGradient><linearGradient id="6acnf" x1="696.38" x2="469.91" y1="49.03" y2="463.97" gradientUnits="userSpaceOnUse"><stop offset="0" stop-color="#a2c617"/><stop offset="1" stop-color="#3aaa34"/></linearGradient></defs><g><g transform="translate(-30 -27)"><g><use fill="url(#6acnb)" xlink:href="#6acna"/></g><g><use fill="url(#6acnd)" xlink:href="#6acnc"/></g><g><use fill="url(#6acnf)" xlink:href="#6acne"/></g><g><g><use fill="#8f96a1" xlink:href="#6acng"/></g><g><use fill="#8f96a1" xlink:href="#6acnh"/></g><g><use fill="#8f96a1" xlink:href="#6acni"/></g><g><use fill="#8f96a1" xlink:href="#6acnj"/></g><g><use fill="#8f96a1" xlink:href="#6acnk"/></g><g><use fill="#8f96a1" xlink:href="#6acnl"/></g><g><use fill="#8f96a1" xlink:href="#6acnm"/></g><g><use fill="#8f96a1" xlink:href="#6acnn"/></g><g><use fill="#8f96a1" xlink:href="#6acno"/></g><g><use fill="#8f96a1" xlink:href="#6acnp"/></g><g><use fill="#8f96a1" xlink:href="#6acnq"/></g><g><use fill="#8f96a1" xlink:href="#6acnr"/></g><g><use fill="#8f96a1" xlink:href="#6acns"/></g><g><use fill="#8f96a1" xlink:href="#6acnt"/></g><g><use fill="#8f96a1" xlink:href="#6acnu"/></g><g><use fill="#8f96a1" xlink:href="#6acnv"/></g><g><use fill="#8f96a1" xlink:href="#6acnw"/></g><g><use fill="#8f96a1" xlink:href="#6acnx"/></g><g><use fill="#8f96a1" xlink:href="#6acny"/></g><g><use fill="#8f96a1" xlink:href="#6acnz"/></g><g><use fill="#8f96a1" xlink:href="#6acnA"/></g><g><use fill="#8f96a1" xlink:href="#6acnB"/></g><g><use fill="#8f96a1" xlink:href="#6acnC"/></g><g><use fill="#8f96a1" xlink:href="#6acnD"/></g><g><use fill="#8f96a1" xlink:href="#6acnE"/></g><g><use fill="#8f96a1" xlink:href="#6acnF"/></g></g><g><use fill="#333e52" xlink:href="#6acnG"/></g><g><use fill="#333e52" xlink:href="#6acnH"/></g><g><use fill="#333e52" xlink:href="#6acnI"/></g><g><use fill="#333e52" xlink:href="#6acnJ"/></g><g><use fill="#707986" xlink:href="#6acnK"/></g><g><use fill="#707986" xlink:href="#6acnL"/></g><g><use fill="#707986" xlink:href="#6acnM"/></g><g><use fill="#707986" xlink:href="#6acnN"/></g><g><use fill="#fff" xlink:href="#6acnO"/></g></g></g></svg>