<svg xmlns="http://www.w3.org/2000/svg" xmlns:xlink="http://www.w3.org/1999/xlink" width="16.07" height="14.4" viewBox="0 0 16.07 14.4"><defs><path id="w4gma" d="M265.98 511.56h-.01l-4.92-2.5a.54.54 0 0 0-.24-.06c-.2 0-.38.1-.48.26l-2.83 4.68 3.55 5.86 4.94-8.16a.06.06 0 0 0-.01-.08"/><path id="w4gmb" d="M256 513.8v4.98l5.14 2.22-5.14-7.2"/><path id="w4gmc" d="M261.14 521.4l3.93 1.89c.51.24.93.07.93-.39v-9.1l-4.86 7.6"/><path id="w4gmd" d="M250.5 509.07a.48.48 0 0 0-.23-.07c-.2 0-.34.17-.34.46v10.87c0 .3.2.64.43.77l4 2.22c.1.05.2.08.29.08.25 0 .42-.21.42-.57v-11.2a.06.06 0 0 0-.02-.04z"/></defs><g><g opacity=".75" transform="translate(-249.93 -509)"><use fill="#fff" xlink:href="#w4gma"/></g><g opacity=".75" transform="translate(-249.93 -509)"><use fill="#fff" xlink:href="#w4gmb"/></g><g opacity=".75" transform="translate(-249.93 -509)"><use fill="#fff" xlink:href="#w4gmc"/></g><g opacity=".75" transform="translate(-249.93 -509)"><use fill="#fff" xlink:href="#w4gmd"/></g></g></svg>