<svg xmlns="http://www.w3.org/2000/svg" xmlns:xlink="http://www.w3.org/1999/xlink" width="24" height="24" viewBox="0 0 24 24"><defs><path id="hxvha" d="M897.14 117.15c-.27.27-.48.59-.64.94a3.17 3.17 0 0 0-1.6-1.59 3.16 3.16 0 0 0 1.6-1.6 3.17 3.17 0 0 0 1.6 1.6c-.36.16-.68.37-.96.65zm4.86-.65a.5.5 0 0 0-.5-.5c-2.01 0-3.03-.24-3.65-.85-.61-.62-.85-1.64-.85-3.65a.5.5 0 0 0-1 0c0 2.01-.24 3.03-.85 3.65-.62.61-1.64.85-3.65.85a.5.5 0 0 0 0 1c2.01 0 3.03.24 3.65.85.61.62.85 1.64.85 3.65a.5.5 0 0 0 1 0c0-2.01.24-3.03.85-3.65.62-.61 1.64-.85 3.65-.85a.5.5 0 0 0 .5-.5z"/><path id="hxvhb" d="M900.5 111c.7 0 1.07.08 1.25.26.17.17.25.54.25 1.24a.5.5 0 0 0 1 0c0-.7.08-1.07.26-1.25.17-.17.54-.25 1.24-.25a.5.5 0 0 0 0-1c-.7 0-1.07-.08-1.25-.26-.17-.17-.25-.54-.25-1.24a.5.5 0 0 0-1 0c0 .7-.08 1.07-.26 1.25-.17.17-.54.25-1.24.25a.5.5 0 0 0 0 1z"/><path id="hxvhc" d="M895.5 128c-.7 0-1.07-.08-1.25-.26-.17-.17-.25-.54-.25-1.24a.5.5 0 0 0-1 0c0 .7-.08 1.07-.26 1.25-.17.17-.54.25-1.24.25a.5.5 0 0 0 0 1c.7 0 1.07.08 1.25.26.17.17.25.54.25 1.24a.5.5 0 0 0 1 0c0-.7.08-1.07.26-1.25.17-.17.54-.25 1.24-.25a.5.5 0 0 0 0-1z"/><path id="hxvhd" d="M911.75 124.25c-.1.09-.18.19-.25.3a2 2 0 0 0-.54-.55 2 2 0 0 0 .54-.55 2 2 0 0 0 .54.55 2 2 0 0 0-.3.25zm2.75-.75c-1.13 0-1.73-.13-2.05-.45-.32-.33-.45-.92-.45-2.05a.5.5 0 0 0-1 0c0 1.13-.13 1.73-.45 2.05-.32.32-.92.45-2.05.45a.5.5 0 0 0 0 1c1.13 0 1.73.13 2.05.45.32.33.45.92.45 2.05a.5.5 0 0 0 1 0c0-1.13.13-1.73.45-2.05.32-.32.92-.45 2.05-.45a.5.5 0 0 0 0-1z"/><path id="hxvhe" d="M903.04 129.82c-.75.12-1.48.24-2.04.46v-1.78c0-.34 1.38-.56 2.2-.7.44-.07.88-.14 1.3-.23.33-.07.96-.21 1.5-.52v1.45c0 .78-1.28 1.05-2.96 1.32zM901 124.5v-1l.02.02c.77.56 1.81.76 2.83.96 1.34.26 2.15.46 2.15 1.02 0 .33-.19.74-1.62 1.07l-.35-.07c-1.83-.35-3.03-.68-3.03-2zm4-4.94c1.5-.26 3.04-.53 4-1.22v1.16c0 1.26-1.65 1.64-4.17 2.09-1.3.23-2.55.45-3.46.92a1.37 1.37 0 0 1-.37-1.01c0-1.14 1.58-1.5 4-1.94zm4-3.06c0 .27-.08.5-.24.7a6.6 6.6 0 0 0-3.76-1.19v-2c2.63.14 4 1.32 4 2.49zm-4.96 7c-.53-.1-1.06-.22-1.53-.37.72-.24 1.61-.4 2.5-.56 2.34-.41 4.99-.88 4.99-3.07v-3c0-1.74-1.89-3.5-5.5-3.5a.5.5 0 0 0-.5.5v3c0 .28.22.5.5.5 1.38 0 2.56.3 3.38.82-.8.36-1.94.56-3.06.76-2.37.42-4.82.85-4.82 2.92v3c0 1.42.9 2.11 1.96 2.5-1.1.24-1.96.6-1.96 1.5v3a.5.5 0 0 0 1 0c0-.34 1.38-.56 2.2-.7 1.7-.27 3.8-.61 3.8-2.3v-3c0-1.43-1.57-1.73-2.96-2z"/></defs><g><g transform="translate(-891 -108)"><g><use fill="#7cc772" xlink:href="#hxvha"/></g><g><use fill="#7cc772" xlink:href="#hxvhb"/></g><g><use fill="#7cc772" xlink:href="#hxvhc"/></g><g><use fill="#7cc772" xlink:href="#hxvhd"/></g><g><use fill="#707986" xlink:href="#hxvhe"/></g></g><g transform="translate(-891 -108)"><g><use fill="#7cc772" xlink:href="#hxvha"/></g><g><use fill="#7cc772" xlink:href="#hxvhb"/></g><g><use fill="#7cc772" xlink:href="#hxvhc"/></g><g><use fill="#7cc772" xlink:href="#hxvhd"/></g><g><use fill="#707986" xlink:href="#hxvhe"/></g></g></g></svg>