<svg xmlns="http://www.w3.org/2000/svg" xmlns:xlink="http://www.w3.org/1999/xlink" width="64" height="60" viewBox="0 0 64 60"><defs><path id="punja" d="M446 519.89h58.11V578H446z"/><path id="punjd" d="M504.11 548.95a29.06 29.06 0 1 0-58.1 0 29.06 29.06 0 0 0 58.1 0"/><path id="punje" d="M452.33 551.69l-4.28-24.62 43.97-.25"/><path id="punjf" d="M477.59 560.54h-5.26c-3.5 0-6.58-1.43-7.63-3.54l-1.18-2.37c-1.57-3.17 2.03-6.47 7.29-6.57h7.76c1.7 0 3.28.33 4.6.89 2.77 1.18 4 3.37 3.15 5.42l-1 2.4c-.92 2.22-4.1 3.77-7.73 3.77"/><path id="punjg" d="M477.59 560.54h-5.26c-3.5 0-6.58-1.43-7.63-3.54l-1.18-2.37c-1.57-3.17 2.03-6.47 7.29-6.57h7.76c1.7 0 3.28.33 4.6.89 2.77 1.18 4 3.37 3.15 5.42l-1 2.4c-.92 2.22-4.1 3.77-7.73 3.77z"/><path id="punjh" d="M475.4 551.17h-1.28a3.4 3.4 0 0 1-3.39-3.39v-3.27h8.05v3.27a3.4 3.4 0 0 1-3.39 3.4"/><path id="punji" d="M475.4 551.17h-1.28a3.4 3.4 0 0 1-3.39-3.39v-3.27h8.05v3.27a3.4 3.4 0 0 1-3.39 3.4z"/><path id="punjj" d="M471.13 546.9s.9 2.3 3.33 2.3c4.03 0 3.7-2.3 3.7-2.3z"/><path id="punjk" d="M483.94 538.94c-.18 4.63-4.3 8.25-9.19 8.25-4.9 0-9-3.62-9.19-8.25l-.3-7.5c-.2-5.14 4.05-9.46 9.49-9.46s9.68 4.33 9.48 9.46z"/><path id="punjl" d="M465.45 537.57l.03-.01a3.25 3.25 0 0 0 2.35-3.01l.28-7.85s-3.93.43-2.66 10.87"/><path id="punjm" d="M484.05 537.57l-.02-.01a3.25 3.25 0 0 1-2.36-3.01l-.28-7.85s3.93.43 2.66 10.87"/><path id="punjn" d="M467.49 531.58s-.44-4.63 7.12-4.63c9.6 0 9.92 3.74 9.92 3.74s2.68-3.6-.3-9l-2.02-3.69s-2.28 2.96-5.06 2.91c-2.77-.05-11.85.51-11.95 10.69h2.5"/><path id="punjo" d="M479.25 532.43h-13.21v2.94c0 1.6 1.29 2.73 2.89 2.73h2.16c1.6 0 2.8-1.13 2.8-2.73v-1.27h2.16v1.27c0 1.6 1.44 2.73 3.04 2.73h2.16c1.6 0 2.8-1.13 2.8-2.73v-2.94z"/><path id="punjp" d="M470.66 537.1h-1.31c-.97 0-1.76-.79-1.76-1.76v-1.84h4.82v1.84c0 .97-.78 1.76-1.75 1.76"/><path id="punjq" d="M480.78 537.1h-1.31c-.97 0-1.76-.79-1.76-1.76v-1.84h4.82v1.84c0 .97-.78 1.76-1.75 1.76"/><path id="punjr" d="M496.65 551.7l4.28-24.62"/><path id="punjs" d="M494.08 569.3h-38.66l-3.05-17.68h44.28z"/><path id="punjb" d="M446 578h63.59v-60H446z"/><path id="punju" d="M455.36 572.97h38.7v-3.67h-38.7z"/><path id="punjv" d="M477.55 558.46l1.15-1.15a4.66 4.66 0 0 0-3.18-1.31 4.4 4.4 0 0 0-3.18 1.32 4.44 4.44 0 0 0 .7 6.94 4.78 4.78 0 0 0 2.5.74 4.39 4.39 0 0 0 3.17-1.33l-3.22-3.18z"/><path id="punjw" d="M450.17 539.26l1.98 10.86"/><path id="punjx" d="M509.09 534.19a10.5 10.5 0 1 1-21 0 10.5 10.5 0 0 1 21 0"/><path id="punjy" d="M509.09 534.19a10.5 10.5 0 1 1-21 0 10.5 10.5 0 0 1 21 0z"/><path id="punjz" d="M494.09 533.35l3.83 3.34 6.17-6.67"/><clipPath id="punjc"><use xlink:href="#punja"/></clipPath><clipPath id="punjt"><use xlink:href="#punjb"/></clipPath></defs><g><g transform="translate(-446 -518)"><g><g/><g clip-path="url(#punjc)"><use fill="#d9eaee" xlink:href="#punjd"/></g></g><g><use fill="#fff" fill-opacity="0" stroke="#d9eaee" stroke-linecap="round" stroke-linejoin="round" stroke-miterlimit="50" stroke-width="1.33" xlink:href="#punje"/></g><g><use fill="#96cfc1" xlink:href="#punjf"/></g><g><use fill="#fff" fill-opacity="0" stroke="#0075af" stroke-linecap="round" stroke-linejoin="round" stroke-miterlimit="50" stroke-width="1.33" xlink:href="#punjg"/></g><g><use fill="#fff" xlink:href="#punjh"/></g><g><use fill="#fff" fill-opacity="0" stroke="#0075af" stroke-miterlimit="50" stroke-width="1.33" xlink:href="#punji"/></g><g><use fill="#d9eaee" xlink:href="#punjj"/></g><g><use fill="#fff" xlink:href="#punjk"/></g><g><use fill="#fff" fill-opacity="0" stroke="#0075af" stroke-miterlimit="50" stroke-width="1.33" xlink:href="#punjk"/></g><g><use fill="#0075af" xlink:href="#punjl"/></g><g><use fill="#0075af" xlink:href="#punjm"/></g><g><use fill="#0075af" xlink:href="#punjn"/></g><g><use fill="#fff" xlink:href="#punjo"/></g><g><use fill="#fff" fill-opacity="0" stroke="#0075af" stroke-miterlimit="50" stroke-width="1.33" xlink:href="#punjo"/></g><g><use fill="#47a06f" xlink:href="#punjp"/></g><g><use fill="#47a06f" xlink:href="#punjq"/></g><g><use fill="#fff" fill-opacity="0" stroke="#fff" stroke-linecap="round" stroke-linejoin="round" stroke-miterlimit="50" stroke-width="1.33" xlink:href="#punjr"/></g><g><use fill="#96cfc1" xlink:href="#punjs"/></g><g><use fill="#fff" fill-opacity="0" stroke="#0075af" stroke-linecap="round" stroke-linejoin="round" stroke-miterlimit="50" stroke-width="1.33" xlink:href="#punjs"/></g><g/><g clip-path="url(#punjt)"><use fill="#96cfc1" xlink:href="#punju"/></g><g clip-path="url(#punjt)"><use fill="#fff" fill-opacity="0" stroke="#0075af" stroke-linecap="round" stroke-linejoin="round" stroke-miterlimit="50" stroke-width="1.33" xlink:href="#punju"/></g><g clip-path="url(#punjt)"><use fill="#fff" xlink:href="#punjv"/></g><g clip-path="url(#punjt)"><use fill="#fff" fill-opacity="0" stroke="#fff" stroke-linecap="round" stroke-linejoin="round" stroke-miterlimit="50" stroke-width="1.33" xlink:href="#punjw"/></g><g clip-path="url(#punjt)"><use fill="#47a06f" xlink:href="#punjx"/></g><g clip-path="url(#punjt)"><use fill="#fff" fill-opacity="0" stroke="#fff" stroke-miterlimit="50" xlink:href="#punjy"/></g><g clip-path="url(#punjt)"><use fill="#fff" fill-opacity="0" stroke="#fff" stroke-linecap="round" stroke-linejoin="round" stroke-miterlimit="50" stroke-width="2.24" xlink:href="#punjz"/></g></g></g></svg>