<svg xmlns="http://www.w3.org/2000/svg" xmlns:xlink="http://www.w3.org/1999/xlink" width="12" height="12" viewBox="0 0 12 12"><defs><path id="ndeia" d="M1116 133.96l5.17 3.87v.52l-3.55 2.62 2.83 1.84c.2.13.25.4.13.6a.41.41 0 0 1-.57.13l-4-2.58-4 2.58a.41.41 0 0 1-.58-.13.43.43 0 0 1 .14-.6l2.82-1.84-3.56-2.62v-.52zm6 3.66a.43.43 0 0 0-.17-.35l-5.58-4.19a.4.4 0 0 0-.5 0l-5.58 4.19c-.1.08-.17.2-.17.35V144l1 1h10l1-1z"/></defs><g><g transform="translate(-1110 -133)"><use fill="#45af37" xlink:href="#ndeia"/></g></g></svg>