<svg xmlns="http://www.w3.org/2000/svg" xmlns:xlink="http://www.w3.org/1999/xlink" width="17" height="15" viewBox="0 0 17 15"><defs><path id="b9y0a" d="M105.98 167.56h-.01l-4.92-2.5a.54.54 0 0 0-.24-.06c-.2 0-.38.1-.48.26l-2.83 4.68 3.55 5.86 4.94-8.16a.06.06 0 0 0-.01-.08"/><path id="b9y0b" d="M96.29 169.8v4.98l4.86 2.22-4.86-7.2"/><path id="b9y0c" d="M101.14 177.4l3.93 1.89c.51.24.93.07.93-.39v-9.1l-4.86 7.6"/><path id="b9y0d" d="M95.04 167.59l-5.37-2.52a.65.65 0 0 0-.27-.07c-.24 0-.4.17-.4.46v10.87c0 .3.23.64.5.77l4.73 2.22a.8.8 0 0 0 .34.08c.3 0 .5-.21.5-.57v-11.2a.06.06 0 0 0-.03-.04"/></defs><g><g transform="translate(-89 -165)"><use fill="#fff" xlink:href="#b9y0a"/></g><g transform="translate(-89 -165)"><use fill="#fff" xlink:href="#b9y0b"/></g><g transform="translate(-89 -165)"><use fill="#fff" xlink:href="#b9y0c"/></g><g transform="translate(-89 -165)"><use fill="#fff" xlink:href="#b9y0d"/></g></g></svg>