<svg xmlns="http://www.w3.org/2000/svg" xmlns:xlink="http://www.w3.org/1999/xlink" width="12" height="12" viewBox="0 0 12 12"><defs><path id="y273a" d="M1003 291l-1 1h-10l-1-1v-6.38c0-.14.06-.27.17-.35l5.58-4.19a.4.4 0 0 1 .5 0l5.58 4.19c.1.08.17.2.17.35zm-11.17-6.17v.52l3.56 2.62-2.82 1.84a.43.43 0 0 0-.13.6.41.41 0 0 0 .57.13l4-2.58 4 2.58a.41.41 0 0 0 .57-.13.43.43 0 0 0-.13-.6l-2.83-1.84 3.55-2.62v-.52l-5.17-3.87z"/></defs><g><g transform="translate(-991 -280)"><use fill="#8f96a1" xlink:href="#y273a"/></g></g></svg>