<svg xmlns="http://www.w3.org/2000/svg" xmlns:xlink="http://www.w3.org/1999/xlink" width="14" height="14" viewBox="0 0 14 14"><defs><path id="qumwa" d="M998.87 456l.88 2.08.48.22 2.08-.87 1.26 1.26-.87 2.08c.08.15.17.33.22.48l2.08.88v1.74l-2.08.88-.22.48.87 2.08-1.26 1.26-2.08-.87c-.15.08-.33.15-.48.22l-.88 2.08h-1.74l-.88-2.08-.48-.22-2.08.87-1.26-1.26.87-2.08-.22-.48-2.08-.88v-1.74l2.08-.88.22-.48-.87-2.08 1.26-1.26 2.08.87c.15-.08.31-.17.48-.22l.88-2.08zm-3.49 6.98a2.61 2.61 0 1 0 5.23.01 2.61 2.61 0 0 0-5.23 0z"/></defs><g><g transform="translate(-991 -456)"><use fill="#8f96a1" xlink:href="#qumwa"/></g></g></svg>