<svg xmlns="http://www.w3.org/2000/svg" xmlns:xlink="http://www.w3.org/1999/xlink" width="12" height="13" viewBox="0 0 12 13"><defs><path id="fmdha" d="M1003 318.2v7.2c0 .66-.54 1.6-1.2 1.6H997l-4 3v-3h-.8c-.66 0-1.2-.94-1.2-1.6v-7.2c0-.66.54-1.2 1.2-1.2h9.6c.66 0 1.2.54 1.2 1.2zm-4.95 1.8c0 .41.38.75.85.75s.85-.34.85-.75-.38-.75-.85-.75-.85.34-.85.75zm-3.8 0c0 .41.38.75.85.75s.85-.34.85-.75-.38-.75-.85-.75-.85.34-.85.75zm5.5 3h-5.5c.47 1.3 1.52 2.2 2.75 2.2s2.28-.9 2.75-2.2z"/></defs><g><g transform="translate(-991 -317)"><use fill="#8f96a1" xlink:href="#fmdha"/></g></g></svg>