<svg xmlns="http://www.w3.org/2000/svg" xmlns:xlink="http://www.w3.org/1999/xlink" width="16" height="16" viewBox="0 0 16 16"><defs><path id="6kc2a" d="M54 294c0-1.1.9-2 2-2h12a2 2 0 0 1 2 2v12a2 2 0 0 1-2 2H56a2 2 0 0 1-2-2z"/><path id="6kc2b" d="M57.33 299.33a1.1 1.1 0 0 1 1.5.04l2.08 2.07 4.19-4.13a1.1 1.1 0 0 1 1.5-.03.96.96 0 0 1 .03 1.41l-4.71 4.65a1.1 1.1 0 0 1-1.57-.04c-.3 0-.58-.1-.8-.31l-2.26-2.24a.96.96 0 0 1 .04-1.42z"/></defs><g><g transform="translate(-54 -292)"><use fill="#f7981b" xlink:href="#6kc2a"/></g><g transform="translate(-54 -292)"><use fill="#fff" xlink:href="#6kc2b"/></g></g></svg>