<svg xmlns="http://www.w3.org/2000/svg" xmlns:xlink="http://www.w3.org/1999/xlink" width="16" height="16" viewBox="0 0 16 16"><defs><path id="r6qra" d="M54 238c0-1.1.9-2 2-2h12a2 2 0 0 1 2 2v12a2 2 0 0 1-2 2H56a2 2 0 0 1-2-2z"/><path id="r6qrb" d="M57.33 243.33a1.1 1.1 0 0 1 1.5.04l2.08 2.07 4.19-4.13a1.1 1.1 0 0 1 1.5-.03.96.96 0 0 1 .03 1.41l-4.71 4.65a1.1 1.1 0 0 1-1.57-.04c-.3 0-.58-.1-.8-.31l-2.26-2.24a.96.96 0 0 1 .04-1.42z"/></defs><g><g transform="translate(-54 -236)"><use fill="#ff819e" xlink:href="#r6qra"/></g><g transform="translate(-54 -236)"><use fill="#fff" xlink:href="#r6qrb"/></g></g></svg>