<svg xmlns="http://www.w3.org/2000/svg" xmlns:xlink="http://www.w3.org/1999/xlink" width="18" height="16" viewBox="0 0 18 16"><defs><path id="yzyna" d="M684.7 573.58h-3.15c-.25 0-.45.19-.45.42 0 .23.2.42.45.42h.9c1.24 0 2.25.95 2.25 2.1 0 1.02-.77 1.87-1.8 2.07v.88h-1.8v-.84h-1.8v-1.68h3.15c.25 0 .45-.2.45-.42 0-.24-.2-.42-.45-.42h-.9c-1.24 0-2.25-.95-2.25-2.11 0-1.02.77-1.87 1.8-2.06v-.89h1.8v.84h1.8zm-4.5-5.9h3.6v.85h-3.6zm9 .85v-.85h-1.8v.85h-1.8v-1.69c0-.46-.4-.84-.9-.84h-5.4c-.5 0-.9.38-.9.84v1.69h-1.8v-.85h-1.8v.85c-1 0-1.8.75-1.8 1.68v10.1c0 .94.8 1.69 1.8 1.69h14.4c1 0 1.8-.75 1.8-1.68v-10.1c0-.94-.8-1.7-1.8-1.7z"/></defs><g><g transform="translate(-673 -566)"><use fill="#fff" xlink:href="#yzyna"/></g></g></svg>