<svg xmlns="http://www.w3.org/2000/svg" xmlns:xlink="http://www.w3.org/1999/xlink" width="21" height="21" viewBox="0 0 21 21"><defs><path id="qfv4a" d="M1006.83 122.76L1004 125v11.43c0 .31-.1.57-.4.57-4.22 1.64-8.6 0-10.6 0l-4 4v-4c0-.28-.92.3-1 0-.31 0-2-.26-2-.57v-11.91c0-.31.26-.57.57-.57h13.85l3.8-3.8c.2-.2.57-.2.8 0l1.81 1.79c.23.22.23.6 0 .82zM1002 135v-8l-3.29 3.84a.55.55 0 0 1-.25.15l-.68.17c-.77.2-1.85.17-1.88.17h-5.39a.57.57 0 0 1-.57-.57c0-.31.26-.57.57-.57h4.97l.5-1.7c.04-.09.07-.2.15-.26l2.58-2.23H988v9zm3.6-12.64l-.98-1-7.58 7.58-.34 1.34 1.33-.34z"/></defs><g><g transform="translate(-986 -120)"><use fill="#fff" xlink:href="#qfv4a"/></g></g></svg>