<svg xmlns="http://www.w3.org/2000/svg" xmlns:xlink="http://www.w3.org/1999/xlink" width="60" height="60" viewBox="0 0 60 60"><defs><path id="v0qxb" d="M90 548a30 30 0 1 0-60 0 30 30 0 0 0 60 0"/><path id="v0qxc" d="M86.09 563.33s-1.95-3.72-5.8-3.49c-3.85.23-4.53 4.18-1.26 9.35 0 0 6.72-4.31 7.06-5.86"/><path id="v0qxd" d="M86.09 563.33s-1.95-3.72-5.8-3.49c-3.85.23-4.53 4.18-1.26 9.35 0 0 6.72-4.31 7.06-5.86z"/><path id="v0qxe" d="M75.9 570.39H36.6l2.96-11.37h33.36z"/><path id="v0qxf" d="M65.64 567.46H39.18l2-7.23h22.91z"/><path id="v0qxg" d="M73.31 567.46h-6.05l-1.62-7.23h5.65z"/><path id="v0qxh" d="M60.51 569.18H46.64l.29-1.03H60.3z"/><path id="v0qxi" d="M45.05 573.94c-3.57 0-4.1-.64-4.3-.88-.2-.24-.28-.55-.22-.85.17-.88.31-1.9.15-2.75-.15-.75-.1-1.74-.1-1.78l.01-.13.03-.1.6-3.05.02-.05.03-.12.53-1.35c.18-.46.64-.75 1.19-.75.14 0 .28.02.41.06l.08.02.16.06.05-.13c.18-.46.64-.75 1.18-.75.14 0 .29.02.42.06l.08.02c.11.04.21.08.3.13.24-.2.55-.31.9-.31.15 0 .3.02.45.06l.09.03c.39.12.7.37.86.7.05.09.08.19.1.29.1 0 .19.02.28.05l.08.03c.37.1.66.35.82.66.14.28.15.59.04.87l-.53 1.37-.02.04-.07.37c.23-.2.55-.33.9-.33.2 0 .4.04.59.13l.07.03c.35.15.61.44.71.77.1.3.05.63-.12.9l-2.18 3.41c-.92 1.66-1.42 2.03-1.76 2.17l-.02.01c-.27.11-.45.3-.48.5a.7.7 0 0 1-.66.58l-.67.01"/><path id="v0qxj" d="M46.57 561.98c.08 0 .17.01.26.04l.08.02c.35.1.56.4.46.64l-.85 2.08-.34 1.79.27.04.26-1.5.68-1.73c.08-.2.3-.31.54-.31.08 0 .15.01.23.03l.08.03c.32.1.5.37.4.62l-.52 1.37h-.02l-.53 2.78.02.03.39.15 1.08-1.7c.1-.15.3-.24.5-.24.1 0 .22.02.32.07l.07.03c.3.13.43.43.29.66l-2.05 3.22-.14.22c-.34.62-.99 1.7-1.43 1.89h-.02c-.5.2-.82.58-.9 1.03l-.65.01c-1.28 0-4-.1-3.84-.92.2-1.07.32-2.1.14-3-.13-.68-.09-1.62-.09-1.62l.03-.12.61-3.05.01-.05.02-.05.51-1.31c.08-.2.3-.31.55-.31.07 0 .14 0 .22.03l.08.02c.32.1.43.37.34.62l-.56 1.38-.22 1.12.37.03.25-1.31c0-.07.06-.2.13-.35l.73-1.97c.08-.2.3-.31.54-.31.08 0 .15 0 .23.03l.08.02c.32.1.5.38.4.63l-.75 1.93-.3 1.56.26.05.3-1.58.93-2.44c.07-.19.3-.3.55-.3m0-1.38c-.35 0-.68.08-.96.23l-.04-.02-.08-.02a2.2 2.2 0 0 0-.62-.09c-.65 0-1.23.29-1.58.76l-.3-.02c-.83 0-1.55.47-1.83 1.19l-.51 1.3v.01l-.02.04a1.33 1.33 0 0 0-.08.3l-.6 3.02-.03.1a9.36 9.36 0 0 0 .08 2.2c.15.73 0 1.66-.15 2.48-.1.51.04 1.02.37 1.42.46.56 1.4 1.13 4.83 1.13h.7a1.38 1.38 0 0 0 1.3-1.1.35.35 0 0 1 .08-.04l.02-.01c.48-.2 1.08-.64 2.08-2.45l.1-.15.02-.04 2.05-3.22c.28-.43.35-.96.2-1.46a1.94 1.94 0 0 0-1.09-1.2l-.08-.03c-.22-.1-.46-.16-.7-.18l.2-.52c.18-.46.16-.97-.06-1.42a2 2 0 0 0-1.24-1.02l-.04-.02c-.25-.5-.71-.88-1.29-1.05l-.08-.03c-.21-.06-.43-.09-.65-.09"/><path id="v0qxk" d="M46.99 574.43a.95.95 0 0 1-1.09.8l-5.16-.82a.95.95 0 0 1-.79-1.08l.16-1.02a.95.95 0 0 1 1.09-.79l5.16.8c.52.09.87.58.79 1.1z"/><path id="v0qxl" d="M42.98 566.33l.32-1.6.64-2.07"/><path id="v0qxm" d="M44.57 566.81l.32-1.6.85-3"/><path id="v0qxn" d="M46.2 567.22l.5-2.13.88-2.27"/><path id="v0qxo" d="M84.1 573.94h-.67a.69.69 0 0 1-.66-.57c-.04-.22-.21-.4-.49-.52h-.01c-.34-.15-.84-.52-1.76-2.18l-.13-.2-2.05-3.22c-.17-.26-.21-.59-.12-.89.1-.33.36-.62.7-.77l.08-.03c.19-.09.4-.13.6-.13.34 0 .66.12.89.33l-.07-.37a.35.35 0 0 1-.02-.04l-.53-1.37c-.11-.28-.1-.59.04-.87.15-.31.45-.56.82-.66l.08-.03c.09-.03.19-.04.28-.05.02-.1.05-.2.1-.3.16-.32.47-.57.86-.69l.09-.03c.14-.04.3-.06.45-.06.35 0 .66.12.89.31.1-.05.2-.1.3-.13l.09-.02c.13-.04.27-.06.41-.06.55 0 1 .3 1.19.75l.05.13.15-.06.08-.02c.14-.04.28-.06.42-.06.54 0 1 .3 1.19.75l.53 1.35.03.12.01.06.61 3.04.03.1.01.13c0 .04.05 1.03-.1 1.78-.17.85-.02 1.87.15 2.75.06.3-.02.6-.23.85-.2.24-.72.88-4.3.88"/><path id="v0qxp" d="M82.58 561.98c.25 0 .48.11.55.3l.93 2.44.3 1.58.26-.05-.3-1.56-.76-1.93c-.1-.25.09-.53.4-.63l.1-.02a.77.77 0 0 1 .21-.03c.25 0 .47.12.54.3a157.09 157.09 0 0 0 .87 2.33l.24 1.31.37-.03-.21-1.12-.56-1.38c-.1-.25.01-.52.34-.61l.08-.03a.79.79 0 0 1 .22-.03c.25 0 .47.12.54.3l.51 1.31v.01l.02.05.02.05.6 3.05.03.12s.05.94-.08 1.61c-.18.91-.06 1.94.14 3.01.16.83-2.57.92-3.85.92h-.64v-.01a1.42 1.42 0 0 0-.9-1.03h-.02c-.45-.19-1.09-1.27-1.43-1.89l-.14-.22-2.05-3.22c-.15-.23-.02-.53.28-.66l.08-.03c.1-.05.2-.07.31-.07.21 0 .4.09.5.24l1.1 1.7h-.01l.39-.15.02-.03-.53-2.78h-.02l-.53-1.37c-.1-.25.09-.53.4-.62l.1-.03a.8.8 0 0 1 .21-.03c.25 0 .47.12.54.31l.69 1.73.26 1.5.26-.04-.34-1.8-.84-2.07c-.1-.25.1-.54.45-.64l.1-.02a.92.92 0 0 1 .25-.04m0-1.38c-.22 0-.44.03-.65.1l-.09.02c-.57.17-1.04.55-1.28 1.05l-.04.02a2 2 0 0 0-1.24 1.02c-.22.45-.25.96-.07 1.42l.2.52c-.24.02-.48.08-.7.18l-.07.03c-.54.24-.93.67-1.1 1.2-.14.5-.07 1.03.2 1.46l2.06 3.22.02.04.1.15c1 1.81 1.6 2.25 2.08 2.45h.02l.08.05c.14.62.67 1.07 1.3 1.1h.7c3.43 0 4.36-.57 4.82-1.13.34-.4.47-.91.38-1.42a7.02 7.02 0 0 1-.15-2.49 9.44 9.44 0 0 0 .08-2.2l-.03-.09-.6-3.03a1.4 1.4 0 0 0-.08-.29l-.02-.04v-.01l-.52-1.3c-.27-.72-1-1.19-1.82-1.19-.1 0-.2 0-.3.02a1.97 1.97 0 0 0-1.59-.76c-.2 0-.41.03-.61.09l-.08.02-.04.02a2.1 2.1 0 0 0-.96-.23"/><path id="v0qxq" d="M82.16 574.43c.08.52.57.87 1.09.8l5.16-.82a.95.95 0 0 0 .79-1.08l-.16-1.02a.95.95 0 0 0-1.09-.79l-5.16.8a.95.95 0 0 0-.79 1.1z"/><path id="v0qxr" d="M86.16 566.33l-.31-1.6-.65-2.07"/><path id="v0qxs" d="M84.56 566.81l-.31-1.6-.86-3"/><path id="v0qxt" d="M82.94 567.22l-.5-2.13-.88-2.27"/><path id="v0qxu" d="M71.12 555.75H48.13l1.74-4.99h19.52z"/><path id="v0qxa" d="M30 578h60v-60H30z"/><path id="v0qxw" d="M54.39 552.82h10.33V548H54.4z"/><path id="v0qxx" d="M36.31 549.55h46.68v-27.04H36.3z"/><path id="v0qxy" d="M39.23 547.14h40.65v-22.05H39.23z"/><path id="v0qxz" d="M43.44 529.13h33.12v-2.24H43.44z"/><path id="v0qxA" d="M44.47 543.4h31.05v-13.67H44.47zm-1.03 1.04h33.12V528.7H43.44z"/><path id="v0qxB" d="M45.8 528.22a.65.65 0 1 1-1.3 0 .65.65 0 0 1 1.3 0"/><path id="v0qxC" d="M48 528.22a.65.65 0 1 1-1.3 0 .65.65 0 0 1 1.3 0"/><path id="v0qxD" d="M50.2 528.22a.65.65 0 1 1-1.3 0 .65.65 0 0 1 1.3 0"/><path id="v0qxE" d="M45.56 532h10.25v-1.16H45.56z"/><path id="v0qxF" d="M45.56 534.08h14.15v-1.15H45.56z"/><path id="v0qxG" d="M45.56 536.17h14.13v-1.15H45.56z"/><path id="v0qxH" d="M45.56 538.27h14.13v-1.15H45.56z"/><path id="v0qxI" d="M45.56 540.36h15.6v-1.15h-15.6z"/><path id="v0qxJ" d="M45.56 542.45h15.6v-1.15h-15.6z"/><path id="v0qxK" d="M62.83 541.33l.95-2.62 1.72 2.62 1.85-7.2 1.5 3.77 2.53-5.96 2.5 9.39"/><clipPath id="v0qxv"><use xlink:href="#v0qxa"/></clipPath></defs><g><g transform="translate(-30 -518)"><g><use fill="#d9eaee" xlink:href="#v0qxb"/></g><g><use fill="#96cfc1" xlink:href="#v0qxc"/></g><g><use fill="#fff" fill-opacity="0" stroke="#0075af" stroke-linecap="round" stroke-linejoin="round" stroke-miterlimit="50" stroke-width="1.38" xlink:href="#v0qxd"/></g><g><use fill="#d9eaee" xlink:href="#v0qxe"/></g><g><use fill="#fff" fill-opacity="0" stroke="#0075af" stroke-linecap="round" stroke-linejoin="round" stroke-miterlimit="50" stroke-width="1.38" xlink:href="#v0qxe"/></g><g><use fill="#47a06f" xlink:href="#v0qxf"/></g><g><use fill="#47a06f" xlink:href="#v0qxg"/></g><g><use fill="#47a06f" xlink:href="#v0qxh"/></g><g><use fill="#fff" xlink:href="#v0qxi"/></g><g><use fill="#0075af" xlink:href="#v0qxj"/></g><g><use fill="#d9eaee" xlink:href="#v0qxk"/></g><g><use fill="#fff" fill-opacity="0" stroke="#0075af" stroke-linecap="round" stroke-linejoin="round" stroke-miterlimit="50" stroke-width="1.38" xlink:href="#v0qxk"/></g><g><g><use fill="#d9eaee" xlink:href="#v0qxl"/></g><g><use fill="#fff" fill-opacity="0" stroke="#0075af" stroke-linecap="round" stroke-linejoin="round" stroke-miterlimit="50" stroke-width="1.03" xlink:href="#v0qxl"/></g></g><g><g><use fill="#d9eaee" xlink:href="#v0qxm"/></g><g><use fill="#fff" fill-opacity="0" stroke="#0075af" stroke-linecap="round" stroke-linejoin="round" stroke-miterlimit="50" stroke-width="1.03" xlink:href="#v0qxm"/></g></g><g><g><use fill="#d9eaee" xlink:href="#v0qxn"/></g><g><use fill="#fff" fill-opacity="0" stroke="#0075af" stroke-linecap="round" stroke-linejoin="round" stroke-miterlimit="50" stroke-width="1.03" xlink:href="#v0qxn"/></g></g><g><use fill="#fff" xlink:href="#v0qxo"/></g><g><use fill="#0075af" xlink:href="#v0qxp"/></g><g><use fill="#d9eaee" xlink:href="#v0qxq"/></g><g><use fill="#fff" fill-opacity="0" stroke="#0075af" stroke-linecap="round" stroke-linejoin="round" stroke-miterlimit="50" stroke-width="1.38" xlink:href="#v0qxq"/></g><g><g><use fill="#d9eaee" xlink:href="#v0qxr"/></g><g><use fill="#fff" fill-opacity="0" stroke="#0075af" stroke-linecap="round" stroke-linejoin="round" stroke-miterlimit="50" stroke-width="1.03" xlink:href="#v0qxr"/></g></g><g><g><use fill="#d9eaee" xlink:href="#v0qxs"/></g><g><use fill="#fff" fill-opacity="0" stroke="#0075af" stroke-linecap="round" stroke-linejoin="round" stroke-miterlimit="50" stroke-width="1.03" xlink:href="#v0qxs"/></g></g><g><g><use fill="#d9eaee" xlink:href="#v0qxt"/></g><g><use fill="#fff" fill-opacity="0" stroke="#0075af" stroke-linecap="round" stroke-linejoin="round" stroke-miterlimit="50" stroke-width="1.03" xlink:href="#v0qxt"/></g></g><g><use fill="#d9eaee" xlink:href="#v0qxu"/></g><g><use fill="#fff" fill-opacity="0" stroke="#0075af" stroke-linecap="round" stroke-linejoin="round" stroke-miterlimit="50" stroke-width="1.38" xlink:href="#v0qxu"/></g><g/><g clip-path="url(#v0qxv)"><use fill="#d9eaee" xlink:href="#v0qxw"/></g><g clip-path="url(#v0qxv)"><use fill="#fff" fill-opacity="0" stroke="#0075af" stroke-linecap="round" stroke-linejoin="round" stroke-miterlimit="50" stroke-width="1.38" xlink:href="#v0qxw"/></g><g clip-path="url(#v0qxv)"><use fill="#d9eaee" xlink:href="#v0qxx"/></g><g clip-path="url(#v0qxv)"><use fill="#fff" fill-opacity="0" stroke="#0075af" stroke-linecap="round" stroke-linejoin="round" stroke-miterlimit="50" stroke-width="1.38" xlink:href="#v0qxx"/></g><g clip-path="url(#v0qxv)"><use fill="#fff" xlink:href="#v0qxy"/></g><g clip-path="url(#v0qxv)"><use fill="#47a06f" xlink:href="#v0qxz"/></g><g clip-path="url(#v0qxv)"><use fill="#47a06f" xlink:href="#v0qxA"/></g><g clip-path="url(#v0qxv)"><use fill="#fff" xlink:href="#v0qxB"/></g><g clip-path="url(#v0qxv)"><use fill="#fff" xlink:href="#v0qxC"/></g><g clip-path="url(#v0qxv)"><use fill="#fff" xlink:href="#v0qxD"/></g><g clip-path="url(#v0qxv)"><use fill="#d9eaee" xlink:href="#v0qxE"/></g><g clip-path="url(#v0qxv)"><use fill="#d9eaee" xlink:href="#v0qxF"/></g><g clip-path="url(#v0qxv)"><use fill="#d9eaee" xlink:href="#v0qxG"/></g><g clip-path="url(#v0qxv)"><use fill="#d9eaee" xlink:href="#v0qxH"/></g><g clip-path="url(#v0qxv)"><use fill="#d9eaee" xlink:href="#v0qxI"/></g><g clip-path="url(#v0qxv)"><use fill="#d9eaee" xlink:href="#v0qxJ"/></g><g clip-path="url(#v0qxv)"><use fill="#fff" fill-opacity="0" stroke="#96cfc1" stroke-linecap="round" stroke-linejoin="round" stroke-miterlimit="50" stroke-width="1.03" xlink:href="#v0qxK"/></g></g></g></svg>