<svg xmlns="http://www.w3.org/2000/svg" xmlns:xlink="http://www.w3.org/1999/xlink" width="10" height="12" viewBox="0 0 10 12"><defs><path id="sq7ja" d="M1131.92 1585.38c-.74 0-1.38.43-1.76 1.07l-2.23-1.41a2.48 2.48 0 0 0 .14-1.7l2.32-1.47c.38.45.92.75 1.53.75 1.15 0 2.08-1.04 2.08-2.31 0-1.28-.93-2.31-2.08-2.31s-2.09 1.03-2.09 2.3c0 .24.04.46.1.67l-2.32 1.47a1.99 1.99 0 0 0-1.53-.75c-1.15 0-2.08 1.04-2.08 2.31s.93 2.3 2.08 2.3c.48 0 .91-.18 1.26-.47l2.52 1.61-.03.25c0 1.28.94 2.31 2.09 2.31s2.08-1.03 2.08-2.3c0-1.28-.93-2.32-2.08-2.32"/></defs><g><g transform="translate(-1124 -1578)"><use fill="#f7981b" xlink:href="#sq7ja"/></g></g></svg>