<svg xmlns="http://www.w3.org/2000/svg" xmlns:xlink="http://www.w3.org/1999/xlink" width="19.49" height="16" viewBox="0 0 19.49 16"><defs><path id="4eola" d="M1069.96 117.21c-.96 0-1.74.76-1.74 1.69 0 .93.78 1.69 1.74 1.69s1.74-.76 1.74-1.7c0-.92-.78-1.68-1.74-1.68zm0 5.06a3.43 3.43 0 0 1-3.48-3.37 3.43 3.43 0 0 1 3.48-3.37 3.43 3.43 0 0 1 3.48 3.37 3.43 3.43 0 0 1-3.48 3.37z"/><path id="4eolb" d="M1064.88 127.32h10.16c-.52-1.52-2.47-2.53-5.08-2.53-2.62 0-4.56 1-5.08 2.53zm12.03 1.68H1063v-.84c0-2.97 2.86-5.05 6.96-5.05s6.95 2.08 6.95 5.05z"/><path id="4eolc" d="M1077.52 119l-3.22-3.13 1.23-1.19 2 1.94 3.73-3.62 1.23 1.2z"/></defs><g><g transform="translate(-1063 -113)"><g><use fill="#fff" xlink:href="#4eola"/></g><g><use fill="#fff" xlink:href="#4eolb"/></g><g><use fill="#fff" xlink:href="#4eolc"/></g></g></g></svg>