<svg xmlns="http://www.w3.org/2000/svg" xmlns:xlink="http://www.w3.org/1999/xlink" width="24" height="24" viewBox="0 0 24 24"><defs><path id="y21ma" d="M766.5 129H746v-20.5a.5.5 0 0 0-1 0V129h-1.5a.5.5 0 0 0 0 1h1.5v1.5a.5.5 0 0 0 1 0V130h20.5a.5.5 0 0 0 0-1z"/><path id="y21mb" d="M750.5 121a1.5 1.5 0 1 1 0 3 1.5 1.5 0 0 1 0-3zm6-6a1.5 1.5 0 1 1 0 3 1.5 1.5 0 0 1 0-3zm7-4a1.5 1.5 0 1 1 0 3 1.5 1.5 0 0 1 0-3zm-13 14a2.5 2.5 0 0 0 2.08-3.88l2.54-2.54a2.5 2.5 0 0 0 3.78-2.75l2.66-1.77a2.49 2.49 0 0 0 4.44-1.56 2.5 2.5 0 0 0-5 0c0 .23.04.45.1.66l-2.66 1.78a2.49 2.49 0 0 0-4.02 2.94l-2.54 2.54a2.5 2.5 0 0 0-3.88 2.08 2.5 2.5 0 0 0 2.5 2.5z"/><path id="y21mc" d="M750 126.5v1a.5.5 0 0 0 1 0v-1a.5.5 0 0 0-1 0z"/><path id="y21md" d="M756 120.5v7a.5.5 0 0 0 1 0v-7a.5.5 0 0 0-1 0z"/><path id="y21me" d="M763 116.5v11a.5.5 0 0 0 1 0v-11a.5.5 0 0 0-1 0z"/></defs><g><g transform="translate(-743 -108)"><g><use fill="#707986" xlink:href="#y21ma"/></g><g><use fill="#44af36" xlink:href="#y21mb"/></g><g><use fill="#707986" xlink:href="#y21mc"/></g><g><use fill="#707986" xlink:href="#y21md"/></g><g><use fill="#707986" xlink:href="#y21me"/></g></g><g transform="translate(-743 -108)"><g><use fill="#707986" xlink:href="#y21ma"/></g><g><use fill="#44af36" xlink:href="#y21mb"/></g><g><use fill="#707986" xlink:href="#y21mc"/></g><g><use fill="#707986" xlink:href="#y21md"/></g><g><use fill="#707986" xlink:href="#y21me"/></g></g></g></svg>