<svg xmlns="http://www.w3.org/2000/svg" xmlns:xlink="http://www.w3.org/1999/xlink" width="12" height="7" viewBox="0 0 12 7"><defs><path id="m7pna" d="M97.82 1580.5c0 .28-.28.5-.62.5h-8.59c-.34 0-.61-.22-.61-.5s.27-.5.61-.5h8.6c.33 0 .6.22.6.5zm2.18 3c0 .28-.34.5-.75.5h-10.5c-.41 0-.75-.22-.75-.5s.34-.5.75-.5h10.5c.41 0 .75.22.75.5zm-5.45 3c0 .28-.19.5-.41.5H88.4c-.23 0-.41-.22-.41-.5s.18-.5.4-.5h5.74c.22 0 .4.22.4.5z"/></defs><g><g transform="translate(-88 -1580)"><use fill="#1991eb" xlink:href="#m7pna"/></g></g></svg>