<svg xmlns="http://www.w3.org/2000/svg" xmlns:xlink="http://www.w3.org/1999/xlink" width="13" height="10" viewBox="0 0 13 10"><defs><path id="vmuja" d="M68.64 287c0 .55-.3 1-.67 1h-9.3c-.37 0-.67-.45-.67-1s.3-1 .66-1h9.31c.37 0 .67.45.67 1zm2.36 4c0 .55-.36 1-.81 1H58.8c-.45 0-.81-.45-.81-1s.36-1 .81-1H70.2c.45 0 .81.45.81 1zm-6.5 4c0 .55-.18 1-.4 1h-5.7c-.22 0-.4-.45-.4-1s.18-1 .4-1h5.7c.22 0 .4.45.4 1z"/></defs><g><g transform="translate(-58 -286)"><use fill="#1991eb" xlink:href="#vmuja"/></g></g></svg>