<svg xmlns="http://www.w3.org/2000/svg" xmlns:xlink="http://www.w3.org/1999/xlink" width="12" height="16" viewBox="0 0 12 16"><defs><path id="lavwa" d="M43.6 720c0-1.12.46-2.17 1.29-2.96a4.15 4.15 0 0 1 2.76-1.22l-1.02.97a.74.74 0 0 0 0 1.08.82.82 0 0 0 1.13 0l2.97-2.82-2.96-2.83a.83.83 0 0 0-1.14 0 .74.74 0 0 0 0 1.08l1.05 1c-1.53.07-2.82.6-3.92 1.66A5.54 5.54 0 0 0 42 720c0 1.48.5 2.59 1.65 3.7.16.14.36.21.57.21.2 0 .4-.07.56-.22a.74.74 0 0 0 0-1.08A3.23 3.23 0 0 1 43.6 720zm10.4-.02c0-1.48-.5-2.59-1.65-3.7a.83.83 0 0 0-1.13 0 .74.74 0 0 0 0 1.09 3.23 3.23 0 0 1 1.18 2.61c0 1.12-.46 2.17-1.29 2.96a4.15 4.15 0 0 1-2.74 1.22l1-.95a.74.74 0 0 0 0-1.08.83.83 0 0 0-1.14 0l-2.96 2.82 2.96 2.83c.16.15.37.22.57.22.2 0 .41-.07.57-.22a.74.74 0 0 0 0-1.08l-1.07-1.02a5.85 5.85 0 0 0 5.7-5.7z"/></defs><g><g transform="translate(-42 -712)"><use fill="#45af37" xlink:href="#lavwa"/></g></g></svg>