<svg xmlns="http://www.w3.org/2000/svg" xmlns:xlink="http://www.w3.org/1999/xlink" width="20" height="16.77" viewBox="0 0 20 16.77"><defs><path id="gs1ea" d="M790.83 2323.47l9.94-6.29c.5-.3.96-.14.58.2l-8.52 7.69-.33 3.54zm12.82-9.36l-17.72 6.83c-1.2.49-1.2 1.16-.22 1.46l4.42 1.38 1.7 5.19c.2.56.1.79.7.79.45 0 .66-.21.91-.46l2.21-2.15 4.6 3.4c.84.46 1.45.22 1.66-.79l3.02-14.22c.31-1.23-.47-1.8-1.28-1.43z"/></defs><g><g transform="translate(-785 -2314)"><use fill="#fff" xlink:href="#gs1ea"/></g></g></svg>