<svg xmlns="http://www.w3.org/2000/svg" xmlns:xlink="http://www.w3.org/1999/xlink" width="13" height="11" viewBox="0 0 13 11"><defs><path id="ctnca" d="M928 1342.72v-6.1c0-.35-.22-.62-.5-.62h-2c-.28 0-.5.27-.5.61v6.11c0 .34.22.61.5.61h2c.28 0 .5-.27.5-.6zm9.99.5l-1.22-6.72a.61.61 0 0 0-.6-.5h-4.87a.61.61 0 0 0-.22.04l-2.08.96v5.8l1.74 3.83c.1.22.32.37.56.37h1.83c.34 0 .6-.27.6-.61v-2.45h3.66a.61.61 0 0 0 .6-.72z"/></defs><g><g transform="translate(-925 -1336)"><use fill="#ff3657" xlink:href="#ctnca"/></g></g></svg>