<svg xmlns="http://www.w3.org/2000/svg" xmlns:xlink="http://www.w3.org/1999/xlink" width="13" height="11" viewBox="0 0 13 11"><defs><path id="3r4xa" d="M809 1845.28v6.1c0 .35-.22.62-.5.62h-2c-.28 0-.5-.27-.5-.61v-6.11c0-.34.22-.61.5-.61h2c.28 0 .5.27.5.6zm9.99-.5l-1.22 6.72c-.05.29-.3.5-.6.5h-4.87a.61.61 0 0 1-.22-.04L810 1851v-5.8l1.74-3.83a.6.6 0 0 1 .56-.37h1.83c.34 0 .6.27.6.61v2.45h3.66a.61.61 0 0 1 .6.72z"/></defs><g><g transform="translate(-806 -1841)"><use fill="#8f96a1" xlink:href="#3r4xa"/></g></g></svg>