<svg xmlns="http://www.w3.org/2000/svg" xmlns:xlink="http://www.w3.org/1999/xlink" width="14" height="14" viewBox="0 0 14 14"><defs><path id="17mea" d="M639.43 1955.34c-.23.09-1.8-1.1-2.8-3.32-1-2.23-.88-4.26-.64-4.35.23-.1 1.76 1.33 2.76 3.56 1 2.23.91 4.02.68 4.1zm.45-4.65c-1.29-2.87-3.36-5.05-4.41-4.64-1.79.7 1.06 4.02-7.7 7.41-.75.3-.94 1.47-.62 2.18.31.7 1.35 1.4 2.1 1.1l.61-.2c.54.7 1.1.29 1.3.73l.95 2.07c.18.39.58.75.88.64l1.67-.6c.38-.14.47-.47.35-.72-.13-.28-.64-.36-.79-.68l-.76-1.68c-.19-.44.21-.8.79-.86 3.98-.4 4.73 1.96 6.08 1.43 1.05-.41.84-3.31-.45-6.18z"/></defs><g><g transform="translate(-627 -1946)"><use fill="#5cb0d5" xlink:href="#17mea"/></g></g></svg>