<svg xmlns="http://www.w3.org/2000/svg" xmlns:xlink="http://www.w3.org/1999/xlink" width="14" height="14" viewBox="0 0 14 14"><defs><path id="ih7ka" d="M551.33 495.87c-1.35.53-2.1-1.83-6.08-1.43-.58.06-.98.42-.8.86l.77 1.68c.15.32.66.4.79.68.12.25.03.58-.35.72l-1.67.6c-.3.1-.7-.25-.88-.64l-.94-2.07c-.2-.44-.77-.03-1.3-.73l-.62.2c-.75.3-1.79-.4-2.1-1.1-.32-.7-.13-1.88.63-2.18 8.75-3.4 5.9-6.72 7.69-7.41 1.05-.4 3.12 1.77 4.4 4.64 1.3 2.87 1.51 5.77.46 6.18zm-1.58-5.64c-1-2.23-2.53-3.65-2.76-3.56-.24.09-.36 2.12.64 4.35 1 2.23 2.57 3.4 2.8 3.32.23-.1.32-1.88-.68-4.11z"/></defs><g><g opacity=".5" transform="translate(-538 -485)"><use fill="#5bb0d5" xlink:href="#ih7ka"/></g></g></svg>