<svg xmlns="http://www.w3.org/2000/svg" xmlns:xlink="http://www.w3.org/1999/xlink" width="17" height="18" viewBox="0 0 17 18"><defs><path id="ytmca" d="M545.1 431c-.29.12-2.2-1.4-3.4-4.26-1.23-2.86-1.07-5.48-.79-5.6.28-.11 2.14 1.72 3.36 4.58 1.21 2.86 1.1 5.17.82 5.29zm.54-5.97c-1.57-3.69-4.09-6.49-5.36-5.97-2.16.9 1.29 5.17-9.34 9.54-.91.37-1.15 1.88-.76 2.79.38.9 1.64 1.8 2.55 1.42l.75-.25c.65.89 1.34.36 1.58.92l1.15 2.66c.21.5.7.97 1.06.83l2.03-.78c.46-.17.57-.6.43-.92-.16-.35-.78-.46-.96-.87l-.93-2.16c-.22-.57.26-1.03.96-1.1 4.84-.51 5.74 2.51 7.39 1.83 1.27-.52 1.01-4.26-.55-7.94z"/></defs><g><g transform="translate(-530 -419)"><use fill="#fff" xlink:href="#ytmca"/></g></g></svg>