<svg xmlns="http://www.w3.org/2000/svg" xmlns:xlink="http://www.w3.org/1999/xlink" width="9" height="9" viewBox="0 0 9 9"><defs><path id="779oa" d="M490.27 186.66c-.07.14-.16.27-.27.37-.1.1-.23.19-.35.27a3 3 0 0 0-.33.24c-.1.08-.18.17-.24.28-.06.1-.1.21-.1.35v.14c0 .1-.04.19-.13.29a.5.5 0 0 1-.36.16h-.03a.51.51 0 0 1-.36-.13.41.41 0 0 1-.15-.3c0-.26.04-.48.1-.66a1.73 1.73 0 0 1 .6-.77c.13-.08.23-.17.33-.25.1-.08.18-.16.24-.25a.47.47 0 0 0 .1-.3c0-.19-.06-.33-.17-.42a.69.69 0 0 0-.46-.14c-.12 0-.23 0-.32.02a.75.75 0 0 0-.43.22l-.2.24a.55.55 0 0 1-.27.2.5.5 0 0 1-.4-.04c-.13-.06-.2-.14-.23-.24a.56.56 0 0 1 0-.29.95.95 0 0 1 .15-.3c.08-.13.2-.25.35-.36a2.15 2.15 0 0 1 1.36-.42 2 2 0 0 1 .78.14c.21.09.39.21.52.36s.23.32.29.5c.06.19.09.38.09.58 0 .2-.04.37-.11.51zm-1.22 3.32c0 .13-.06.24-.17.34a.6.6 0 0 1-.42.15.65.65 0 0 1-.45-.15.45.45 0 0 1-.17-.34v-.22c0-.13.06-.25.17-.35.12-.1.27-.15.45-.15a.6.6 0 0 1 .42.15c.11.1.17.22.17.35zm-.55-6.98a4.5 4.5 0 1 0 .01 9.01 4.5 4.5 0 0 0-.01-9.01z"/></defs><g><g opacity=".5" transform="translate(-484 -183)"><use fill="#8f96a1" xlink:href="#779oa"/></g></g></svg>