<?xml version="1.0" encoding="UTF-8"?>
<svg width="11px" height="13px" viewBox="0 0 11 13" version="1.1" xmlns="http://www.w3.org/2000/svg" xmlns:xlink="http://www.w3.org/1999/xlink">
    <!-- Generator: Sketch 50.2 (55047) - http://www.bohemiancoding.com/sketch -->
    <title>trash</title>
    <desc>Created with Sketch.</desc>
    <defs></defs>
    <g id="ICO-Kabinet" stroke="none" stroke-width="1" fill="none" fill-rule="evenodd">
        <g id="Kabinet-1280x-ICO-Portfolio-Dropdown-7.3(Confirm)" transform="translate(-1210.000000, -616.000000)" fill="#8F96A1" fill-rule="nonzero">
            <g id="trash" transform="translate(1210.000000, 616.000000)">
                <path d="M2.96153846,6.015625 C2.96153846,5.79425 3.15107692,5.61458333 3.38461538,5.61458333 C3.61815385,5.61458333 3.80769231,5.79425 3.80769231,6.015625 L3.80769231,10.828125 C3.80769231,11.049901 3.61815385,11.2291667 3.38461538,11.2291667 C3.15107692,11.2291667 2.96153846,11.049901 2.96153846,10.828125 L2.96153846,6.015625 Z M5.07692308,6.015625 C5.07692308,5.79425 5.26646154,5.61458333 5.5,5.61458333 C5.73353846,5.61458333 5.92307692,5.79425 5.92307692,6.015625 L5.92307692,10.828125 C5.92307692,11.049901 5.73353846,11.2291667 5.5,11.2291667 C5.26646154,11.2291667 5.07692308,11.049901 5.07692308,10.828125 L5.07692308,6.015625 Z M7.19230769,6.015625 C7.19230769,5.79425 7.38184615,5.61458333 7.61538462,5.61458333 C7.84892308,5.61458333 8.03846154,5.79425 8.03846154,6.015625 L8.03846154,10.828125 C8.03846154,11.049901 7.84892308,11.2291667 7.61538462,11.2291667 C7.38184615,11.2291667 7.19230769,11.049901 7.19230769,10.828125 L7.19230769,6.015625 Z M0.846153846,11.2291667 C0.846153846,12.1150677 1.60388462,12.8333333 2.53846154,12.8333333 L8.46153846,12.8333333 C9.39611538,12.8333333 10.1538462,12.1150677 10.1538462,11.2291667 L10.1538462,4.8125 L0.846153846,4.8125 L0.846153846,11.2291667 Z M6.76923077,1.60416667 L4.23076923,1.60416667 L4.23076923,1.203125 C4.23076923,0.981348958 4.42030769,0.802083333 4.65384615,0.802083333 L6.34615385,0.802083333 C6.57969231,0.802083333 6.76923077,0.981348958 6.76923077,1.203125 L6.76923077,1.60416667 Z M10.1538462,1.60416667 L7.61538462,1.60416667 L7.61538462,0.802083333 C7.61538462,0.359333333 7.23630769,0 6.76923077,0 L4.23076923,0 C3.76369231,0 3.38461538,0.359333333 3.38461538,0.802083333 L3.38461538,1.60416667 L0.846153846,1.60416667 C0.379076923,1.60416667 0,1.9635 0,2.40625 L0,3.20833333 C0,3.65108333 0.378653846,4.01001562 0.845730769,4.01041667 L10.1546923,4.01041667 C10.6213462,4.01001562 11,3.65108333 11,3.20833333 L11,2.40625 C11,1.9635 10.6209231,1.60416667 10.1538462,1.60416667 Z"></path>
            </g>
        </g>
    </g>
</svg>