<svg xmlns="http://www.w3.org/2000/svg" xmlns:xlink="http://www.w3.org/1999/xlink" width="14.4" height="12" viewBox="0 0 14.4 12"><defs><path id="ei2ga" d="M125.4 511.41c-.53.24-1.1.4-1.7.5a2.93 2.93 0 0 0 1.3-1.7c-.6.37-1.23.62-1.88.74a2.77 2.77 0 0 0-2.15-.95c-.82 0-1.51.3-2.09.89-.57.59-.86 1.3-.86 2.14 0 .28.02.5.07.7a8.42 8.42 0 0 1-6.1-3.17c-.28.47-.41.98-.41 1.52 0 1.1.42 1.93 1.28 2.52-.44 0-.91-.13-1.41-.37 0 .75.23 1.39.7 1.95s1.05.91 1.73 1.05c-.27.07-.5.11-.71.11-.13 0-.3-.02-.55-.06.2.6.54 1.1 1.04 1.5.5.4 1.08.6 1.71.6a5.74 5.74 0 0 1-4.37 1.26 8.41 8.41 0 0 0 7.48.84c.92-.33 1.7-.79 2.36-1.36a9.03 9.03 0 0 0 3.08-7.13c.6-.44 1.09-.96 1.48-1.58z"/></defs><g><g opacity=".75" transform="translate(-111 -510)"><use fill="#fff" xlink:href="#ei2ga"/></g></g></svg>