<svg xmlns="http://www.w3.org/2000/svg" xmlns:xlink="http://www.w3.org/1999/xlink" width="119" height="269" viewBox="0 0 119 269"><defs><path id="mmdra" d="M58 266v-44h44v44zm22-4a18 18 0 1 0 0-36 18 18 0 0 0 0 36z"/><path id="mmdrb" d="M60 264v-40h40v40zm20-2a18 18 0 1 0 0-36 18 18 0 0 0 0 36z"/><path id="mmdrc" d="M62 244a18 18 0 1 1 36 0 18 18 0 0 1-36 0z"/><clipPath id="mmdrd"><use fill="#fff" xlink:href="#mmdra"/></clipPath><clipPath id="mmdre"><use fill="#fff" xlink:href="#mmdrb"/></clipPath><clipPath id="mmdrf"><use xlink:href="#mmdrc"/></clipPath></defs><g><g transform="translate(21 7)"><use fill="#fff" fill-opacity="0" stroke="#c5d0de" stroke-miterlimit="50" stroke-width="8" clip-path="url(&quot;#mmdrd&quot;)" xlink:href="#mmdrc"/><use fill="#fff" fill-opacity="0" stroke="#fff" stroke-miterlimit="50" stroke-width="4" clip-path="url(&quot;#mmdre&quot;)" xlink:href="#mmdrc"/></g><g clip-path="url(#mmdrf)" transform="translate(21 7)"/></g></svg>