<svg xmlns="http://www.w3.org/2000/svg" xmlns:xlink="http://www.w3.org/1999/xlink" width="15" height="15" viewBox="0 0 15 15"><defs><path id="v9oza" d="M68.5 482H62c-.83 0-1.5.67-1.5 1.5v1a.25.25 0 0 0 .34.24c.64-.24 1.22-.24 1.47-.24 1.33 0 2 .6 2.32 1.09.6.91.36 1.6.05 2.01a.25.25 0 0 0 .2.4h.56l-.44 2.2a.25.25 0 0 0 .44.22L67.6 488h.89c.83 0 1.5-.67 1.5-1.5v-3c0-.83-.67-1.5-1.5-1.5z"/><path id="v9ozb" d="M64.87 494.02l-1.91-.48-.17-.65c.52-.5.87-1.2.97-1.92.28-.08.5-.32.54-.63l.13-1a.75.75 0 0 0-.48-.79l.04-.94.2-.19c.27-.3.5-.81.02-1.56-.38-.57-1.01-.86-1.9-.86-.34 0-1.14 0-1.89.5-2.13.04-2.42 1.03-2.42 2 0 .22.05.73.09 1.03a.75.75 0 0 0-.52.81l.13 1c.04.33.29.59.6.65.1.68.44 1.36.92 1.86l-.18.7-1.91.47a2.8 2.8 0 0 0-2.13 2.73c0 .14.11.25.25.25h11.5c.14 0 .25-.11.25-.25a2.8 2.8 0 0 0-2.13-2.73z"/></defs><g><g transform="translate(-55 -482)"><g><use fill="#8f96a1" xlink:href="#v9oza"/></g><g><use fill="#8f96a1" xlink:href="#v9ozb"/></g></g></g></svg>