<svg xmlns="http://www.w3.org/2000/svg" xmlns:xlink="http://www.w3.org/1999/xlink" width="1286" height="68" viewBox="0 0 1286 68"><defs><path id="wg5ya" d="M1206 56V12h44v44zm22-4a18 18 0 1 0 0-36 18 18 0 0 0 0 36z"/><path id="wg5yb" d="M1208 54V14h40v40zm20-2a18 18 0 1 0 0-36 18 18 0 0 0 0 36z"/><path id="wg5yc" d="M1205 28.5v-18h22v18zm1-1.5l4-3h16V12h-20z"/><path id="wg5yd" d="M1210 34a18 18 0 1 1 36 0 18 18 0 0 1-36 0z"/><path id="wg5yh" d="M1206 27l4-3h16V12h-20z"/><path id="wg5yk" d="M1210.39 15c.04 0 .08.02.1.05.03.04.05.07.05.12v5.68c0 .04-.02.08-.04.1a.15.15 0 0 1-.11.05h-1.24a.15.15 0 0 1-.15-.15v-5.68c0-.05.02-.08.04-.12a.13.13 0 0 1 .11-.05z"/><path id="wg5yl" d="M1214.53 20.98c-.98 0-1.74-.27-2.3-.8a2.92 2.92 0 0 1-.82-2.2c0-.86.3-1.57.91-2.14.6-.56 1.36-.84 2.26-.84.65 0 1.23.13 1.74.38.08.04.1.1.06.2l-.49 1c-.04.08-.1.1-.19.07-.42-.2-.8-.3-1.18-.3-.42 0-.79.16-1.09.47-.3.3-.45.69-.45 1.16s.15.86.44 1.17c.29.3.66.46 1.11.46.42 0 .83-.1 1.23-.3.08-.04.14-.03.18.05l.49 1.03c.03.09 0 .15-.07.2-.56.26-1.16.38-1.83.38z"/><path id="wg5ym" d="M1221.4 18.03c0 .46-.14.84-.43 1.14-.3.3-.66.44-1.11.44-.45 0-.83-.14-1.12-.44-.29-.3-.44-.68-.44-1.14 0-.46.15-.84.44-1.13.29-.3.66-.45 1.1-.45.46 0 .83.16 1.12.45.29.3.43.69.43 1.15zM1223 18c0-.88-.3-1.6-.92-2.15a3.2 3.2 0 0 0-2.22-.84 3.2 3.2 0 0 0-2.23.84 2.79 2.79 0 0 0-.92 2.16c0 .88.3 1.6.92 2.15.62.56 1.36.84 2.23.84.87 0 1.61-.27 2.23-.82.61-.55.92-1.26.92-2.15z"/><clipPath id="wg5ye"><use fill="#fff" xlink:href="#wg5ya"/></clipPath><clipPath id="wg5yf"><use fill="#fff" xlink:href="#wg5yb"/></clipPath><linearGradient id="wg5yi" x1="1220.24" x2="1211.78" y1="12.71" y2="26.31" gradientUnits="userSpaceOnUse"><stop offset="0" stop-color="#a2c617"/><stop offset="1" stop-color="#3aaa34"/></linearGradient><clipPath id="wg5yj"><use fill="#fff" xlink:href="#wg5yc"/></clipPath><clipPath id="wg5yg"><use xlink:href="#wg5yd"/></clipPath></defs><g><g transform="translate(8 1)"><g><use fill="#fff" fill-opacity="0" stroke="#44af36" stroke-miterlimit="50" stroke-width="8" clip-path="url(&quot;#wg5ye&quot;)" xlink:href="#wg5yd"/><use fill="#fff" fill-opacity="0" stroke="#fff" stroke-miterlimit="50" stroke-width="4" clip-path="url(&quot;#wg5yf&quot;)" xlink:href="#wg5yd"/></g><g clip-path="url(#wg5yg)"/></g><g transform="translate(8 1)"><g><use fill="url(#wg5yi)" xlink:href="#wg5yh"/><use fill="#fff" fill-opacity="0" stroke="#fff" stroke-miterlimit="50" stroke-width="2" clip-path="url(&quot;#wg5yj&quot;)" xlink:href="#wg5yh"/></g><g><g><use fill="#fff" xlink:href="#wg5yk"/></g><g><use fill="#fff" xlink:href="#wg5yl"/></g><g><use fill="#fff" xlink:href="#wg5ym"/></g></g></g></g></svg>