<svg xmlns="http://www.w3.org/2000/svg" xmlns:xlink="http://www.w3.org/1999/xlink" width="16" height="15" viewBox="0 0 16 15"><defs><path id="kiz8a" d="M1107.21 241h-12.84c-.17 0-.37.14-.37.31v8.24c0 .17.2.33.37.33h2.2v3.42l3.47-3.42h7.17c.18 0 .29-.16.29-.33v-8.24c0-.17-.11-.31-.29-.31z"/><path id="kiz8b" d="M1109.71 243.42h-1.24v6.4c0 .62-.27 1.02-.97 1.02h-6.95l-1.5 1.5h4.99l3.46 3.43v-3.43h2.21c.17 0 .3-.16.3-.33v-8.24c0-.17-.13-.35-.3-.35z"/></defs><g><g transform="translate(-1094 -241)"><g><use fill="#8f96a1" xlink:href="#kiz8a"/></g><g><use fill="#8f96a1" xlink:href="#kiz8b"/></g></g></g></svg>