<svg xmlns="http://www.w3.org/2000/svg" xmlns:xlink="http://www.w3.org/1999/xlink" width="1038.19" height="1493" viewBox="0 0 1038.19 1493"><defs><path id="gl5da" d="M991 1490v-44h44v44zm22-4a18 18 0 1 0 0-36 18 18 0 0 0 0 36z"/><path id="gl5db" d="M993 1488v-40h40v40zm20-2a18 18 0 1 0 0-36 18 18 0 0 0 0 36z"/><path id="gl5dc" d="M990 1462.5v-18h22v18zm1-1.5l4-3h16v-12h-20z"/><path id="gl5dd" d="M995 1468a18 18 0 1 1 36 0 18 18 0 0 1-36 0z"/><path id="gl5dh" d="M991 1461l4-3h16v-12h-20z"/><path id="gl5dk" d="M995.39 1449c.04 0 .08.02.1.05.03.04.05.07.05.12v5.68c0 .05-.02.08-.04.1a.15.15 0 0 1-.11.05h-1.24a.15.15 0 0 1-.15-.15v-5.68c0-.05.02-.08.04-.12a.13.13 0 0 1 .11-.05z"/><path id="gl5dl" d="M999.52 1454.97c-.97 0-1.73-.26-2.28-.8a2.92 2.92 0 0 1-.83-2.2c0-.85.3-1.56.91-2.13.6-.56 1.36-.84 2.26-.84.64 0 1.22.13 1.74.38.08.04.1.1.06.2l-.49 1c-.04.08-.1.1-.19.07-.41-.2-.8-.3-1.17-.3-.43 0-.8.16-1.1.47-.3.3-.45.69-.45 1.16s.15.86.44 1.17c.29.3.66.46 1.11.46.42 0 .83-.1 1.23-.3.08-.04.14-.03.18.05l.49 1.03c.03.09 0 .15-.07.2-.55.26-1.16.38-1.83.38z"/><path id="gl5dm" d="M1006.4 1452.03c0 .46-.14.84-.43 1.14-.3.3-.66.44-1.11.44-.45 0-.83-.14-1.12-.44-.29-.3-.44-.68-.44-1.14 0-.46.15-.84.44-1.13.29-.3.66-.45 1.1-.45.46 0 .83.16 1.12.45.29.3.43.69.43 1.15zm1.59-.03c0-.88-.3-1.6-.92-2.15a3.2 3.2 0 0 0-2.22-.84 3.2 3.2 0 0 0-2.23.84 2.79 2.79 0 0 0-.92 2.16c0 .88.3 1.6.92 2.15.62.56 1.36.84 2.23.84.87 0 1.61-.27 2.23-.82.61-.55.92-1.26.92-2.15z"/><clipPath id="gl5de"><use fill="#fff" xlink:href="#gl5da"/></clipPath><clipPath id="gl5df"><use fill="#fff" xlink:href="#gl5db"/></clipPath><linearGradient id="gl5di" x1="1005.24" x2="996.78" y1="1446.71" y2="1460.31" gradientUnits="userSpaceOnUse"><stop offset="0" stop-color="#a2c617"/><stop offset="1" stop-color="#3aaa34"/></linearGradient><clipPath id="gl5dj"><use fill="#fff" xlink:href="#gl5dc"/></clipPath><clipPath id="gl5dg"><use xlink:href="#gl5dd"/></clipPath></defs><g><g transform="translate(7.19 7)"><use fill="#fff" fill-opacity="0" stroke="#7cc772" stroke-miterlimit="50" stroke-width="8" clip-path="url(&quot;#gl5de&quot;)" xlink:href="#gl5dd"/><use fill="#fff" fill-opacity="0" stroke="#fff" stroke-miterlimit="50" stroke-width="4" clip-path="url(&quot;#gl5df&quot;)" xlink:href="#gl5dd"/></g><g clip-path="url(#gl5dg)" transform="translate(7.19 7)"/><g transform="translate(7.19 7)"><use fill="url(#gl5di)" xlink:href="#gl5dh"/><use fill="#fff" fill-opacity="0" stroke="#fff" stroke-miterlimit="50" stroke-width="2" clip-path="url(&quot;#gl5dj&quot;)" xlink:href="#gl5dh"/></g><g transform="translate(7.19 7)"><use fill="#fff" xlink:href="#gl5dk"/></g><g transform="translate(7.19 7)"><use fill="#fff" xlink:href="#gl5dl"/></g><g transform="translate(7.19 7)"><use fill="#fff" xlink:href="#gl5dm"/></g></g></svg>