<svg xmlns="http://www.w3.org/2000/svg" xmlns:xlink="http://www.w3.org/1999/xlink" width="14" height="16" viewBox="0 0 14 16"><defs><path id="2hs9a" d="M1108 213.51c0 .78-.24 1.38-.73 1.83-.48.44-1.12.66-1.92.66h-8.7c-.8 0-1.44-.22-1.92-.66a2.35 2.35 0 0 1-.73-1.83 9.18 9.18 0 0 1 .6-3.53c.16-.35.37-.68.64-1 .27-.3.58-.54.93-.71l-.9-2.12h2.13a3.65 3.65 0 0 1-.2-1.53c-1.28-.26-1.93-.57-1.93-.93 0-.36.7-.68 2.1-.95a7.6 7.6 0 0 1 1.2-2.38.98.98 0 0 1 .76-.36c.2 0 .48.1.83.3.36.2.64.3.84.3.2 0 .48-.1.84-.3.35-.2.63-.3.83-.3.3 0 .54.12.76.36a7.61 7.61 0 0 1 1.21 2.38c1.4.27 2.09.59 2.09.95s-.65.67-1.93.93a3.6 3.6 0 0 1-.2 1.53h2.13l-.82 2.17c.42.2.78.52 1.07.93.3.4.51.86.65 1.37a9.94 9.94 0 0 1 .37 2.89zm-4.14-8.45a.22.22 0 0 0-.04-.06 2.85 2.85 0 0 0-.95-.08c-.46 0-1.02.06-1.66.19a.84.84 0 0 1-.21.01l-.2-.01a9.12 9.12 0 0 0-1.67-.19c-.57 0-.89.03-.95.08a.22.22 0 0 0-.04.06c.01.11.02.2.04.26 0 .02.03.04.07.06.04.02.06.06.08.1l.07.2a7.92 7.92 0 0 0 .14.36 1.8 1.8 0 0 0 .18.3c.04.06.08.1.12.13l.14.09a.5.5 0 0 0 .17.07 4.65 4.65 0 0 0 .45.06c.24 0 .43-.04.58-.12a.76.76 0 0 0 .33-.29c.06-.1.1-.22.14-.33.04-.1.07-.2.12-.28.04-.08.1-.12.17-.12h.12c.07 0 .13.04.17.12.05.08.08.17.12.28.03.11.08.22.14.33.07.12.17.21.33.3.15.07.34.11.58.11.09 0 .17 0 .25-.02l.2-.04a.5.5 0 0 0 .17-.07l.14-.1a10.46 10.46 0 0 0 .3-.43 3.12 3.12 0 0 0 .21-.55.17.17 0 0 1 .08-.1.25.25 0 0 0 .07-.06c.02-.06.03-.15.04-.26zm-1.59 9.7l1.28-6.14-1.28.61-.95 1.23zm-2.54 0l.95-4.3-.95-1.23-1.28-.61z"/></defs><g><g transform="translate(-1094 -200)"><use fill="#8f96a1" xlink:href="#2hs9a"/></g></g></svg>