<svg xmlns="http://www.w3.org/2000/svg" xmlns:xlink="http://www.w3.org/1999/xlink" width="24" height="15" viewBox="0 0 24 15"><defs><path id="78rja" d="M992.2 204c-.66 0-1.2-.07-1.2-.15v-2.7c0-.08.54-.15 1.2-.15h21.6c.66 0 1.2.07 1.2.15v2.7c0 .08-.54.15-1.2.15zm0-12c-.66 0-1.2-.07-1.2-.15v-2.7c0-.08.54-.15 1.2-.15h21.6c.66 0 1.2.07 1.2.15v2.7c0 .08-.54.15-1.2.15zm-.65 6c-.3 0-.55-.07-.55-.15v-2.7c0-.08.25-.15.55-.15h9.81c.3 0 .55.07.55.15v2.7c0 .08-.25.15-.55.15zm13 0c-.3 0-.55-.07-.55-.15v-2.7c0-.08.25-.15.55-.15h9.81c.3 0 .55.07.55.15v2.7c0 .08-.25.15-.55.15z"/></defs><g><g transform="translate(-991 -189)"><use fill="#8f96a1" xlink:href="#78rja"/></g></g></svg>