<svg xmlns="http://www.w3.org/2000/svg" xmlns:xlink="http://www.w3.org/1999/xlink" width="24" height="15" viewBox="0 0 24 15"><defs><path id="1sdxa" d="M1038 189.5a.5.5 0 0 0-.5-.5h-2a.5.5 0 0 0-.5.5v2c0 .27.22.5.5.5h2a.5.5 0 0 0 .5-.5zm21 6a.5.5 0 0 0-.5-.5h-18a.5.5 0 0 0-.5.5v2c0 .27.23.5.5.5h18a.5.5 0 0 0 .5-.5zm-21 0a.5.5 0 0 0-.5-.5h-2a.5.5 0 0 0-.5.5v2c0 .27.22.5.5.5h2a.5.5 0 0 0 .5-.5zm21 6a.5.5 0 0 0-.5-.5h-18a.5.5 0 0 0-.5.5v2c0 .27.23.5.5.5h18a.5.5 0 0 0 .5-.5zm-21 0a.5.5 0 0 0-.5-.5h-2a.5.5 0 0 0-.5.5v2c0 .27.22.5.5.5h2a.5.5 0 0 0 .5-.5zm21-12a.5.5 0 0 0-.5-.5h-18a.5.5 0 0 0-.5.5v2c0 .27.23.5.5.5h18a.5.5 0 0 0 .5-.5z"/></defs><g><g transform="translate(-1035 -189)"><use fill="#8f96a1" xlink:href="#1sdxa"/></g></g></svg>