<svg xmlns="http://www.w3.org/2000/svg" xmlns:xlink="http://www.w3.org/1999/xlink" width="16" height="14" viewBox="0 0 16 14"><defs><path id="lvwfa" d="M819.8 685.33c-.88 0-1.6-.7-1.6-1.55 0-.86.72-1.56 1.6-1.56.88 0 1.6.7 1.6 1.56 0 .86-.72 1.55-1.6 1.55zm1.2-4.78h-12.2v-1.67l10.53-.94v1.27l1.98-.08v-1.58c0-.98-1.2-1.67-2.29-1.53l-10.04 1.53c-1.09.13-1.98.8-1.98 1.77v8.9c0 .98.9 1.78 2 1.78h12c1.1 0 2-.8 2-1.78v-5.89c0-.98-.9-1.78-2-1.78z"/></defs><g><g opacity=".5" transform="translate(-807 -676)"><use fill="#5cb0d5" xlink:href="#lvwfa"/></g></g></svg>