<svg xmlns="http://www.w3.org/2000/svg" xmlns:xlink="http://www.w3.org/1999/xlink" width="15" height="23" viewBox="0 0 15 23"><defs><path id="xbmka" d="M870 675.5a5.5 5.5 0 1 1 .01-11.01 5.5 5.5 0 0 1-.01 11.01zm4.4-11.57l-.9-5.02a.5.5 0 0 0-.5-.41h-6a.5.5 0 0 0-.5.41l-.9 5.02a7.5 7.5 0 0 0 0 12.14l.9 5.02a.5.5 0 0 0 .5.41h6a.5.5 0 0 0 .5-.41l.9-5.02a7.5 7.5 0 0 0 0-12.14z"/><path id="xbmkb" d="M870.5 669.8V667a.5.5 0 0 0-1 0v3c0 .13.05.26.15.35l2 2a.5.5 0 0 0 .7 0 .5.5 0 0 0 0-.7z"/></defs><g><g transform="translate(-862.5 -658.5)"><g><use fill="#45af37" xlink:href="#xbmka"/></g><g><use fill="#45af37" xlink:href="#xbmkb"/></g></g></g></svg>