<svg xmlns="http://www.w3.org/2000/svg" xmlns:xlink="http://www.w3.org/1999/xlink" width="14" height="14" viewBox="0 0 14 14"><defs><path id="c29va" d="M1124.45 504.3a7.76 7.76 0 0 0-.26-.52l-6.2 6.16-3.55-3.44a1.23 1.23 0 0 1 1.71-1.78l1.82 1.76 4.7-4.66A6.71 6.71 0 0 0 1118 500c-.98 0-1.9.18-2.74.55a7.17 7.17 0 0 0-3.73 3.74 6.83 6.83 0 0 0-.54 2.71 6.89 6.89 0 0 0 2.04 4.96 6.99 6.99 0 0 0 9.9 0 7.16 7.16 0 0 0 1.5-2.23c.38-.85.56-1.76.56-2.73 0-.96-.18-1.86-.55-2.7"/><filter id="c29vb" width="35" height="35" x="1101" y="490" filterUnits="userSpaceOnUse"><feOffset dx="1" dy="1" in="SourceGraphic" result="FeOffset1054Out"/><feGaussianBlur in="FeOffset1054Out" result="FeGaussianBlur1055Out" stdDeviation="0 0"/></filter><linearGradient id="c29vc" x1="1118" x2="1118" y1="500" y2="514" gradientUnits="userSpaceOnUse"><stop offset="0" stop-color="#fff"/><stop offset="1" stop-color="#fff"/></linearGradient></defs><g><g transform="translate(-1111 -500)"><g filter="url(#c29vb)"><use fill="none" stroke-opacity=".1" stroke-width="-3.4e+38" xlink:href="#c29va"/></g><use fill="url(#c29vc)" xlink:href="#c29va"/></g></g></svg>