<svg xmlns="http://www.w3.org/2000/svg" xmlns:xlink="http://www.w3.org/1999/xlink" width="17" height="10" viewBox="0 0 17 10"><defs><path id="wsgda" d="M202.33 521.96s.31-.04.47-.21c.14-.16.14-.46.14-.46s-.02-1.4.61-1.61c.62-.2 1.42 1.35 2.27 1.96.65.45 1.13.35 1.13.35l2.27-.03s1.2-.08.63-1.04c-.05-.08-.33-.71-1.69-2.01-1.42-1.37-1.23-1.15.48-3.5 1.05-1.44 1.46-2.31 1.33-2.69-.12-.36-.89-.26-.89-.26l-2.56.01s-.18-.02-.33.06c-.13.09-.22.29-.22.29s-.4 1.1-.94 2.05c-1.14 2-1.6 2.1-1.78 1.98-.44-.3-.33-1.16-.33-1.78 0-1.93.29-2.74-.55-2.95a4.24 4.24 0 0 0-1.2-.12c-.9 0-1.68 0-2.12.23-.29.14-.51.47-.37.49.16.02.55.1.75.39.26.37.25 1.2.25 1.2s.15 2.27-.35 2.55c-.34.2-.82-.2-1.83-2.01-.52-.93-.91-1.95-.91-1.95s-.08-.2-.21-.3c-.17-.12-.4-.16-.4-.16l-2.43.02s-.36 0-.5.17c-.11.15 0 .45 0 .45s1.9 4.59 4.05 6.9c1.98 2.12 4.22 1.98 4.22 1.98z"/></defs><g><g opacity=".75" transform="translate(-193 -512)"><use fill="#fff" xlink:href="#wsgda"/></g></g></svg>