<svg xmlns="http://www.w3.org/2000/svg" xmlns:xlink="http://www.w3.org/1999/xlink" width="151.02" height="24" viewBox="0 0 151.02 24"><defs><path id="sg5sa" d="M1114.09 2540h4.34v4.35h-4.34z"/><path id="sg5se" d="M1114.09 2544.35a5.43 5.43 0 0 0 4.34-4.35 5.44 5.44 0 0 0-4.34 4.35"/><path id="sg5sb" d="M1098 2540.32h20.05V2564H1098z"/><path id="sg5sg" d="M1108.89 2554.6a5.43 5.43 0 0 0 8.64 4.08 5.42 5.42 0 0 1 .52-9.09 10.23 10.23 0 0 0-1.75-1.75c-3.73-2.97-6.93-5.45-7.42-7.52-.5 2.07-3.7 4.55-7.43 7.52-3.73 2.97-3.44 6.47-3.44 6.47a5.44 5.44 0 0 0 10.85.3c-.2 4.2-2.82 7.78-6.5 9.39h13.02a10.84 10.84 0 0 1-6.49-9.4"/><path id="sg5sh" d="M1171.29 2558.97c-.53.52-1.28.78-2.26.78-.99 0-1.75-.26-2.28-.78-.53-.52-.79-1.34-.79-2.44v-3.68c0-1.11.26-1.93.8-2.45.52-.52 1.28-.78 2.27-.78.98 0 1.73.26 2.26.78.53.52.8 1.34.8 2.45v3.67c0 1.11-.27 1.93-.8 2.45m-2.26-7.65c-.39 0-.67.1-.84.31-.17.21-.25.53-.25.94v4.23c0 .42.08.73.25.94.17.2.45.31.84.31.72 0 1.08-.42 1.08-1.25v-4.23c0-.83-.36-1.25-1.08-1.25"/><path id="sg5si" d="M1175.33 2553.3c.17-.37.4-.8.69-1.3l1.35-2.38h1.9l-2.3 4.22 2.5 5.91h-2.08l-1.7-4.17-.84 1.45v2.72h-2v-13.54h2v8.12l.47-1.02"/><path id="sg5sj" d="M1181.46 2556.8c0 .42.09.73.26.94.17.2.45.31.84.31.72 0 1.08-.42 1.08-1.25v-.14h1.83v-.13c0 1.1-.25 1.92-.77 2.44-.51.52-1.25.78-2.22.78-.98 0-1.72-.26-2.23-.78-.5-.52-.76-1.34-.76-2.44v-3.68c0-1.11.25-1.93.76-2.45.51-.52 1.25-.78 2.23-.78.97 0 1.7.26 2.22.78.52.52.77 1.34.77 2.45v2.42h-4zm2.19-3.15v-1.08c0-.83-.36-1.25-1.08-1.25-.4 0-.68.1-.85.31-.17.21-.25.53-.25.94v1.08z"/><path id="sg5sk" d="M1186.2 2549.62h1.86v1.57c0-.07.06-.18.1-.25a2.27 2.27 0 0 1 .45-.68c.25-.27.54-.47.9-.57.4-.12.81-.08 1.21.06.24.09.45.24.62.45.17.22.3.5.39.85.1.36.14.8.14 1.33v.56h-1.84v-.36c0-.48-.08-.81-.24-.99a.83.83 0 0 0-.87-.22c-.3.1-.51.44-.62.74-.07.2-.1.4-.1.6v7.04h-2z"/><path id="sg5sl" d="M1130.43 2554.22l-.22-1.83c-.08-.63-.13-1.28-.17-1.93l-.19 1.93c-.05.63-.12 1.24-.2 1.83l-.76 5.53h-2.64l-2.02-13.54h2.29l.78 5.33.29 2.22c.08.7.15 1.44.22 2.22a51.1 51.1 0 0 1 .49-4.46l.78-5.31h2.23l.76 5.33a115.8 115.8 0 0 1 .5 4.44 52.33 52.33 0 0 1 .49-4.46l.77-5.31h2.08l-2.02 13.54h-2.68z"/><path id="sg5sm" d="M1141.22 2558.97c-.53.52-1.28.78-2.26.78-.99 0-1.75-.26-2.28-.78-.53-.52-.79-1.34-.79-2.44v-3.68c0-1.11.26-1.93.8-2.45.52-.52 1.28-.78 2.27-.78.98 0 1.73.26 2.26.78.53.52.8 1.34.8 2.45v3.67c0 1.11-.27 1.93-.8 2.45m-2.26-7.65c-.39 0-.67.1-.84.31-.17.21-.25.53-.25.94v4.23c0 .42.08.73.25.94.17.2.45.31.84.31.72 0 1.08-.42 1.08-1.25v-4.23c0-.83-.36-1.25-1.08-1.25"/><path id="sg5sn" d="M1142.78 2549.62h1.86v1.57c0-.07.06-.18.1-.25a2.45 2.45 0 0 1 .45-.68c.25-.27.54-.47.9-.57.4-.12.81-.08 1.21.06.24.09.45.24.62.45.17.22.3.5.39.85.1.36.14.8.14 1.33v.56h-1.84v-.36c0-.48-.08-.81-.24-.99a.83.83 0 0 0-.87-.22c-.3.1-.51.44-.62.74-.07.2-.1.4-.1.6v7.04h-2z"/><path id="sg5sc" d="M1098 2564h151.02v-24H1098z"/><path id="sg5sp" d="M1149.27 2559.75h2v-13.54h-2z"/><path id="sg5sq" d="M1201.64 2556.8c0 .42.08.73.25.94.17.2.45.31.85.31.72 0 1.07-.42 1.07-1.25v-.14h1.85v-.13c0 1.1-.26 1.92-.78 2.44-.51.52-1.26.78-2.22.78-.98 0-1.73-.26-2.24-.78-.5-.52-.76-1.34-.76-2.44v-3.68c0-1.11.25-1.93.76-2.45.51-.52 1.26-.78 2.24-.78.96 0 1.7.26 2.22.78.52.52.77 1.34.77 2.45v2.42h-4.01zm2.17-3.15v-1.08c0-.83-.36-1.25-1.08-1.25-.39 0-.67.1-.84.31-.17.21-.25.53-.25.94v1.08z"/><path id="sg5sr" d="M1213.04 2559.75h2v-13.54h-2z"/><path id="sg5ss" d="M1219.34 2556.04a3.1 3.1 0 0 0-1.07-.72c-.67-.3-1.39-.58-1.92-1.11-.77-.77-.84-1.93-.48-2.9a2.4 2.4 0 0 1 1.5-1.47c1.48-.52 3.65-.15 4.12 1.6.1.34.12.69.12 1.04v.35h-1.84v-.33c0-.4-.1-.88-.45-1.13a1.12 1.12 0 0 0-1.33.08c-.3.29-.44.9-.28 1.3.17.4.61.64.98.82.7.33 1.45.59 2 1.15.61.62.98 1.44.93 2.3-.03.73-.23 1.52-.78 2.02a3.1 3.1 0 0 1-2.19.72c-.95 0-1.68-.25-2.19-.74-.5-.5-.76-1.28-.76-2.33v-.25h1.84v.44c0 .65.28 1.26 1 1.3 1.09.07 1.4-1.44.8-2.14"/><path id="sg5st" d="M1156.29 2546.21h-.08v4.66a2.35 2.35 0 0 0-.78-.9 2.08 2.08 0 0 0-1.21-.35c-.31 0-.6.05-.87.14-.27.09-.5.24-.69.46-.18.21-.33.5-.45.87a4.7 4.7 0 0 0-.16 1.35l-.01 4.5c0 .53.06.98.17 1.35.1.36.26.65.45.87.19.21.41.37.68.46.27.09.56.13.87.13.51 0 .94-.13 1.3-.4.36-.26.62-.6.78-1.02v1.42h1.9v-13.54zm-.1 10.45c0 .4-.1.72-.33 1-.23.26-.51.4-.85.4-.33 0-.57-.1-.73-.27-.16-.18-.24-.5-.24-.99v-4.23c0-.48.08-.8.25-.98.16-.18.4-.27.73-.27.33 0 .62.14.84.4.23.27.34.6.34 1z"/><path id="sg5su" d="M1197 2546.21h-.08v4.66a2.35 2.35 0 0 0-.78-.9 2.08 2.08 0 0 0-1.21-.35c-.31 0-.6.05-.87.14-.27.09-.5.24-.69.46-.18.21-.33.5-.45.87a4.7 4.7 0 0 0-.16 1.35l-.01 4.5c0 .53.06.98.17 1.35.1.36.26.65.45.87.19.21.41.37.68.46.27.09.56.13.87.13.51 0 .94-.13 1.3-.4.36-.26.62-.6.77-1.02v1.42h1.91v-13.54zm-.1 10.45c0 .4-.1.72-.33 1-.23.26-.51.4-.85.4-.33 0-.57-.1-.73-.27-.16-.18-.24-.5-.24-.99v-4.23c0-.48.08-.8.25-.98.16-.18.4-.27.73-.27.33 0 .62.14.84.4.23.27.34.6.34 1z"/><path id="sg5sv" d="M1212.34 2557.55v-4.84.12c0-1.11-.25-1.92-.74-2.44-.49-.51-1.22-.77-2.2-.77-.97 0-1.71.26-2.22.77-.5.52-.75 1.33-.75 2.44v.23h1.86v-.49c0-.41.08-.73.23-.94.16-.22.43-.33.8-.33.37 0 .63.11.79.32.4.56.26 1.29-.27 1.7-.36.27-.8.4-1.19.61-.36.19-.71.39-1.04.63a3.31 3.31 0 0 0-1.34 1.86c-.24 1.01-.07 2.43.89 3.03.72.44 1.85.4 2.52-.12.35-.27.6-.62.74-1.04v1.46h1.92v-1.36-.84m-2-.88c0 .4-.12.72-.34.99-.22.27-.5.4-.85.4-.61 0-1.02-.41-1.01-1.03a2 2 0 0 1 1.09-1.72c.36-.2.75-.34 1.1-.54v1.9"/><path id="sg5sw" d="M1222.66 2559.58h1.98v-2.96h-1.98z"/><path id="sg5sx" d="M1229.6 2552.24c0-.83-.36-1.24-1.07-1.24-.39 0-.66.1-.83.3-.17.21-.25.52-.25.94v4.6c0 .42.08.73.25.94.17.2.44.3.83.3.71 0 1.07-.4 1.07-1.23v-1.28h1.82v1c0 1.1-.26 1.91-.77 2.43-.5.51-1.24.77-2.2.77-.96 0-1.7-.26-2.2-.77-.5-.52-.76-1.33-.76-2.42v-4.07c0-1.1.25-1.9.75-2.42s1.25-.78 2.21-.78 1.7.26 2.2.78c.51.51.77 1.32.77 2.42v.81h-1.82z"/><path id="sg5sy" d="M1237.41 2559c-.52.52-1.27.77-2.24.77-.98 0-1.73-.25-2.26-.77-.52-.52-.78-1.33-.78-2.42v-4.07c0-1.1.26-1.9.78-2.42.53-.52 1.28-.78 2.26-.78.97 0 1.72.26 2.24.78.52.51.79 1.32.79 2.42v4.07c0 1.1-.27 1.9-.79 2.42m-2.24-8c-.39 0-.66.1-.83.3-.17.21-.25.52-.25.94v4.6c0 .42.08.73.25.94.17.2.44.3.83.3.71 0 1.07-.4 1.07-1.23v-4.61c0-.83-.36-1.24-1.07-1.24"/><path id="sg5sz" d="M1243.07 2559.56v-7.32c0-.48-.07-.8-.21-.98-.14-.18-.38-.26-.7-.26-.34 0-.6.13-.8.4-.2.26-.3.58-.3.97v7.19h-1.98v-10.04h1.84v1.34c.13-.44.37-.8.7-1.1.35-.3.8-.45 1.34-.45.46 0 .86.1 1.2.32.33.21.57.6.71 1.15.15-.41.4-.76.74-1.04.35-.29.79-.43 1.32-.43.3 0 .6.04.85.14.26.09.48.24.66.45.18.21.32.5.43.86.1.36.15.81.15 1.34v7.46h-1.98v-7.32c0-.48-.07-.8-.2-.98-.15-.18-.38-.26-.7-.26-.34 0-.61.13-.81.4-.2.26-.3.58-.3.97v7.19z"/><path id="sg5sA" d="M1159.23 2549.72h1.84v1.36c.14-.44.4-.81.75-1.11a2 2 0 0 1 1.34-.46c.31 0 .6.04.87.14.26.09.49.24.67.45.2.21.34.5.45.86.11.37.16.81.16 1.34v4.88c0 .53-.05.98-.16 1.34-.11.36-.26.65-.45.86-.18.21-.41.37-.67.46-.27.09-.56.13-.87.13-.46 0-.86-.11-1.19-.34a2.3 2.3 0 0 1-.76-.88v3.45h-1.98zm2.3 8.17c.23.27.5.4.84.4.32 0 .56-.09.73-.26.16-.18.24-.5.24-.98v-4.61c0-.48-.08-.8-.24-.98-.17-.18-.4-.26-.73-.26-.34 0-.61.13-.83.4-.22.26-.33.58-.33.97v4.34c0 .39.1.72.33.98z"/><clipPath id="sg5sd"><use xlink:href="#sg5sa"/></clipPath><clipPath id="sg5sf"><use xlink:href="#sg5sb"/></clipPath><clipPath id="sg5so"><use xlink:href="#sg5sc"/></clipPath></defs><g><g transform="translate(-1098 -2540)"><g><g/><g clip-path="url(#sg5sd)"><use fill="#2887c8" xlink:href="#sg5se"/></g></g><g><g/><g clip-path="url(#sg5sf)"><use fill="#2887c8" xlink:href="#sg5sg"/></g></g><g><use fill="#2887c8" xlink:href="#sg5sh"/></g><g><use fill="#2887c8" xlink:href="#sg5si"/></g><g><use fill="#2887c8" xlink:href="#sg5sj"/></g><g><use fill="#2887c8" xlink:href="#sg5sk"/></g><g><use fill="#403f41" xlink:href="#sg5sl"/></g><g><use fill="#403f41" xlink:href="#sg5sm"/></g><g><use fill="#403f41" xlink:href="#sg5sn"/></g><g/><g clip-path="url(#sg5so)"><use fill="#403f41" xlink:href="#sg5sp"/></g><g clip-path="url(#sg5so)"><use fill="#403f41" xlink:href="#sg5sq"/></g><g clip-path="url(#sg5so)"><use fill="#403f41" xlink:href="#sg5sr"/></g><g clip-path="url(#sg5so)"><use fill="#403f41" xlink:href="#sg5ss"/></g><g clip-path="url(#sg5so)"><use fill="#403f41" xlink:href="#sg5st"/></g><g clip-path="url(#sg5so)"><use fill="#403f41" xlink:href="#sg5su"/></g><g clip-path="url(#sg5so)"><use fill="#403f41" xlink:href="#sg5sv"/></g><g clip-path="url(#sg5so)"><use fill="#403f41" xlink:href="#sg5sw"/></g><g clip-path="url(#sg5so)"><use fill="#403f41" xlink:href="#sg5sx"/></g><g clip-path="url(#sg5so)"><use fill="#403f41" xlink:href="#sg5sy"/></g><g clip-path="url(#sg5so)"><use fill="#403f41" xlink:href="#sg5sz"/></g><g clip-path="url(#sg5so)"><use fill="#2887c8" xlink:href="#sg5sA"/></g></g></g></svg>