<svg xmlns="http://www.w3.org/2000/svg" xmlns:xlink="http://www.w3.org/1999/xlink" width="20" height="15.34" viewBox="0 0 20 15.34"><defs><path id="xhhta" d="M36.14 671.68a.35.35 0 0 0-.42.26l-.51 2.38-.6-1.13c-.13-.23-.53-.23-.65 0l-.6 1.13-.51-2.38c-.04-.18-.23-.3-.42-.26-.2.03-.32.2-.28.39l.71 3.33c.03.14.15.25.3.27.16.02.3-.06.37-.18l.75-1.4.76 1.4a.36.36 0 0 0 .36.18.35.35 0 0 0 .3-.27l.72-3.33c.04-.18-.09-.36-.28-.4z"/><path id="xhhtb" d="M41.86 671.68a.35.35 0 0 0-.42.26l-.51 2.38-.6-1.13c-.13-.23-.53-.23-.65 0l-.6 1.13-.51-2.38c-.04-.18-.23-.3-.42-.26-.2.03-.32.2-.28.39l.71 3.33c.03.14.15.25.3.27.16.02.3-.06.37-.18l.75-1.4.76 1.4a.36.36 0 0 0 .36.18.35.35 0 0 0 .3-.27l.72-3.33c.04-.18-.09-.36-.28-.4z"/><path id="xhhtc" d="M47.57 671.68a.35.35 0 0 0-.42.26l-.51 2.38-.6-1.13c-.13-.23-.53-.23-.65 0l-.6 1.13-.51-2.38c-.04-.18-.23-.3-.42-.26-.2.03-.32.2-.28.39l.71 3.33c.03.14.15.25.3.27.16.02.3-.06.37-.18l.75-1.4.76 1.4a.36.36 0 0 0 .36.18.35.35 0 0 0 .3-.27l.72-3.33c.04-.18-.09-.36-.28-.4z"/><path id="xhhtd" d="M49.29 676c0 .55-.48 1-1.08 1H31.8c-.6 0-1.08-.45-1.08-1v-4.67c0-.55.48-1 1.08-1H48.2c.6 0 1.08.45 1.08 1zm-6.6 4.64c.73-.7 1.33-1.71 1.75-2.98h2.3a7.4 7.4 0 0 1-4.05 2.98zm-2.69.31c-1.2-.2-2.32-1.43-2.98-3.29H40zm.71 0v-3.29h2.98c-.65 1.86-1.77 3.09-2.98 3.3zm-6.74-3.29h2.3a7.13 7.13 0 0 0 1.75 2.98 7.4 7.4 0 0 1-4.05-2.98zm4.07-10.31a6.65 6.65 0 0 0-1.51 2.31h-2.06a7.5 7.5 0 0 1 3.57-2.31zm2.67-.32c1.06.18 2.04 1.12 2.72 2.63H40.7zm-3.42 2.63c.67-1.5 1.65-2.45 2.71-2.63v2.63zm8.95 0H44.2a6.65 6.65 0 0 0-1.51-2.31 7.5 7.5 0 0 1 3.56 2.31zm1.97 0h-1.1a8.36 8.36 0 0 0-6.75-3.33 8.36 8.36 0 0 0-6.76 3.33h-1.81c-.99 0-1.79.75-1.79 1.67V676c0 .92.8 1.66 1.79 1.66h1.37a8.24 8.24 0 0 0 7.55 3.98 8.24 8.24 0 0 0 6.84-3.98h.66c.99 0 1.79-.74 1.79-1.66v-4.67c0-.92-.8-1.67-1.79-1.67z"/></defs><g><g transform="translate(-30 -666.33)"><g><use fill="#44af36" xlink:href="#xhhta"/></g><g><use fill="#44af36" xlink:href="#xhhtb"/></g><g><use fill="#44af36" xlink:href="#xhhtc"/></g><g><use fill="#8f96a1" xlink:href="#xhhtd"/></g></g></g></svg>